<svg xmlns="http://www.w3.org/2000/svg" xmlns:xlink="http://www.w3.org/1999/xlink" width="500" zoomAndPan="magnify" viewBox="0 0 375 374.999991" height="500" preserveAspectRatio="xMidYMid meet" version="1.0"><defs><g/><clipPath id="284708df5a"><path d="M 102.3125 110.722656 L 260.5625 110.722656 L 260.5625 268.972656 L 102.3125 268.972656 Z M 102.3125 110.722656 " clip-rule="nonzero"/></clipPath><clipPath id="183261e096"><path d="M 102.3125 185.722656 L 102.3125 193.683594 C 102.3125 235.105469 135.890625 268.683594 177.3125 268.683594 L 185.273438 268.683594 C 226.691406 268.683594 260.273438 235.105469 260.273438 193.683594 L 260.273438 185.722656 C 260.273438 144.304688 226.691406 110.722656 185.273438 110.722656 L 177.3125 110.722656 C 135.890625 110.722656 102.3125 144.304688 102.3125 185.722656 Z M 102.3125 185.722656 " clip-rule="nonzero"/></clipPath><clipPath id="c8d5f30d67"><path d="M 97.105469 99.308594 L 277.855469 99.308594 L 277.855469 228.308594 L 97.105469 228.308594 Z M 97.105469 99.308594 " clip-rule="nonzero"/></clipPath><clipPath id="2a58080bd0"><path d="M 237.148438 203 L 276 203 L 276 265 L 237.148438 265 Z M 237.148438 203 " clip-rule="nonzero"/></clipPath><clipPath id="8f885ddc55"><path d="M 237.148438 202.605469 L 276.898438 202.605469 L 276.898438 265.605469 L 237.148438 265.605469 Z M 237.148438 202.605469 " clip-rule="nonzero"/></clipPath><clipPath id="e7f2eb2d6d"><path d="M 174.316406 154.660156 L 208.816406 154.660156 L 208.816406 187.660156 L 174.316406 187.660156 Z M 174.316406 154.660156 " clip-rule="nonzero"/></clipPath><clipPath id="ae0542ee66"><path d="M 157.246094 146.476562 L 226.992188 146.476562 L 226.992188 197.445312 L 157.246094 197.445312 Z M 157.246094 146.476562 " clip-rule="nonzero"/></clipPath><clipPath id="7cd40da86f"><path d="M 160.246094 146.476562 L 223.617188 146.476562 C 225.273438 146.476562 226.613281 147.820312 226.613281 149.476562 L 226.613281 194.148438 C 226.613281 195.808594 225.273438 197.148438 223.617188 197.148438 L 160.246094 197.148438 C 158.589844 197.148438 157.246094 195.808594 157.246094 194.148438 L 157.246094 149.476562 C 157.246094 147.820312 158.589844 146.476562 160.246094 146.476562 Z M 160.246094 146.476562 " clip-rule="nonzero"/></clipPath><clipPath id="215d7e198b"><path d="M 173.988281 196.339844 L 183.347656 196.339844 L 183.347656 201.269531 L 173.988281 201.269531 Z M 173.988281 196.339844 " clip-rule="nonzero"/></clipPath><clipPath id="b7e055852a"><path d="M 0.988281 0.339844 L 10.347656 0.339844 L 10.347656 5.269531 L 0.988281 5.269531 Z M 0.988281 0.339844 " clip-rule="nonzero"/></clipPath><clipPath id="38bbbcd515"><rect x="0" width="11" y="0" height="6"/></clipPath><clipPath id="7603bf7809"><path d="M 163.527344 152.136719 L 219.765625 152.136719 L 219.765625 190.386719 L 163.527344 190.386719 Z M 163.527344 152.136719 " clip-rule="nonzero"/></clipPath><clipPath id="8734e4703d"><path d="M 166.527344 152.136719 L 216.625 152.136719 C 218.28125 152.136719 219.625 153.480469 219.625 155.136719 L 219.625 187.082031 C 219.625 188.738281 218.28125 190.082031 216.625 190.082031 L 166.527344 190.082031 C 164.871094 190.082031 163.527344 188.738281 163.527344 187.082031 L 163.527344 155.136719 C 163.527344 153.480469 164.871094 152.136719 166.527344 152.136719 Z M 166.527344 152.136719 " clip-rule="nonzero"/></clipPath><clipPath id="e274d84f6c"><path d="M 199.9375 196.042969 L 208.847656 196.042969 L 208.847656 200.96875 L 199.9375 200.96875 Z M 199.9375 196.042969 " clip-rule="nonzero"/></clipPath><clipPath id="da2bd2e700"><path d="M 0.9375 0.0429688 L 9.847656 0.0429688 L 9.847656 4.96875 L 0.9375 4.96875 Z M 0.9375 0.0429688 " clip-rule="nonzero"/></clipPath><clipPath id="e413267009"><rect x="0" width="10" y="0" height="5"/></clipPath><clipPath id="2a6b1ddb9a"><path d="M 178.367188 197.757812 L 186.359375 197.757812 L 186.359375 202.304688 L 178.367188 202.304688 Z M 178.367188 197.757812 " clip-rule="nonzero"/></clipPath><clipPath id="97ae6157a8"><path d="M 182.359375 197.757812 L 183.628906 199.308594 L 186.347656 200.03125 L 183.628906 200.757812 L 182.359375 202.304688 L 181.089844 200.757812 L 178.367188 200.03125 L 181.089844 199.308594 Z M 182.359375 197.757812 " clip-rule="nonzero"/></clipPath><clipPath id="3362ff5c0e"><path d="M 0.367188 0.757812 L 8.359375 0.757812 L 8.359375 5.304688 L 0.367188 5.304688 Z M 0.367188 0.757812 " clip-rule="nonzero"/></clipPath><clipPath id="f47d1d8dd0"><path d="M 4.359375 0.757812 L 5.628906 2.308594 L 8.347656 3.03125 L 5.628906 3.757812 L 4.359375 5.304688 L 3.089844 3.757812 L 0.367188 3.03125 L 3.089844 2.308594 Z M 4.359375 0.757812 " clip-rule="nonzero"/></clipPath><clipPath id="8f26d67e18"><rect x="0" width="9" y="0" height="6"/></clipPath><clipPath id="0c4b8c791b"><path d="M 196.519531 198.058594 L 204.511719 198.058594 L 204.511719 202.605469 L 196.519531 202.605469 Z M 196.519531 198.058594 " clip-rule="nonzero"/></clipPath><clipPath id="70769446da"><path d="M 200.507812 198.058594 L 201.777344 199.609375 L 204.5 200.332031 L 201.777344 201.054688 L 200.507812 202.605469 L 199.238281 201.054688 L 196.519531 200.332031 L 199.238281 199.609375 Z M 200.507812 198.058594 " clip-rule="nonzero"/></clipPath><clipPath id="9cd009f321"><path d="M 0.519531 0.0585938 L 8.511719 0.0585938 L 8.511719 4.605469 L 0.519531 4.605469 Z M 0.519531 0.0585938 " clip-rule="nonzero"/></clipPath><clipPath id="bb20e52066"><path d="M 4.507812 0.0585938 L 5.777344 1.609375 L 8.5 2.332031 L 5.777344 3.054688 L 4.507812 4.605469 L 3.238281 3.054688 L 0.519531 2.332031 L 3.238281 1.609375 Z M 4.507812 0.0585938 " clip-rule="nonzero"/></clipPath><clipPath id="5d4a610c67"><rect x="0" width="9" y="0" height="5"/></clipPath><clipPath id="b7c36ef837"><path d="M 185.089844 193.191406 L 198.5 193.191406 L 198.5 198.269531 L 185.089844 198.269531 Z M 185.089844 193.191406 " clip-rule="nonzero"/></clipPath><clipPath id="2e9fe82e5f"><path d="M 0.0898438 0.191406 L 13.5 0.191406 L 13.5 5.269531 L 0.0898438 5.269531 Z M 0.0898438 0.191406 " clip-rule="nonzero"/></clipPath><clipPath id="34cf4dae00"><rect x="0" width="14" y="0" height="6"/></clipPath><clipPath id="b32487f5ac"><path d="M 163 210 L 168 210 L 168 215 L 163 215 Z M 163 210 " clip-rule="nonzero"/></clipPath><clipPath id="68795656a9"><path d="M 163.152344 211.234375 L 167.074219 210.273438 L 167.914062 213.703125 L 163.992188 214.664062 Z M 163.152344 211.234375 " clip-rule="nonzero"/></clipPath><clipPath id="a76c60ae71"><path d="M 165.109375 210.757812 L 167.910156 213.707031 L 163.992188 214.664062 Z M 165.109375 210.757812 " clip-rule="nonzero"/></clipPath><clipPath id="4b57d30f1b"><path d="M 0.921875 0.71875 L 5 0.71875 L 5 4.800781 L 0.921875 4.800781 Z M 0.921875 0.71875 " clip-rule="nonzero"/></clipPath><clipPath id="e9b1ed1006"><path d="M 0.152344 1.234375 L 4.074219 0.273438 L 4.914062 3.703125 L 0.992188 4.664062 Z M 0.152344 1.234375 " clip-rule="nonzero"/></clipPath><clipPath id="8caa0ff5e3"><path d="M 2.109375 0.757812 L 4.910156 3.707031 L 0.992188 4.664062 Z M 2.109375 0.757812 " clip-rule="nonzero"/></clipPath><clipPath id="983ffa1a02"><rect x="0" width="5" y="0" height="5"/></clipPath><clipPath id="8473b8ba9d"><path d="M 165 210 L 169 210 L 169 215 L 165 215 Z M 165 210 " clip-rule="nonzero"/></clipPath><clipPath id="38ccfaed86"><path d="M 166.710938 209.378906 L 169.699219 212.570312 L 168.007812 214.15625 L 165.015625 210.96875 Z M 166.710938 209.378906 " clip-rule="nonzero"/></clipPath><clipPath id="cfeb77f7bb"><path d="M 168.203125 210.972656 L 168.007812 214.15625 L 165.015625 210.96875 Z M 168.203125 210.972656 " clip-rule="nonzero"/></clipPath><clipPath id="52e1e6c0ea"><path d="M 0 0.960938 L 3.238281 0.960938 L 3.238281 4.320312 L 0 4.320312 Z M 0 0.960938 " clip-rule="nonzero"/></clipPath><clipPath id="c3d443eabd"><path d="M 1.710938 -0.621094 L 4.699219 2.570312 L 3.007812 4.15625 L 0.015625 0.96875 Z M 1.710938 -0.621094 " clip-rule="nonzero"/></clipPath><clipPath id="b42545e0bb"><path d="M 3.203125 0.972656 L 3.007812 4.15625 L 0.015625 0.96875 Z M 3.203125 0.972656 " clip-rule="nonzero"/></clipPath><clipPath id="6be5261946"><rect x="0" width="4" y="0" height="5"/></clipPath><clipPath id="08ff418e76"><path d="M 164 210 L 169 210 L 169 215 L 164 215 Z M 164 210 " clip-rule="nonzero"/></clipPath><clipPath id="ef914c3349"><path d="M 170.074219 212.988281 L 166.191406 216.582031 L 164.28125 214.519531 L 168.167969 210.925781 Z M 170.074219 212.988281 " clip-rule="nonzero"/></clipPath><clipPath id="7f51c71b6b"><path d="M 168.132812 214.785156 L 164.285156 214.519531 L 168.167969 210.925781 Z M 168.132812 214.785156 " clip-rule="nonzero"/></clipPath><clipPath id="44b376e2f5"><path d="M 0.160156 0.71875 L 4.238281 0.71875 L 4.238281 4.800781 L 0.160156 4.800781 Z M 0.160156 0.71875 " clip-rule="nonzero"/></clipPath><clipPath id="e24270ff96"><path d="M 6.074219 2.988281 L 2.191406 6.582031 L 0.28125 4.519531 L 4.167969 0.925781 Z M 6.074219 2.988281 " clip-rule="nonzero"/></clipPath><clipPath id="d57e5a9fa8"><path d="M 4.132812 4.785156 L 0.285156 4.519531 L 4.167969 0.925781 Z M 4.132812 4.785156 " clip-rule="nonzero"/></clipPath><clipPath id="6f60e3ef65"><rect x="0" width="5" y="0" height="5"/></clipPath><clipPath id="68c3feedf7"><path d="M 1 1 L 6 1 L 6 6 L 1 6 Z M 1 1 " clip-rule="nonzero"/></clipPath><clipPath id="85f9e4937e"><path d="M 0.953125 2.25 L 4.375 1.410156 L 5.105469 4.402344 L 1.683594 5.238281 Z M 0.953125 2.25 " clip-rule="nonzero"/></clipPath><clipPath id="823e8600ee"><path d="M 2.660156 1.832031 L 5.101562 4.402344 L 1.683594 5.238281 Z M 2.660156 1.832031 " clip-rule="nonzero"/></clipPath><clipPath id="3d7c87b000"><path d="M 0.480469 0.761719 L 4.320312 0.761719 L 4.320312 4.359375 L 0.480469 4.359375 Z M 0.480469 0.761719 " clip-rule="nonzero"/></clipPath><clipPath id="b0e5f09f5c"><path d="M -0.046875 1.25 L 3.375 0.410156 L 4.105469 3.402344 L 0.683594 4.238281 Z M -0.046875 1.25 " clip-rule="nonzero"/></clipPath><clipPath id="7875f19ef8"><path d="M 1.660156 0.832031 L 4.101562 3.402344 L 0.683594 4.238281 Z M 1.660156 0.832031 " clip-rule="nonzero"/></clipPath><clipPath id="b4d90c2675"><rect x="0" width="5" y="0" height="5"/></clipPath><clipPath id="4358f04e40"><path d="M 2 2 L 6 2 L 6 5 L 2 5 Z M 2 2 " clip-rule="nonzero"/></clipPath><clipPath id="22bc06db5d"><path d="M 4.054688 0.628906 L 6.664062 3.410156 L 5.1875 4.796875 L 2.578125 2.015625 Z M 4.054688 0.628906 " clip-rule="nonzero"/></clipPath><clipPath id="043708ccf7"><path d="M 5.359375 2.019531 L 5.1875 4.796875 L 2.578125 2.015625 Z M 5.359375 2.019531 " clip-rule="nonzero"/></clipPath><clipPath id="69db5a4c47"><path d="M 0.441406 0 L 3.558594 0 L 3.558594 2.878906 L 0.441406 2.878906 Z M 0.441406 0 " clip-rule="nonzero"/></clipPath><clipPath id="5ba7cf966d"><path d="M 2.054688 -1.371094 L 4.664062 1.410156 L 3.1875 2.796875 L 0.578125 0.015625 Z M 2.054688 -1.371094 " clip-rule="nonzero"/></clipPath><clipPath id="3be1fd1385"><path d="M 3.359375 0.0195312 L 3.1875 2.796875 L 0.578125 0.015625 Z M 3.359375 0.0195312 " clip-rule="nonzero"/></clipPath><clipPath id="1d7ab46173"><rect x="0" width="4" y="0" height="3"/></clipPath><clipPath id="41773da441"><path d="M 1 1 L 6 1 L 6 6 L 1 6 Z M 1 1 " clip-rule="nonzero"/></clipPath><clipPath id="26fa12f3de"><path d="M 6.992188 3.777344 L 3.601562 6.914062 L 1.9375 5.113281 L 5.328125 1.980469 Z M 6.992188 3.777344 " clip-rule="nonzero"/></clipPath><clipPath id="dfd977ea38"><path d="M 5.296875 5.34375 L 1.9375 5.113281 L 5.328125 1.980469 Z M 5.296875 5.34375 " clip-rule="nonzero"/></clipPath><clipPath id="266b10ac54"><path d="M 0.71875 0.761719 L 4.558594 0.761719 L 4.558594 4.359375 L 0.71875 4.359375 Z M 0.71875 0.761719 " clip-rule="nonzero"/></clipPath><clipPath id="b535fb8fe8"><path d="M 5.992188 2.777344 L 2.601562 5.914062 L 0.9375 4.113281 L 4.328125 0.980469 Z M 5.992188 2.777344 " clip-rule="nonzero"/></clipPath><clipPath id="37e88d8a9b"><path d="M 4.296875 4.34375 L 0.9375 4.113281 L 4.328125 0.980469 Z M 4.296875 4.34375 " clip-rule="nonzero"/></clipPath><clipPath id="b6e1625c79"><rect x="0" width="5" y="0" height="5"/></clipPath><clipPath id="47dca2cfc1"><rect x="0" width="7" y="0" height="8"/></clipPath><clipPath id="1f4a612d38"><path d="M 97.105469 99.308594 L 247.855469 99.308594 L 247.855469 280 L 97.105469 280 Z M 97.105469 99.308594 " clip-rule="nonzero"/></clipPath><clipPath id="1b2c690e33"><path d="M 243 233 L 247.855469 233 L 247.855469 261 L 243 261 Z M 243 233 " clip-rule="nonzero"/></clipPath><clipPath id="3c38d0e29f"><path d="M 105.832031 295.535156 L 111.816406 295.535156 L 111.816406 301.519531 L 105.832031 301.519531 Z M 105.832031 295.535156 " clip-rule="nonzero"/></clipPath><clipPath id="41a19c0802"><path d="M 108.824219 295.535156 C 107.171875 295.535156 105.832031 296.875 105.832031 298.527344 C 105.832031 300.179688 107.171875 301.519531 108.824219 301.519531 C 110.476562 301.519531 111.816406 300.179688 111.816406 298.527344 C 111.816406 296.875 110.476562 295.535156 108.824219 295.535156 Z M 108.824219 295.535156 " clip-rule="nonzero"/></clipPath><clipPath id="e13271954f"><path d="M 0.832031 0.535156 L 6.816406 0.535156 L 6.816406 6.519531 L 0.832031 6.519531 Z M 0.832031 0.535156 " clip-rule="nonzero"/></clipPath><clipPath id="7afca6405e"><path d="M 3.824219 0.535156 C 2.171875 0.535156 0.832031 1.875 0.832031 3.527344 C 0.832031 5.179688 2.171875 6.519531 3.824219 6.519531 C 5.476562 6.519531 6.816406 5.179688 6.816406 3.527344 C 6.816406 1.875 5.476562 0.535156 3.824219 0.535156 Z M 3.824219 0.535156 " clip-rule="nonzero"/></clipPath><clipPath id="80c2737396"><rect x="0" width="7" y="0" height="7"/></clipPath><clipPath id="b049551729"><path d="M 178.28125 303.035156 L 184.265625 303.035156 L 184.265625 309.019531 L 178.28125 309.019531 Z M 178.28125 303.035156 " clip-rule="nonzero"/></clipPath><clipPath id="ceb9d763ca"><path d="M 181.273438 303.035156 C 179.621094 303.035156 178.28125 304.375 178.28125 306.027344 C 178.28125 307.679688 179.621094 309.019531 181.273438 309.019531 C 182.925781 309.019531 184.265625 307.679688 184.265625 306.027344 C 184.265625 304.375 182.925781 303.035156 181.273438 303.035156 Z M 181.273438 303.035156 " clip-rule="nonzero"/></clipPath><clipPath id="d85562576d"><path d="M 0.28125 0.0351562 L 6.265625 0.0351562 L 6.265625 6.019531 L 0.28125 6.019531 Z M 0.28125 0.0351562 " clip-rule="nonzero"/></clipPath><clipPath id="a828cb875d"><path d="M 3.273438 0.0351562 C 1.621094 0.0351562 0.28125 1.375 0.28125 3.027344 C 0.28125 4.679688 1.621094 6.019531 3.273438 6.019531 C 4.925781 6.019531 6.265625 4.679688 6.265625 3.027344 C 6.265625 1.375 4.925781 0.0351562 3.273438 0.0351562 Z M 3.273438 0.0351562 " clip-rule="nonzero"/></clipPath><clipPath id="e2cbe2d3e7"><rect x="0" width="7" y="0" height="7"/></clipPath><clipPath id="9ca09ea218"><path d="M 213.546875 278.441406 L 219.53125 278.441406 L 219.53125 284.425781 L 213.546875 284.425781 Z M 213.546875 278.441406 " clip-rule="nonzero"/></clipPath><clipPath id="5aa6cb807d"><path d="M 216.539062 278.441406 C 214.886719 278.441406 213.546875 279.78125 213.546875 281.433594 C 213.546875 283.085938 214.886719 284.425781 216.539062 284.425781 C 218.191406 284.425781 219.53125 283.085938 219.53125 281.433594 C 219.53125 279.78125 218.191406 278.441406 216.539062 278.441406 Z M 216.539062 278.441406 " clip-rule="nonzero"/></clipPath><clipPath id="445ede4068"><path d="M 0.546875 0.441406 L 6.53125 0.441406 L 6.53125 6.425781 L 0.546875 6.425781 Z M 0.546875 0.441406 " clip-rule="nonzero"/></clipPath><clipPath id="ec35079ec5"><path d="M 3.539062 0.441406 C 1.886719 0.441406 0.546875 1.78125 0.546875 3.433594 C 0.546875 5.085938 1.886719 6.425781 3.539062 6.425781 C 5.191406 6.425781 6.53125 5.085938 6.53125 3.433594 C 6.53125 1.78125 5.191406 0.441406 3.539062 0.441406 Z M 3.539062 0.441406 " clip-rule="nonzero"/></clipPath><clipPath id="ae22f0e473"><rect x="0" width="7" y="0" height="7"/></clipPath><clipPath id="fbb022a503"><path d="M 285.695312 285.941406 L 291.679688 285.941406 L 291.679688 291.925781 L 285.695312 291.925781 Z M 285.695312 285.941406 " clip-rule="nonzero"/></clipPath><clipPath id="7018e81739"><path d="M 288.6875 285.941406 C 287.035156 285.941406 285.695312 287.28125 285.695312 288.933594 C 285.695312 290.585938 287.035156 291.925781 288.6875 291.925781 C 290.339844 291.925781 291.679688 290.585938 291.679688 288.933594 C 291.679688 287.28125 290.339844 285.941406 288.6875 285.941406 Z M 288.6875 285.941406 " clip-rule="nonzero"/></clipPath><clipPath id="8ae32ef59e"><path d="M 0.695312 0.941406 L 6.679688 0.941406 L 6.679688 6.925781 L 0.695312 6.925781 Z M 0.695312 0.941406 " clip-rule="nonzero"/></clipPath><clipPath id="6cc5d4198f"><path d="M 3.6875 0.941406 C 2.035156 0.941406 0.695312 2.28125 0.695312 3.933594 C 0.695312 5.585938 2.035156 6.925781 3.6875 6.925781 C 5.339844 6.925781 6.679688 5.585938 6.679688 3.933594 C 6.679688 2.28125 5.339844 0.941406 3.6875 0.941406 Z M 3.6875 0.941406 " clip-rule="nonzero"/></clipPath><clipPath id="0aae12a75e"><rect x="0" width="7" y="0" height="7"/></clipPath><clipPath id="10c0fcbb91"><path d="M 124.273438 301.683594 L 128.023438 301.683594 L 128.023438 305.433594 L 124.273438 305.433594 Z M 124.273438 301.683594 " clip-rule="nonzero"/></clipPath><clipPath id="fa79bf1746"><path d="M 126.289062 301.683594 C 125.175781 301.683594 124.273438 302.585938 124.273438 303.699219 C 124.273438 304.8125 125.175781 305.714844 126.289062 305.714844 C 127.402344 305.714844 128.304688 304.8125 128.304688 303.699219 C 128.304688 302.585938 127.402344 301.683594 126.289062 301.683594 Z M 126.289062 301.683594 " clip-rule="nonzero"/></clipPath><clipPath id="50f8214c2e"><path d="M 171.074219 309.484375 L 174.824219 309.484375 L 174.824219 313.234375 L 171.074219 313.234375 Z M 171.074219 309.484375 " clip-rule="nonzero"/></clipPath><clipPath id="27c94fa592"><path d="M 173.089844 309.484375 C 171.976562 309.484375 171.074219 310.386719 171.074219 311.5 C 171.074219 312.613281 171.976562 313.515625 173.089844 313.515625 C 174.203125 313.515625 175.105469 312.613281 175.105469 311.5 C 175.105469 310.386719 174.203125 309.484375 173.089844 309.484375 Z M 173.089844 309.484375 " clip-rule="nonzero"/></clipPath><clipPath id="25ac6252d6"><path d="M 164.773438 313.535156 L 168.523438 313.535156 L 168.523438 317.285156 L 164.773438 317.285156 Z M 164.773438 313.535156 " clip-rule="nonzero"/></clipPath><clipPath id="73077dfed7"><path d="M 166.789062 313.535156 C 165.675781 313.535156 164.773438 314.4375 164.773438 315.550781 C 164.773438 316.664062 165.675781 317.566406 166.789062 317.566406 C 167.902344 317.566406 168.804688 316.664062 168.804688 315.550781 C 168.804688 314.4375 167.902344 313.535156 166.789062 313.535156 Z M 166.789062 313.535156 " clip-rule="nonzero"/></clipPath><clipPath id="4d901a45fa"><path d="M 185.925781 317.433594 L 189.675781 317.433594 L 189.675781 321.183594 L 185.925781 321.183594 Z M 185.925781 317.433594 " clip-rule="nonzero"/></clipPath><clipPath id="8c4e65207a"><path d="M 187.941406 317.433594 C 186.828125 317.433594 185.925781 318.335938 185.925781 319.449219 C 185.925781 320.5625 186.828125 321.464844 187.941406 321.464844 C 189.054688 321.464844 189.957031 320.5625 189.957031 319.449219 C 189.957031 318.335938 189.054688 317.433594 187.941406 317.433594 Z M 187.941406 317.433594 " clip-rule="nonzero"/></clipPath><clipPath id="aaa8c047e0"><path d="M 223.726562 305.734375 L 227.476562 305.734375 L 227.476562 309.484375 L 223.726562 309.484375 Z M 223.726562 305.734375 " clip-rule="nonzero"/></clipPath><clipPath id="bbf01d5a18"><path d="M 225.742188 305.734375 C 224.628906 305.734375 223.726562 306.636719 223.726562 307.75 C 223.726562 308.863281 224.628906 309.765625 225.742188 309.765625 C 226.855469 309.765625 227.757812 308.863281 227.757812 307.75 C 227.757812 306.636719 226.855469 305.734375 225.742188 305.734375 Z M 225.742188 305.734375 " clip-rule="nonzero"/></clipPath><clipPath id="47a29e6081"><path d="M 222.539062 274.242188 L 226.289062 274.242188 L 226.289062 277.992188 L 222.539062 277.992188 Z M 222.539062 274.242188 " clip-rule="nonzero"/></clipPath><clipPath id="f95b0250d0"><path d="M 224.554688 274.242188 C 223.441406 274.242188 222.539062 275.144531 222.539062 276.257812 C 222.539062 277.371094 223.441406 278.273438 224.554688 278.273438 C 225.667969 278.273438 226.570312 277.371094 226.570312 276.257812 C 226.570312 275.144531 225.667969 274.242188 224.554688 274.242188 Z M 224.554688 274.242188 " clip-rule="nonzero"/></clipPath><clipPath id="d833aea734"><path d="M 269.488281 282.042969 L 273.238281 282.042969 L 273.238281 285.792969 L 269.488281 285.792969 Z M 269.488281 282.042969 " clip-rule="nonzero"/></clipPath><clipPath id="cf5feb7206"><path d="M 271.503906 282.042969 C 270.390625 282.042969 269.488281 282.945312 269.488281 284.058594 C 269.488281 285.171875 270.390625 286.074219 271.503906 286.074219 C 272.617188 286.074219 273.519531 285.171875 273.519531 284.058594 C 273.519531 282.945312 272.617188 282.042969 271.503906 282.042969 Z M 271.503906 282.042969 " clip-rule="nonzero"/></clipPath></defs><g clip-path="url(#284708df5a)"><g clip-path="url(#183261e096)"><path fill="#82dbff" d="M 112.0625 246.242188 C 112.0625 245.082031 111.117188 244.136719 109.957031 244.136719 C 108.800781 244.136719 107.855469 245.082031 107.855469 246.242188 C 107.855469 247.277344 108.609375 248.144531 109.601562 248.316406 L 109.601562 259.078125 C 109.601562 259.195312 109.652344 259.289062 109.722656 259.347656 L 117.296875 266.921875 C 117.382812 267.007812 117.488281 267.039062 117.582031 267.027344 L 160.003906 267.027344 C 160.121094 267.027344 160.214844 266.976562 160.277344 266.90625 L 173.253906 253.925781 L 210.386719 253.925781 C 210.546875 254.539062 211.105469 254.996094 211.765625 254.996094 C 212.550781 254.996094 213.191406 254.355469 213.191406 253.570312 C 213.191406 252.785156 212.550781 252.144531 211.765625 252.144531 C 211.101562 252.144531 210.542969 252.601562 210.386719 253.214844 L 173.148438 253.214844 C 173.074219 253.207031 172.992188 253.21875 172.914062 253.269531 C 172.890625 253.285156 172.875 253.300781 172.855469 253.316406 L 159.859375 266.3125 L 117.699219 266.3125 L 110.316406 258.929688 L 110.316406 248.320312 C 111.304688 248.144531 112.0625 247.277344 112.0625 246.242188 M 189.097656 250.054688 C 190.257812 250.054688 191.199219 249.109375 191.199219 247.953125 C 191.199219 246.792969 190.257812 245.847656 189.097656 245.847656 C 188.058594 245.847656 187.195312 246.605469 187.023438 247.59375 L 158.722656 247.59375 C 158.621094 247.59375 158.53125 247.632812 158.46875 247.699219 L 145.84375 260.320312 L 122.9375 260.320312 L 117 254.378906 L 117 237.199219 L 139.75 216.402344 C 139.839844 216.324219 139.875 216.21875 139.867188 216.117188 L 139.867188 187.304688 C 140.480469 187.144531 140.9375 186.582031 140.9375 185.925781 C 140.9375 185.140625 140.296875 184.5 139.511719 184.5 C 138.726562 184.5 138.085938 185.140625 138.085938 185.925781 C 138.085938 186.585938 138.542969 187.148438 139.15625 187.304688 L 139.15625 215.984375 L 116.425781 236.757812 C 116.375 236.796875 116.332031 236.855469 116.304688 236.933594 C 116.292969 236.96875 116.285156 237 116.285156 237.039062 L 116.285156 254.484375 C 116.277344 254.5625 116.292969 254.644531 116.34375 254.726562 C 116.355469 254.746094 116.371094 254.765625 116.390625 254.78125 L 122.539062 260.929688 C 122.601562 260.996094 122.691406 261.035156 122.792969 261.035156 L 145.960938 261.035156 C 146.035156 261.046875 146.117188 261.027344 146.195312 260.976562 C 146.214844 260.964844 146.234375 260.949219 146.253906 260.929688 L 158.875 248.308594 L 187.027344 248.308594 C 187.195312 249.300781 188.058594 250.054688 189.097656 250.054688 Z M 134.402344 200.515625 C 135.410156 201.097656 136.6875 200.746094 137.277344 199.746094 C 137.851562 198.734375 137.511719 197.453125 136.503906 196.871094 C 135.605469 196.351562 134.484375 196.574219 133.839844 197.347656 L 132.71875 196.699219 L 132.71875 182.09375 C 133.332031 181.933594 133.789062 181.375 133.789062 180.714844 C 133.789062 179.929688 133.148438 179.289062 132.363281 179.289062 C 131.578125 179.289062 130.9375 179.929688 130.9375 180.714844 C 130.9375 181.378906 131.394531 181.9375 132.007812 182.09375 L 132.007812 196.882812 C 131.996094 196.980469 132.03125 197.085938 132.121094 197.171875 C 132.140625 197.1875 132.160156 197.203125 132.183594 197.21875 L 133.484375 197.964844 C 133.136719 198.90625 133.5 199.992188 134.402344 200.515625 Z M 122.507812 252.015625 C 122.507812 253.175781 123.453125 254.117188 124.609375 254.117188 C 125.769531 254.117188 126.714844 253.175781 126.714844 252.015625 C 126.714844 250.976562 125.957031 250.113281 124.964844 249.941406 L 124.964844 239.542969 L 148.390625 216.117188 C 148.476562 216.03125 148.503906 215.929688 148.496094 215.835938 L 148.496094 206.765625 C 149.105469 206.605469 149.5625 206.046875 149.5625 205.386719 C 149.5625 204.605469 148.921875 203.960938 148.136719 203.960938 C 147.351562 203.960938 146.710938 204.605469 146.710938 205.386719 C 146.710938 206.050781 147.167969 206.609375 147.78125 206.765625 L 147.78125 215.71875 L 124.375 239.125 C 124.332031 239.164062 124.292969 239.21875 124.269531 239.285156 C 124.257812 239.320312 124.25 239.351562 124.25 239.394531 L 124.25 249.9375 C 123.261719 250.113281 122.507812 250.976562 122.507812 252.015625 Z M 111.394531 215.746094 C 111.394531 216.90625 112.339844 217.851562 113.5 217.851562 C 114.65625 217.851562 115.601562 216.90625 115.601562 215.746094 C 115.601562 214.710938 114.847656 213.84375 113.855469 213.671875 L 113.855469 113.511719 C 114.46875 113.351562 114.925781 112.792969 114.925781 112.132812 C 114.925781 111.347656 114.28125 110.707031 113.5 110.707031 C 112.714844 110.707031 112.074219 111.347656 112.074219 112.132812 C 112.074219 112.796875 112.527344 113.355469 113.140625 113.511719 L 113.140625 213.671875 C 112.15625 213.84375 111.394531 214.710938 111.394531 215.746094 Z M 176.394531 258.011719 C 175.238281 258.011719 174.292969 258.957031 174.292969 260.113281 C 174.292969 261.273438 175.238281 262.21875 176.394531 262.21875 C 177.433594 262.21875 178.300781 261.460938 178.472656 260.472656 L 257.445312 260.472656 C 257.605469 261.085938 258.164062 261.539062 258.824219 261.539062 C 259.609375 261.539062 260.25 260.898438 260.25 260.113281 C 260.25 259.332031 259.609375 258.6875 258.824219 258.6875 C 258.164062 258.6875 257.601562 259.144531 257.445312 259.757812 L 178.472656 259.757812 C 178.300781 258.769531 177.4375 258.011719 176.394531 258.011719 Z M 209.847656 233.488281 C 209.261719 232.484375 207.988281 232.136719 206.976562 232.71875 C 206.414062 233.046875 206.058594 233.59375 205.957031 234.183594 L 178.203125 234.183594 C 178.105469 234.171875 178 234.210938 177.914062 234.296875 C 177.898438 234.316406 177.878906 234.335938 177.867188 234.363281 L 174.027344 241.019531 L 156.679688 241.019531 C 156.605469 241.011719 156.523438 241.023438 156.441406 241.074219 C 156.417969 241.089844 156.402344 241.105469 156.382812 241.121094 L 143.707031 253.796875 L 132.660156 253.796875 L 132.660156 243.179688 C 133.648438 243.007812 134.40625 242.144531 134.40625 241.105469 C 134.40625 239.945312 133.460938 239 132.304688 239 C 131.144531 239 130.199219 239.945312 130.199219 241.105469 C 130.199219 242.140625 130.957031 243.007812 131.945312 243.179688 L 131.945312 254.15625 C 131.945312 254.375 132.121094 254.507812 132.304688 254.511719 L 143.851562 254.511719 C 143.96875 254.511719 144.0625 254.460938 144.125 254.390625 L 156.785156 241.730469 L 174.230469 241.730469 C 174.378906 241.730469 174.480469 241.65625 174.539062 241.554688 L 178.382812 234.902344 L 205.953125 234.902344 C 205.992188 235.140625 206.078125 235.375 206.203125 235.597656 C 206.734375 236.496094 207.808594 236.863281 208.753906 236.515625 L 213.902344 245.433594 C 213.96875 245.558594 214.089844 245.613281 214.207031 245.613281 L 233.59375 245.613281 C 233.753906 246.226562 234.3125 246.683594 234.972656 246.683594 C 235.757812 246.683594 236.398438 246.042969 236.398438 245.257812 C 236.398438 244.472656 235.757812 243.832031 234.972656 243.832031 C 234.308594 243.832031 233.75 244.289062 233.59375 244.898438 L 214.414062 244.898438 L 209.367188 236.160156 C 210.144531 235.511719 210.367188 234.394531 209.847656 233.488281 Z M 102.292969 266.558594 C 102.292969 267.71875 103.238281 268.664062 104.398438 268.664062 C 105.554688 268.664062 106.5 267.71875 106.5 266.558594 C 106.5 265.523438 105.746094 264.65625 104.753906 264.484375 L 104.753906 234.421875 L 122.835938 218.882812 C 122.921875 218.804688 122.964844 218.703125 122.960938 218.605469 L 122.960938 176.015625 C 123.371094 175.945312 123.765625 175.75 124.089844 175.433594 C 124.828125 174.679688 124.902344 173.5625 124.316406 172.734375 L 134.925781 162.125 C 135.011719 162.039062 135.039062 161.9375 135.03125 161.84375 L 135.03125 143.5625 C 135.644531 143.402344 136.097656 142.84375 136.097656 142.183594 C 136.097656 141.398438 135.457031 140.757812 134.671875 140.757812 C 133.890625 140.757812 133.246094 141.398438 133.246094 142.183594 C 133.246094 142.847656 133.703125 143.40625 134.316406 143.5625 L 134.316406 161.726562 L 123.8125 172.230469 C 122.984375 171.648438 121.863281 171.726562 121.113281 172.460938 C 120.292969 173.296875 120.292969 174.59375 121.113281 175.4375 C 121.4375 175.753906 121.832031 175.949219 122.242188 176.019531 L 122.242188 218.457031 L 104.183594 233.972656 C 104.125 234.011719 104.082031 234.074219 104.054688 234.15625 C 104.042969 234.191406 104.039062 234.222656 104.039062 234.261719 L 104.039062 264.488281 C 103.050781 264.65625 102.292969 265.523438 102.292969 266.558594 Z M 102.292969 266.558594 " fill-opacity="1" fill-rule="nonzero"/></g></g><path stroke-linecap="butt" transform="matrix(0.533277, -0.527367, 0.527367, 0.533277, 154.121289, 272.330401)" fill="none" stroke-linejoin="miter" d="M 0.00107773 0.502222 L 32.870993 0.499535 " stroke="#82dbff" stroke-width="1" stroke-opacity="1" stroke-miterlimit="4"/><path stroke-linecap="butt" transform="matrix(0.749976, 0.00600579, -0.00600579, 0.749976, 136.577134, 260.528772)" fill="none" stroke-linejoin="miter" d="M 0.000101828 0.498111 L 12.490119 0.502262 " stroke="#82dbff" stroke-width="1" stroke-opacity="1" stroke-miterlimit="4"/><path stroke-linecap="butt" transform="matrix(0.75, 0, 0, 0.75, 131.174264, 254.018069)" fill="none" stroke-linejoin="miter" d="M 0.00202315 0.50195 L 5.07494 0.50195 " stroke="#82dbff" stroke-width="1" stroke-opacity="1" stroke-miterlimit="4"/><path stroke-linecap="butt" transform="matrix(0, -0.75, 0.75, 0, 131.9477, 255.091507)" fill="none" stroke-linejoin="miter" d="M 0.002218 0.502025 L 5.075135 0.502025 " stroke="#82dbff" stroke-width="1" stroke-opacity="1" stroke-miterlimit="4"/><g clip-path="url(#c8d5f30d67)"><path fill="#82dbff" d="M 277.667969 191.285156 C 277.457031 202.855469 274.984375 214.308594 270.484375 224.878906 C 265.980469 235.445312 259.519531 245.171875 251.425781 253.335938 C 243.351562 261.5 233.671875 268.125 223.082031 272.675781 C 217.785156 274.960938 212.257812 276.734375 206.613281 277.945312 C 200.96875 279.183594 195.183594 279.859375 189.375 279.976562 C 183.566406 280.09375 177.734375 279.648438 171.996094 278.648438 C 166.257812 277.667969 160.589844 276.082031 155.105469 273.980469 C 144.167969 269.78125 133.996094 263.390625 125.410156 255.226562 C 121.117188 251.144531 117.222656 246.640625 113.792969 241.765625 L 112.535156 239.921875 L 111.90625 238.992188 C 111.695312 238.6875 111.484375 238.382812 111.296875 238.058594 L 110.132812 236.144531 L 109.546875 235.1875 L 109.269531 234.722656 L 108.988281 234.253906 L 107.914062 232.296875 L 107.378906 231.316406 L 107.121094 230.824219 L 106.890625 230.3125 L 105.910156 228.285156 L 105.417969 227.28125 C 105.351562 227.117188 105.257812 226.953125 105.1875 226.765625 L 104.976562 226.253906 L 104.113281 224.179688 C 103.832031 223.476562 103.507812 222.800781 103.273438 222.101562 L 102.503906 220.003906 C 102.246094 219.300781 101.96875 218.601562 101.78125 217.878906 L 101.128906 215.734375 L 100.800781 214.660156 C 100.753906 214.472656 100.683594 214.308594 100.636719 214.125 L 100.496094 213.585938 L 99.9375 211.394531 L 99.65625 210.296875 L 99.519531 209.761719 L 99.402344 209.203125 C 98.117188 203.347656 97.417969 197.328125 97.324219 191.308594 C 97.117188 179.273438 99.355469 167.144531 103.925781 155.921875 C 108.476562 144.703125 115.308594 134.414062 123.871094 125.832031 C 128.164062 121.539062 132.875 117.691406 137.9375 114.355469 L 139.851562 113.140625 L 140.808594 112.535156 C 141.132812 112.324219 141.4375 112.136719 141.785156 111.949219 L 143.769531 110.832031 L 144.75 110.269531 L 145.238281 109.992188 L 145.753906 109.734375 L 147.78125 108.707031 L 148.808594 108.195312 L 149.320312 107.9375 L 149.835938 107.707031 L 151.910156 106.796875 L 152.960938 106.328125 C 153.125 106.257812 153.308594 106.164062 153.472656 106.097656 L 154.011719 105.886719 L 156.132812 105.070312 C 156.832031 104.8125 157.53125 104.507812 158.253906 104.300781 L 160.402344 103.601562 C 161.125 103.367188 161.824219 103.109375 162.570312 102.945312 L 164.765625 102.363281 L 165.859375 102.058594 C 166.046875 102.011719 166.234375 101.96875 166.398438 101.921875 L 166.957031 101.804688 L 169.171875 101.3125 L 170.269531 101.082031 L 170.828125 100.964844 L 171.390625 100.871094 C 177.335938 99.796875 183.355469 99.308594 189.375 99.425781 C 201.386719 99.65625 213.308594 102.339844 224.203125 107.214844 C 235.070312 112.089844 244.914062 119.089844 252.988281 127.648438 C 257.023438 131.941406 260.636719 136.609375 263.765625 141.554688 C 266.890625 146.5 269.527344 151.746094 271.625 157.183594 C 275.824219 168.097656 277.878906 179.738281 277.667969 191.285156 Z M 276.289062 191.285156 C 276.175781 185.59375 275.519531 179.925781 274.285156 174.398438 C 273.046875 168.871094 271.300781 163.457031 268.988281 158.300781 C 264.417969 147.96875 257.769531 138.660156 249.628906 130.984375 C 241.488281 123.335938 231.898438 117.316406 221.589844 113.421875 C 216.433594 111.460938 211.089844 110.015625 205.703125 109.082031 L 203.671875 108.777344 L 202.648438 108.617188 L 202.132812 108.546875 C 201.972656 108.523438 201.785156 108.5 201.621094 108.5 L 199.566406 108.289062 L 198.542969 108.195312 C 198.191406 108.171875 197.863281 108.125 197.515625 108.101562 C 196.140625 108.03125 194.785156 107.9375 193.410156 107.890625 L 189.304688 107.890625 L 185.269531 108.101562 C 183.914062 108.21875 182.5625 108.359375 181.1875 108.476562 C 180.835938 108.5 180.511719 108.570312 180.183594 108.617188 L 179.179688 108.753906 L 177.152344 109.058594 C 176.988281 109.082031 176.824219 109.105469 176.636719 109.128906 L 176.148438 109.222656 L 175.144531 109.433594 L 173.136719 109.828125 L 172.648438 109.921875 L 172.160156 110.039062 L 171.179688 110.269531 L 169.195312 110.761719 L 168.707031 110.878906 C 168.542969 110.925781 168.378906 110.972656 168.214844 111.019531 L 167.238281 111.320312 L 165.277344 111.90625 C 164.625 112.089844 163.996094 112.347656 163.339844 112.558594 L 161.429688 113.234375 C 160.773438 113.445312 160.167969 113.722656 159.539062 113.980469 L 157.648438 114.75 L 157.183594 114.9375 C 157.019531 115.007812 156.878906 115.078125 156.714844 115.148438 L 155.804688 115.566406 L 153.964844 116.429688 L 153.496094 116.640625 L 153.054688 116.875 L 152.144531 117.339844 L 150.347656 118.273438 L 149.90625 118.507812 L 149.460938 118.761719 L 148.574219 119.277344 L 146.824219 120.300781 C 146.523438 120.464844 146.242188 120.652344 145.960938 120.839844 L 145.121094 121.398438 L 143.417969 122.496094 C 138.941406 125.527344 134.742188 129.003906 130.917969 132.828125 C 123.265625 140.480469 117.105469 149.625 112.859375 159.585938 C 110.738281 164.578125 109.105469 169.753906 107.984375 175.074219 C 106.867188 180.394531 106.257812 185.804688 106.144531 191.261719 C 106.050781 196.722656 106.492188 202.179688 107.425781 207.570312 L 107.496094 208.082031 L 107.589844 208.59375 L 107.800781 209.597656 L 108.21875 211.605469 L 108.3125 212.117188 C 108.359375 212.28125 108.40625 212.445312 108.429688 212.609375 L 108.6875 213.609375 L 109.199219 215.59375 C 109.363281 216.269531 109.59375 216.898438 109.78125 217.554688 L 110.386719 219.511719 C 110.574219 220.164062 110.832031 220.820312 111.066406 221.449219 L 111.765625 223.382812 L 111.953125 223.875 C 112.019531 224.039062 112.089844 224.199219 112.136719 224.339844 L 112.535156 225.296875 L 113.328125 227.1875 L 113.539062 227.652344 L 113.769531 228.121094 L 114.214844 229.054688 L 115.101562 230.917969 L 115.332031 231.386719 L 115.589844 231.828125 L 116.082031 232.738281 L 117.058594 234.558594 C 117.222656 234.863281 117.386719 235.164062 117.574219 235.445312 L 118.109375 236.332031 L 119.183594 238.105469 C 122.121094 242.769531 125.527344 247.179688 129.351562 251.214844 C 136.980469 259.285156 146.265625 265.886719 156.507812 270.457031 C 161.636719 272.746094 167.003906 274.519531 172.507812 275.753906 C 178.015625 276.992188 183.660156 277.667969 189.328125 277.785156 C 194.996094 277.875 200.6875 277.457031 206.285156 276.453125 C 211.882812 275.425781 217.390625 273.863281 222.683594 271.765625 C 233.277344 267.542969 243.050781 261.152344 251.191406 253.101562 C 259.332031 245.054688 265.863281 235.351562 270.15625 224.714844 C 272.300781 219.417969 273.886719 213.890625 274.914062 208.269531 C 275.941406 202.695312 276.382812 196.976562 276.289062 191.285156 Z M 276.289062 191.285156 " fill-opacity="1" fill-rule="nonzero"/></g><g fill="#ffffff" fill-opacity="1"><g transform="translate(128.061577, 112.56352)"><g><path d="M -2.03125 -8.734375 L -8.75 -20.703125 L -6.234375 -22.125 L 0.484375 -10.15625 C 2.578125 -6.414062 5.484375 -5.585938 9.203125 -7.671875 C 12.929688 -9.765625 13.75 -12.679688 11.65625 -16.421875 L 4.9375 -28.390625 L 7.453125 -29.8125 L 14.171875 -17.84375 C 17.035156 -12.738281 15.765625 -8.664062 10.359375 -5.625 C 4.960938 -2.59375 0.832031 -3.628906 -2.03125 -8.734375 Z M -2.03125 -8.734375 "/></g></g></g><g fill="#ffffff" fill-opacity="1"><g transform="translate(147.06349, 102.000493)"><g><path d="M 9.28125 -26.65625 L 10.03125 -24.4375 L -1.078125 -20.734375 L 1.296875 -13.625 L 11.890625 -17.15625 L 12.640625 -14.921875 L 2.046875 -11.390625 L 5.265625 -1.765625 L 2.515625 -0.84375 L -4.578125 -22.03125 Z M 9.28125 -26.65625 "/></g></g></g><g fill="#ffffff" fill-opacity="1"><g transform="translate(162.497846, 96.574392)"><g><path d="M 2.625 -0.390625 L -0.6875 -22.484375 L 8.734375 -23.90625 C 12.941406 -24.53125 15.3125 -23.078125 15.84375 -19.546875 C 16.269531 -16.671875 14.53125 -14.238281 10.625 -12.25 L 19.78125 -2.96875 L 16.015625 -2.390625 L 7.5 -11.28125 L 7.21875 -13.15625 C 11.332031 -14.457031 13.195312 -16.394531 12.8125 -18.96875 C 12.507812 -21.007812 11.1875 -21.851562 8.84375 -21.5 L 2.53125 -20.5625 L 5.484375 -0.828125 Z M 2.625 -0.390625 "/></g></g></g><g fill="#ffffff" fill-opacity="1"><g transform="translate(181.43351, 94.062138)"><g/></g></g><g fill="#ffffff" fill-opacity="1"><g transform="translate(187.678666, 92.934547)"><g><path d="M 2.625 0.390625 L 5.84375 -21.71875 L 9.484375 -21.203125 L 14.90625 -1.578125 L 25.5625 -18.859375 L 29.046875 -18.34375 L 25.828125 3.765625 L 23.265625 3.390625 L 25.90625 -14.75 L 15.421875 2.25 L 13.15625 1.921875 L 7.8125 -17.390625 L 5.171875 0.75 Z M 2.625 0.390625 "/></g></g></g><g fill="#ffffff" fill-opacity="1"><g transform="translate(214.296918, 97.515206)"><g><path d="M 12.671875 -19.359375 L 5.71875 1.875 L 2.96875 0.96875 L 9.921875 -20.265625 Z M 12.671875 -19.359375 "/></g></g></g><g fill="#ffffff" fill-opacity="1"><g transform="translate(221.768542, 98.92877)"><g><path d="M 2.34375 1.25 L 12.828125 -18.484375 L 16.078125 -16.765625 L 14.5625 3.546875 L 30.421875 -9.140625 L 33.53125 -7.5 L 23.046875 12.234375 L 20.765625 11.03125 L 29.359375 -5.15625 L 13.765625 7.296875 L 11.75 6.234375 L 13.21875 -13.734375 L 4.625 2.453125 Z M 2.34375 1.25 "/></g></g></g><g fill="#ffffff" fill-opacity="1"><g transform="translate(172.910148, 295.317343)"><g><path d="M 2.25 -8.375 L 2.25 0 L 1.171875 0 L 1.171875 -8.375 Z M 2.25 -8.375 "/></g></g><g transform="translate(176.337882, 295.317343)"><g><path d="M 1 0 L 1 -8.375 L 2.078125 -8.375 L 7.203125 -1.625 L 7.203125 -8.375 L 8.234375 -8.375 L 8.234375 0 L 7.15625 0 L 2.015625 -6.8125 L 2.015625 0 Z M 1 0 "/></g></g><g transform="translate(185.566398, 295.317343)"><g><path d="M 6.46875 -8.375 L 6.46875 -7.5 L 2.078125 -7.5 L 2.078125 -4.6875 L 6.265625 -4.6875 L 6.265625 -3.8125 L 2.078125 -3.8125 L 2.078125 0 L 1 0 L 1 -8.375 Z M 6.46875 -8.375 "/></g></g><g transform="translate(192.333975, 295.317343)"><g><path d="M 1.84375 -4.21875 C 1.84375 -1.957031 2.863281 -0.828125 4.90625 -0.828125 C 6.90625 -0.828125 7.90625 -1.957031 7.90625 -4.21875 C 7.90625 -6.445312 6.90625 -7.5625 4.90625 -7.5625 C 2.863281 -7.5625 1.84375 -6.445312 1.84375 -4.21875 Z M 0.703125 -4.171875 C 0.703125 -7.015625 2.101562 -8.4375 4.90625 -8.4375 C 7.664062 -8.4375 9.046875 -7.015625 9.046875 -4.171875 C 9.046875 -1.347656 7.664062 0.0625 4.90625 0.0625 C 2.101562 0.0625 0.703125 -1.347656 0.703125 -4.171875 Z M 0.703125 -4.171875 "/></g></g></g><g clip-path="url(#2a58080bd0)"><path fill="#ffffff" d="M 258.105469 237.933594 L 267.925781 261.007812 L 258.660156 264.949219 L 248.84375 241.875 L 238.070312 256.152344 L 237.992188 203.515625 L 275.863281 240.070312 Z M 258.105469 237.933594 " fill-opacity="1" fill-rule="nonzero"/></g><g clip-path="url(#8f885ddc55)"><path fill="#82dbff" d="M 276.449219 239.464844 L 238.578125 202.910156 C 238.335938 202.671875 237.972656 202.609375 237.664062 202.738281 C 237.351562 202.871094 237.148438 203.179688 237.152344 203.515625 L 237.226562 256.152344 C 237.226562 256.515625 237.460938 256.835938 237.804688 256.949219 C 238.148438 257.066406 238.523438 256.945312 238.742188 256.660156 L 248.636719 243.542969 L 257.882812 265.277344 C 258.023438 265.601562 258.339844 265.792969 258.667969 265.789062 C 258.777344 265.789062 258.886719 265.769531 258.988281 265.722656 L 268.253906 261.78125 C 268.460938 261.695312 268.621094 261.527344 268.707031 261.320312 C 268.789062 261.113281 268.789062 260.882812 268.699219 260.675781 L 259.453125 238.945312 L 275.765625 240.910156 C 276.125 240.957031 276.46875 240.761719 276.625 240.433594 C 276.78125 240.105469 276.710938 239.714844 276.449219 239.464844 Z M 258.207031 237.09375 C 257.90625 237.054688 257.613281 237.183594 257.433594 237.425781 C 257.253906 237.667969 257.214844 237.984375 257.332031 238.261719 L 266.820312 260.558594 L 259.105469 263.84375 L 249.617188 241.542969 C 249.5 241.265625 249.246094 241.074219 248.945312 241.035156 C 248.90625 241.03125 248.871094 241.03125 248.832031 241.03125 C 248.574219 241.035156 248.328125 241.15625 248.171875 241.367188 L 238.910156 253.640625 L 238.839844 205.503906 L 273.472656 238.933594 Z M 258.207031 237.09375 " fill-opacity="1" fill-rule="nonzero"/></g><g clip-path="url(#e7f2eb2d6d)"><path fill="#82dbff" d="M 214.773438 145.128906 L 173.820312 145.128906 C 169.742188 145.128906 166.421875 148.449219 166.421875 152.53125 L 166.421875 199.632812 C 166.421875 199.632812 166.421875 199.636719 166.421875 199.636719 C 166.421875 203.714844 169.742188 207.035156 173.820312 207.035156 L 214.773438 207.035156 C 215.601562 207.035156 216.273438 206.363281 216.273438 205.535156 L 216.273438 146.628906 C 216.273438 145.800781 215.601562 145.128906 214.773438 145.128906 Z M 173.820312 148.128906 L 213.273438 148.128906 L 213.273438 192.234375 L 173.820312 192.234375 C 172.171875 192.234375 170.652344 192.78125 169.417969 193.699219 L 169.417969 152.53125 C 169.417969 150.101562 171.394531 148.128906 173.820312 148.128906 Z M 213.273438 204.035156 L 173.820312 204.035156 C 171.394531 204.035156 169.417969 202.0625 169.417969 199.632812 C 169.417969 197.207031 171.394531 195.230469 173.820312 195.230469 L 213.273438 195.230469 Z M 213.273438 204.035156 " fill-opacity="1" fill-rule="nonzero"/></g><path fill="#ffffff" d="M 181.976562 176.726562 C 182.269531 177.023438 182.652344 177.167969 183.035156 177.167969 C 183.417969 177.167969 183.800781 177.023438 184.09375 176.726562 C 184.679688 176.144531 184.679688 175.195312 184.09375 174.609375 L 179.664062 170.175781 L 184.09375 165.746094 C 184.679688 165.160156 184.679688 164.210938 184.09375 163.625 C 183.511719 163.039062 182.558594 163.039062 181.976562 163.625 L 176.484375 169.117188 C 176.203125 169.398438 176.042969 169.78125 176.042969 170.179688 C 176.042969 170.574219 176.203125 170.957031 176.484375 171.238281 Z M 181.976562 176.726562 " fill-opacity="1" fill-rule="nonzero"/><path fill="#ffffff" d="M 198.597656 176.726562 C 198.890625 177.023438 199.273438 177.167969 199.660156 177.167969 C 200.042969 177.167969 200.425781 177.023438 200.71875 176.726562 L 206.210938 171.238281 C 206.796875 170.652344 206.796875 169.703125 206.210938 169.117188 L 200.71875 163.625 C 200.132812 163.039062 199.183594 163.039062 198.597656 163.625 C 198.011719 164.210938 198.011719 165.160156 198.597656 165.746094 L 203.03125 170.175781 L 198.597656 174.609375 C 198.011719 175.195312 198.011719 176.144531 198.597656 176.726562 Z M 198.597656 176.726562 " fill-opacity="1" fill-rule="nonzero"/><path fill="#ffffff" d="M 185.761719 183.324219 C 185.949219 183.40625 186.152344 183.445312 186.34375 183.445312 C 186.929688 183.445312 187.484375 183.101562 187.726562 182.53125 L 197.726562 158.996094 C 198.050781 158.234375 197.695312 157.351562 196.933594 157.03125 C 196.171875 156.707031 195.289062 157.0625 194.96875 157.824219 L 184.964844 181.359375 C 184.644531 182.121094 184.996094 183 185.761719 183.324219 Z M 185.761719 183.324219 " fill-opacity="1" fill-rule="nonzero"/><g clip-path="url(#ae0542ee66)"><g clip-path="url(#7cd40da86f)"><path stroke-linecap="butt" transform="matrix(0.75, 0, 0, 0.75, 157.245697, 146.477921)" fill="none" stroke-linejoin="miter" d="M 4.000529 -0.00181104 L 88.495332 -0.00181104 C 90.703665 -0.00181104 92.490124 1.789856 92.490124 3.998189 L 92.490124 63.560697 C 92.490124 65.774239 90.703665 67.560698 88.495332 67.560698 L 4.000529 67.560698 C 1.792195 67.560698 0.000528501 65.774239 0.000528501 63.560697 L 0.000528501 3.998189 C 0.000528501 1.789856 1.792195 -0.00181104 4.000529 -0.00181104 Z M 4.000529 -0.00181104 " stroke="#ffffff" stroke-width="10" stroke-opacity="1" stroke-miterlimit="4"/></g></g><g clip-path="url(#215d7e198b)"><g transform="matrix(1, 0, 0, 1, 173, 196)"><g clip-path="url(#38bbbcd515)"><g clip-path="url(#b7e055852a)"><path fill="#ffffff" d="M 0.988281 0.339844 L 10.34375 0.339844 L 10.34375 5.269531 L 0.988281 5.269531 Z M 0.988281 0.339844 " fill-opacity="1" fill-rule="nonzero"/></g></g></g></g><g clip-path="url(#7603bf7809)"><g clip-path="url(#8734e4703d)"><path stroke-linecap="butt" transform="matrix(0.75, 0, 0, 0.75, 163.52702, 152.13749)" fill="none" stroke-linejoin="miter" d="M 4.000432 -0.00102835 L 70.797311 -0.00102835 C 73.005645 -0.00102835 74.797311 1.790638 74.797311 3.998972 L 74.797311 46.592725 C 74.797311 48.801058 73.005645 50.592725 70.797311 50.592725 L 4.000432 50.592725 C 1.792098 50.592725 0.000431451 48.801058 0.000431451 46.592725 L 0.000431451 3.998972 C 0.000431451 1.790638 1.792098 -0.00102835 4.000432 -0.00102835 Z M 4.000432 -0.00102835 " stroke="#ffffff" stroke-width="2" stroke-opacity="1" stroke-miterlimit="4"/></g></g><path stroke-linecap="butt" transform="matrix(0.75, 0, 0, 0.75, 173.414919, 196.259313)" fill="none" stroke-linejoin="miter" d="M 0.998858 -0.00200028 L 0.998858 3.774042 C 0.998858 5.857375 2.686359 7.544875 4.7749 7.544875 L 43.582195 7.544875 C 44.530111 7.544875 45.436361 7.169875 46.108236 6.498 C 46.774903 5.826125 47.155111 4.919875 47.155111 3.971958 L 47.155111 0.399041 " stroke="#ffffff" stroke-width="2" stroke-opacity="1" stroke-miterlimit="4"/><g clip-path="url(#e274d84f6c)"><g transform="matrix(1, 0, 0, 1, 199, 196)"><g clip-path="url(#e413267009)"><g clip-path="url(#da2bd2e700)"><path fill="#ffffff" d="M 0.9375 0.0429688 L 9.851562 0.0429688 L 9.851562 4.96875 L 0.9375 4.96875 Z M 0.9375 0.0429688 " fill-opacity="1" fill-rule="nonzero"/></g></g></g></g><g clip-path="url(#2a6b1ddb9a)"><g clip-path="url(#97ae6157a8)"><g transform="matrix(1, 0, 0, 1, 178, 197)"><g clip-path="url(#8f26d67e18)"><g clip-path="url(#3362ff5c0e)"><g clip-path="url(#f47d1d8dd0)"><path fill="#ffffff" d="M 0.367188 0.757812 L 8.34375 0.757812 L 8.34375 5.304688 L 0.367188 5.304688 Z M 0.367188 0.757812 " fill-opacity="1" fill-rule="nonzero"/></g></g></g></g></g></g><g clip-path="url(#0c4b8c791b)"><g clip-path="url(#70769446da)"><g transform="matrix(1, 0, 0, 1, 196, 198)"><g clip-path="url(#5d4a610c67)"><g clip-path="url(#9cd009f321)"><g clip-path="url(#bb20e52066)"><path fill="#ffffff" d="M 0.519531 0.0585938 L 8.492188 0.0585938 L 8.492188 4.605469 L 0.519531 4.605469 Z M 0.519531 0.0585938 " fill-opacity="1" fill-rule="nonzero"/></g></g></g></g></g></g><path stroke-linecap="butt" transform="matrix(0.749989, 0.00414358, -0.00414358, 0.749989, 181.052059, 199.57503)" fill="none" stroke-linejoin="miter" d="M 0.00105276 0.49892 L 36.199542 0.502057 " stroke="#ffffff" stroke-width="1" stroke-opacity="1" stroke-miterlimit="4"/><g clip-path="url(#b7c36ef837)"><g transform="matrix(1, 0, 0, 1, 185, 193)"><g clip-path="url(#34cf4dae00)"><g clip-path="url(#2e9fe82e5f)"><path fill="#ffffff" d="M 0.0898438 0.191406 L 13.5 0.191406 L 13.5 5.269531 L 0.0898438 5.269531 Z M 0.0898438 0.191406 " fill-opacity="1" fill-rule="nonzero"/></g></g></g></g><path stroke-linecap="butt" transform="matrix(0.75, 0, 0, 0.75, 161.249994, 189.824988)" fill="none" stroke-linejoin="miter" d="M 0.00000811833 3.498975 L 82.598972 3.498975 " stroke="#ffffff" stroke-width="7" stroke-opacity="1" stroke-miterlimit="4"/><path stroke-linecap="butt" transform="matrix(-0.0049341, -0.749984, 0.749984, -0.0049341, 219.421089, 194.493518)" fill="none" stroke-linejoin="miter" d="M -0.000426356 3.501121 L 60.802985 3.500093 " stroke="#ffffff" stroke-width="7" stroke-opacity="1" stroke-miterlimit="4"/><path stroke-linecap="butt" transform="matrix(0.75, 0, 0, 0.75, 160.799994, 147.52499)" fill="none" stroke-linejoin="miter" d="M 0.00104975 3.49793 L 82.600014 3.49793 " stroke="#ffffff" stroke-width="7" stroke-opacity="1" stroke-miterlimit="4"/><path stroke-linecap="butt" transform="matrix(-0.0049341, -0.749984, 0.749984, -0.0049341, 158.773369, 193.89567)" fill="none" stroke-linejoin="miter" d="M -0.000674605 3.500163 L 60.802737 3.499135 " stroke="#ffffff" stroke-width="7" stroke-opacity="1" stroke-miterlimit="4"/><path stroke-linecap="butt" transform="matrix(0.75, 0.000000000000001122, -0.000000000000001122, 0.75, 179.174993, 200.025001)" fill="none" stroke-linejoin="miter" d="M 0.00105135 1.497915 L 38.001054 1.497915 " stroke="#ffffff" stroke-width="3" stroke-opacity="1" stroke-miterlimit="4"/><path stroke-linecap="butt" transform="matrix(0.447018, 0.602225, -0.602225, 0.447018, 163.265384, 186.858461)" fill="none" stroke-linejoin="miter" d="M 0.0027523 1.999444 L 8.21953 2.001396 " stroke="#ffffff" stroke-width="4" stroke-opacity="1" stroke-miterlimit="4"/><path stroke-linecap="butt" transform="matrix(0.447018, 0.602225, -0.602225, 0.447018, 218.908159, 148.656641)" fill="none" stroke-linejoin="miter" d="M -0.000353376 2.000709 L 8.219529 1.998478 " stroke="#ffffff" stroke-width="4" stroke-opacity="1" stroke-miterlimit="4"/><path stroke-linecap="butt" transform="matrix(0.541929, -0.518472, 0.518472, 0.541929, 216.420033, 191.056027)" fill="none" stroke-linejoin="miter" d="M -0.000631089 2.000763 L 8.217785 1.999471 " stroke="#ffffff" stroke-width="4" stroke-opacity="1" stroke-miterlimit="4"/><path stroke-linecap="butt" transform="matrix(0.512925, -0.547182, 0.547182, 0.512925, 160.225496, 153.643716)" fill="none" stroke-linejoin="miter" d="M 0.00196536 1.998984 L 8.218996 1.999212 " stroke="#ffffff" stroke-width="4" stroke-opacity="1" stroke-miterlimit="4"/><path stroke-linecap="round" transform="matrix(0.75, -0.000000000000000465, 0.000000000000000465, 0.75, 156.192767, 219.89773)" fill="none" stroke-linejoin="miter" d="M 1.998186 2.000944 L 93.310692 2.000944 " stroke="#ffffff" stroke-width="4" stroke-opacity="1" stroke-miterlimit="4"/><path stroke-linecap="round" transform="matrix(0.75, -0.000000000000000558, 0.000000000000000558, 0.75, 161.142767, 207.672745)" fill="none" stroke-linejoin="miter" d="M 1.502353 1.49884 L 79.408608 1.49884 " stroke="#ffffff" stroke-width="3" stroke-opacity="1" stroke-miterlimit="4"/><path stroke-linecap="round" transform="matrix(-0.296367, -0.68896, 0.68896, -0.296367, 224.698833, 223.533427)" fill="none" stroke-linejoin="miter" d="M 2.500081 2.499122 L 19.3846 2.499278 " stroke="#ffffff" stroke-width="5" stroke-opacity="1" stroke-miterlimit="4"/><path stroke-linecap="round" transform="matrix(-0.278231, 0.696482, -0.696482, -0.278231, 165.220863, 208.36323)" fill="none" stroke-linejoin="miter" d="M 2.501076 2.498025 L 19.091797 2.499655 " stroke="#ffffff" stroke-width="5" stroke-opacity="1" stroke-miterlimit="4"/><g clip-path="url(#b32487f5ac)"><g clip-path="url(#68795656a9)"><g clip-path="url(#a76c60ae71)"><g transform="matrix(1, 0, 0, 1, 163, 210)"><g clip-path="url(#983ffa1a02)"><g clip-path="url(#4b57d30f1b)"><g clip-path="url(#e9b1ed1006)"><g clip-path="url(#8caa0ff5e3)"><path fill="#ffffff" d="M 0.152344 1.234375 L 4.074219 0.273438 L 4.914062 3.703125 L 0.992188 4.664062 Z M 0.152344 1.234375 " fill-opacity="1" fill-rule="nonzero"/></g></g></g></g></g></g></g></g><g clip-path="url(#8473b8ba9d)"><g clip-path="url(#38ccfaed86)"><g clip-path="url(#cfeb77f7bb)"><g transform="matrix(1, 0, 0, 1, 165, 210)"><g clip-path="url(#6be5261946)"><g clip-path="url(#52e1e6c0ea)"><g clip-path="url(#c3d443eabd)"><g clip-path="url(#b42545e0bb)"><path fill="#ffffff" d="M 1.710938 -0.621094 L 4.699219 2.570312 L 3.007812 4.15625 L 0.015625 0.96875 Z M 1.710938 -0.621094 " fill-opacity="1" fill-rule="nonzero"/></g></g></g></g></g></g></g></g><g clip-path="url(#08ff418e76)"><g clip-path="url(#ef914c3349)"><g clip-path="url(#7f51c71b6b)"><g transform="matrix(1, 0, 0, 1, 164, 210)"><g clip-path="url(#6f60e3ef65)"><g clip-path="url(#44b376e2f5)"><g clip-path="url(#e24270ff96)"><g clip-path="url(#d57e5a9fa8)"><path fill="#ffffff" d="M 6.074219 2.988281 L 2.191406 6.582031 L 0.28125 4.519531 L 4.167969 0.925781 Z M 6.074219 2.988281 " fill-opacity="1" fill-rule="nonzero"/></g></g></g></g></g></g></g></g><g transform="matrix(1, 0, 0, 1, 161, 214)"><g clip-path="url(#47dca2cfc1)"><g clip-path="url(#68c3feedf7)"><g clip-path="url(#85f9e4937e)"><g clip-path="url(#823e8600ee)"><g transform="matrix(1, 0, 0, 1, 1, 1)"><g clip-path="url(#b4d90c2675)"><g clip-path="url(#3d7c87b000)"><g clip-path="url(#b0e5f09f5c)"><g clip-path="url(#7875f19ef8)"><path fill="#ffffff" d="M -0.046875 1.25 L 3.375 0.410156 L 4.105469 3.402344 L 0.683594 4.238281 Z M -0.046875 1.25 " fill-opacity="1" fill-rule="nonzero"/></g></g></g></g></g></g></g></g><g clip-path="url(#4358f04e40)"><g clip-path="url(#22bc06db5d)"><g clip-path="url(#043708ccf7)"><g transform="matrix(1, 0, 0, 1, 2, 2)"><g clip-path="url(#1d7ab46173)"><g clip-path="url(#69db5a4c47)"><g clip-path="url(#5ba7cf966d)"><g clip-path="url(#3be1fd1385)"><path fill="#ffffff" d="M 2.054688 -1.371094 L 4.664062 1.410156 L 3.1875 2.796875 L 0.578125 0.015625 Z M 2.054688 -1.371094 " fill-opacity="1" fill-rule="nonzero"/></g></g></g></g></g></g></g></g><g clip-path="url(#41773da441)"><g clip-path="url(#26fa12f3de)"><g clip-path="url(#dfd977ea38)"><g transform="matrix(1, 0, 0, 1, 1, 1)"><g clip-path="url(#b6e1625c79)"><g clip-path="url(#266b10ac54)"><g clip-path="url(#b535fb8fe8)"><g clip-path="url(#37e88d8a9b)"><path fill="#ffffff" d="M 5.992188 2.777344 L 2.601562 5.914062 L 0.9375 4.113281 L 4.328125 0.980469 Z M 5.992188 2.777344 " fill-opacity="1" fill-rule="nonzero"/></g></g></g></g></g></g></g></g></g></g><path stroke-linecap="butt" transform="matrix(0.000000001309, 0.75, -0.75, 0.000000001309, 168.296477, 216.003516)" fill="none" stroke-linejoin="miter" d="M 0.000520042 1.99947 L 4.401562 1.99947 " stroke="#ffffff" stroke-width="4" stroke-opacity="1" stroke-miterlimit="4"/><path stroke-linecap="butt" transform="matrix(0.000000001309, 0.75, -0.75, 0.000000001309, 173.321477, 211.053502)" fill="none" stroke-linejoin="miter" d="M 0.00158047 2.501553 L 4.397414 2.501553 " stroke="#ffffff" stroke-width="5" stroke-opacity="1" stroke-miterlimit="4"/><path stroke-linecap="butt" transform="matrix(0.000000001309, 0.75, -0.75, 0.000000001309, 178.664714, 211.053502)" fill="none" stroke-linejoin="miter" d="M 0.00158047 2.500869 L 4.397414 2.500869 " stroke="#ffffff" stroke-width="5" stroke-opacity="1" stroke-miterlimit="4"/><path stroke-linecap="butt" transform="matrix(0.000000001309, 0.75, -0.75, 0.000000001309, 183.914714, 211.053502)" fill="none" stroke-linejoin="miter" d="M 0.00158047 2.500869 L 4.397414 2.500869 " stroke="#ffffff" stroke-width="5" stroke-opacity="1" stroke-miterlimit="4"/><path stroke-linecap="butt" transform="matrix(0.000000001309, 0.75, -0.75, 0.000000001309, 188.834435, 211.053502)" fill="none" stroke-linejoin="miter" d="M 0.00158047 2.497997 L 4.397414 2.497997 " stroke="#ffffff" stroke-width="5" stroke-opacity="1" stroke-miterlimit="4"/><path stroke-linecap="butt" transform="matrix(0.000000001309, 0.75, -0.75, 0.000000001309, 193.805368, 211.053502)" fill="none" stroke-linejoin="miter" d="M 0.00158047 2.500907 L 4.397414 2.500907 " stroke="#ffffff" stroke-width="5" stroke-opacity="1" stroke-miterlimit="4"/><path stroke-linecap="butt" transform="matrix(0.000000001309, 0.75, -0.75, 0.000000001309, 199.055367, 211.053502)" fill="none" stroke-linejoin="miter" d="M 0.00158047 2.500907 L 4.397414 2.500907 " stroke="#ffffff" stroke-width="5" stroke-opacity="1" stroke-miterlimit="4"/><path stroke-linecap="butt" transform="matrix(0.000000001309, 0.75, -0.75, 0.000000001309, 203.961306, 211.053502)" fill="none" stroke-linejoin="miter" d="M 0.00158047 2.500491 L 4.397414 2.500491 " stroke="#ffffff" stroke-width="5" stroke-opacity="1" stroke-miterlimit="4"/><path stroke-linecap="butt" transform="matrix(0.000000001309, 0.75, -0.75, 0.000000001309, 208.844962, 211.053502)" fill="none" stroke-linejoin="miter" d="M 0.00158047 2.501616 L 4.397414 2.501616 " stroke="#ffffff" stroke-width="5" stroke-opacity="1" stroke-miterlimit="4"/><path stroke-linecap="butt" transform="matrix(0.000000001309, 0.75, -0.75, 0.000000001309, 214.094962, 211.053502)" fill="none" stroke-linejoin="miter" d="M 0.00158047 2.501616 L 4.397414 2.501616 " stroke="#ffffff" stroke-width="5" stroke-opacity="1" stroke-miterlimit="4"/><path stroke-linecap="butt" transform="matrix(0.000000001309, 0.75, -0.75, 0.000000001309, 173.476546, 216.003516)" fill="none" stroke-linejoin="miter" d="M 0.000520041 2.499978 L 4.401562 2.499978 " stroke="#ffffff" stroke-width="5" stroke-opacity="1" stroke-miterlimit="4"/><path stroke-linecap="butt" transform="matrix(0.000000001309, 0.75, -0.75, 0.000000001309, 209.10954, 216.003516)" fill="none" stroke-linejoin="miter" d="M 0.000520041 2.500221 L 4.401562 2.500221 " stroke="#ffffff" stroke-width="5" stroke-opacity="1" stroke-miterlimit="4"/><path stroke-linecap="butt" transform="matrix(0, 0.75, -0.75, 0, 214.094962, 216.003516)" fill="none" stroke-linejoin="miter" d="M 0.000520046 2.501616 L 4.401562 2.501616 " stroke="#ffffff" stroke-width="5" stroke-opacity="1" stroke-miterlimit="4"/><path stroke-linecap="butt" transform="matrix(-0.75, 0, 0, -0.75, 204.535229, 219.124162)" fill="none" stroke-linejoin="miter" d="M 0.0000976251 1.998882 L 40.104267 1.998882 " stroke="#ffffff" stroke-width="4" stroke-opacity="1" stroke-miterlimit="4"/><path stroke-linecap="butt" transform="matrix(-0.75, 0.000000001309, -0.000000001309, -0.75, 219.865274, 219.15)" fill="none" stroke-linejoin="miter" d="M -0.00255125 2.002083 L 5.627657 2.002083 " stroke="#ffffff" stroke-width="4" stroke-opacity="1" stroke-miterlimit="4"/><path stroke-linecap="butt" transform="matrix(-0.75, 0.000000001309, -0.000000001309, -0.75, 218.212929, 214.049986)" fill="none" stroke-linejoin="miter" d="M -0.00255251 1.99894 L 3.429739 1.99894 " stroke="#ffffff" stroke-width="4" stroke-opacity="1" stroke-miterlimit="4"/><path stroke-linecap="butt" transform="matrix(0.75, 0, 0, 0.75, 215.69999, 216.974971)" fill="none" stroke-linejoin="miter" d="M -0.00102878 1.502122 L 6.019805 1.502122 " stroke="#ffffff" stroke-width="3" stroke-opacity="1" stroke-miterlimit="4"/><path stroke-linecap="butt" transform="matrix(0.75, 0, 0, 0.75, 215.69999, 212.174986)" fill="none" stroke-linejoin="miter" d="M -0.00102878 1.50106 L 4.019805 1.50106 " stroke="#ffffff" stroke-width="3" stroke-opacity="1" stroke-miterlimit="4"/><path stroke-linecap="butt" transform="matrix(0.278717, 0.696288, -0.696288, 0.278717, 218.313228, 211.247331)" fill="none" stroke-linejoin="miter" d="M -0.0000827918 0.500312 L 4.218683 0.5004 " stroke="#ffffff" stroke-width="1" stroke-opacity="1" stroke-miterlimit="4"/><path stroke-linecap="butt" transform="matrix(0.305394, 0.685007, -0.685007, 0.305394, 219.959829, 216.330792)" fill="none" stroke-linejoin="miter" d="M 0.00100342 0.500649 L 3.850332 0.500331 " stroke="#ffffff" stroke-width="1" stroke-opacity="1" stroke-miterlimit="4"/><path stroke-linecap="butt" transform="matrix(0.748017, 0.0545089, -0.0545089, 0.748017, 217.849077, 218.378863)" fill="none" stroke-linejoin="miter" d="M -0.00190833 0.501522 L 3.570097 0.502333 " stroke="#ffffff" stroke-width="1" stroke-opacity="1" stroke-miterlimit="4"/><g clip-path="url(#1f4a612d38)"><path fill="#82dbff" d="M 277.667969 191.285156 C 277.457031 202.855469 274.984375 214.308594 270.484375 224.878906 C 265.980469 235.445312 259.519531 245.171875 251.425781 253.335938 C 243.351562 261.5 233.671875 268.125 223.082031 272.675781 C 217.785156 274.960938 212.257812 276.734375 206.613281 277.945312 C 200.96875 279.183594 195.183594 279.859375 189.375 279.976562 C 183.566406 280.09375 177.734375 279.648438 171.996094 278.648438 C 166.257812 277.667969 160.589844 276.082031 155.105469 273.980469 C 144.167969 269.78125 133.996094 263.390625 125.410156 255.226562 C 121.117188 251.144531 117.222656 246.640625 113.792969 241.765625 L 112.535156 239.921875 L 111.90625 238.992188 C 111.695312 238.6875 111.484375 238.382812 111.296875 238.058594 L 110.132812 236.144531 L 109.546875 235.1875 L 109.269531 234.722656 L 108.988281 234.253906 L 107.914062 232.296875 L 107.378906 231.316406 L 107.121094 230.824219 L 106.890625 230.3125 L 105.910156 228.285156 L 105.417969 227.28125 C 105.351562 227.117188 105.257812 226.953125 105.1875 226.765625 L 104.976562 226.253906 L 104.113281 224.179688 C 103.832031 223.476562 103.507812 222.800781 103.273438 222.101562 L 102.503906 220.003906 C 102.246094 219.300781 101.96875 218.601562 101.78125 217.878906 L 101.128906 215.734375 L 100.800781 214.660156 C 100.753906 214.472656 100.683594 214.308594 100.636719 214.125 L 100.496094 213.585938 L 99.9375 211.394531 L 99.65625 210.296875 L 99.519531 209.761719 L 99.402344 209.203125 C 98.117188 203.347656 97.417969 197.328125 97.324219 191.308594 C 97.117188 179.273438 99.355469 167.144531 103.925781 155.921875 C 108.476562 144.703125 115.308594 134.414062 123.871094 125.832031 C 128.164062 121.539062 132.875 117.691406 137.9375 114.355469 L 139.851562 113.140625 L 140.808594 112.535156 C 141.132812 112.324219 141.4375 112.136719 141.785156 111.949219 L 143.769531 110.832031 L 144.75 110.269531 L 145.238281 109.992188 L 145.753906 109.734375 L 147.78125 108.707031 L 148.808594 108.195312 L 149.320312 107.9375 L 149.835938 107.707031 L 151.910156 106.796875 L 152.960938 106.328125 C 153.125 106.257812 153.308594 106.164062 153.472656 106.097656 L 154.011719 105.886719 L 156.132812 105.070312 C 156.832031 104.8125 157.53125 104.507812 158.253906 104.300781 L 160.402344 103.601562 C 161.125 103.367188 161.824219 103.109375 162.570312 102.945312 L 164.765625 102.363281 L 165.859375 102.058594 C 166.046875 102.011719 166.234375 101.96875 166.398438 101.921875 L 166.957031 101.804688 L 169.171875 101.3125 L 170.269531 101.082031 L 170.828125 100.964844 L 171.390625 100.871094 C 177.335938 99.796875 183.355469 99.308594 189.375 99.425781 C 201.386719 99.65625 213.308594 102.339844 224.203125 107.214844 C 235.070312 112.089844 244.914062 119.089844 252.988281 127.648438 C 257.023438 131.941406 260.636719 136.609375 263.765625 141.554688 C 266.890625 146.5 269.527344 151.746094 271.625 157.183594 C 275.824219 168.097656 277.878906 179.738281 277.667969 191.285156 Z M 276.289062 191.285156 C 276.175781 185.59375 275.519531 179.925781 274.285156 174.398438 C 273.046875 168.871094 271.300781 163.457031 268.988281 158.300781 C 264.417969 147.96875 257.769531 138.660156 249.628906 130.984375 C 241.488281 123.335938 231.898438 117.316406 221.589844 113.421875 C 216.433594 111.460938 211.089844 110.015625 205.703125 109.082031 L 203.671875 108.777344 L 202.648438 108.617188 L 202.132812 108.546875 C 201.972656 108.523438 201.785156 108.5 201.621094 108.5 L 199.566406 108.289062 L 198.542969 108.195312 C 198.191406 108.171875 197.863281 108.125 197.515625 108.101562 C 196.140625 108.03125 194.785156 107.9375 193.410156 107.890625 L 189.304688 107.890625 L 185.269531 108.101562 C 183.914062 108.21875 182.5625 108.359375 181.1875 108.476562 C 180.835938 108.5 180.511719 108.570312 180.183594 108.617188 L 179.179688 108.753906 L 177.152344 109.058594 C 176.988281 109.082031 176.824219 109.105469 176.636719 109.128906 L 176.148438 109.222656 L 175.144531 109.433594 L 173.136719 109.828125 L 172.648438 109.921875 L 172.160156 110.039062 L 171.179688 110.269531 L 169.195312 110.761719 L 168.707031 110.878906 C 168.542969 110.925781 168.378906 110.972656 168.214844 111.019531 L 167.238281 111.320312 L 165.277344 111.90625 C 164.625 112.089844 163.996094 112.347656 163.339844 112.558594 L 161.429688 113.234375 C 160.773438 113.445312 160.167969 113.722656 159.539062 113.980469 L 157.648438 114.75 L 157.183594 114.9375 C 157.019531 115.007812 156.878906 115.078125 156.714844 115.148438 L 155.804688 115.566406 L 153.964844 116.429688 L 153.496094 116.640625 L 153.054688 116.875 L 152.144531 117.339844 L 150.347656 118.273438 L 149.90625 118.507812 L 149.460938 118.761719 L 148.574219 119.277344 L 146.824219 120.300781 C 146.523438 120.464844 146.242188 120.652344 145.960938 120.839844 L 145.121094 121.398438 L 143.417969 122.496094 C 138.941406 125.527344 134.742188 129.003906 130.917969 132.828125 C 123.265625 140.480469 117.105469 149.625 112.859375 159.585938 C 110.738281 164.578125 109.105469 169.753906 107.984375 175.074219 C 106.867188 180.394531 106.257812 185.804688 106.144531 191.261719 C 106.050781 196.722656 106.492188 202.179688 107.425781 207.570312 L 107.496094 208.082031 L 107.589844 208.59375 L 107.800781 209.597656 L 108.21875 211.605469 L 108.3125 212.117188 C 108.359375 212.28125 108.40625 212.445312 108.429688 212.609375 L 108.6875 213.609375 L 109.199219 215.59375 C 109.363281 216.269531 109.59375 216.898438 109.78125 217.554688 L 110.386719 219.511719 C 110.574219 220.164062 110.832031 220.820312 111.066406 221.449219 L 111.765625 223.382812 L 111.953125 223.875 C 112.019531 224.039062 112.089844 224.199219 112.136719 224.339844 L 112.535156 225.296875 L 113.328125 227.1875 L 113.539062 227.652344 L 113.769531 228.121094 L 114.214844 229.054688 L 115.101562 230.917969 L 115.332031 231.386719 L 115.589844 231.828125 L 116.082031 232.738281 L 117.058594 234.558594 C 117.222656 234.863281 117.386719 235.164062 117.574219 235.445312 L 118.109375 236.332031 L 119.183594 238.105469 C 122.121094 242.769531 125.527344 247.179688 129.351562 251.214844 C 136.980469 259.285156 146.265625 265.886719 156.507812 270.457031 C 161.636719 272.746094 167.003906 274.519531 172.507812 275.753906 C 178.015625 276.992188 183.660156 277.667969 189.328125 277.785156 C 194.996094 277.875 200.6875 277.457031 206.285156 276.453125 C 211.882812 275.425781 217.390625 273.863281 222.683594 271.765625 C 233.277344 267.542969 243.050781 261.152344 251.191406 253.101562 C 259.332031 245.054688 265.863281 235.351562 270.15625 224.714844 C 272.300781 219.417969 273.886719 213.890625 274.914062 208.269531 C 275.941406 202.695312 276.382812 196.976562 276.289062 191.285156 Z M 276.289062 191.285156 " fill-opacity="1" fill-rule="nonzero"/></g><g clip-path="url(#1b2c690e33)"><path fill="#ffffff" d="M 269.828125 252.777344 C 256.578125 246.828125 256.578125 246.828125 250.65625 260.078125 C 256.601562 246.828125 256.601562 246.828125 243.351562 240.902344 C 256.601562 246.851562 256.601562 246.851562 262.527344 233.601562 C 256.578125 246.828125 256.578125 246.828125 269.828125 252.777344 Z M 269.828125 252.777344 " fill-opacity="1" fill-rule="nonzero"/></g><g clip-path="url(#3c38d0e29f)"><g clip-path="url(#41a19c0802)"><g transform="matrix(1, 0, 0, 1, 105, 295)"><g clip-path="url(#80c2737396)"><g clip-path="url(#e13271954f)"><g clip-path="url(#7afca6405e)"><path fill="#ffffff" d="M 0.832031 0.535156 L 6.816406 0.535156 L 6.816406 6.519531 L 0.832031 6.519531 Z M 0.832031 0.535156 " fill-opacity="1" fill-rule="nonzero"/></g></g></g></g></g></g><g clip-path="url(#b049551729)"><g clip-path="url(#ceb9d763ca)"><g transform="matrix(1, 0, 0, 1, 178, 303)"><g clip-path="url(#e2cbe2d3e7)"><g clip-path="url(#d85562576d)"><g clip-path="url(#a828cb875d)"><path fill="#ffffff" d="M 0.28125 0.0351562 L 6.265625 0.0351562 L 6.265625 6.019531 L 0.28125 6.019531 Z M 0.28125 0.0351562 " fill-opacity="1" fill-rule="nonzero"/></g></g></g></g></g></g><g clip-path="url(#9ca09ea218)"><g clip-path="url(#5aa6cb807d)"><g transform="matrix(1, 0, 0, 1, 213, 278)"><g clip-path="url(#ae22f0e473)"><g clip-path="url(#445ede4068)"><g clip-path="url(#ec35079ec5)"><path fill="#ffffff" d="M 0.546875 0.441406 L 6.53125 0.441406 L 6.53125 6.425781 L 0.546875 6.425781 Z M 0.546875 0.441406 " fill-opacity="1" fill-rule="nonzero"/></g></g></g></g></g></g><g clip-path="url(#fbb022a503)"><g clip-path="url(#7018e81739)"><g transform="matrix(1, 0, 0, 1, 285, 285)"><g clip-path="url(#0aae12a75e)"><g clip-path="url(#8ae32ef59e)"><g clip-path="url(#6cc5d4198f)"><path fill="#ffffff" d="M 0.695312 0.941406 L 6.679688 0.941406 L 6.679688 6.925781 L 0.695312 6.925781 Z M 0.695312 0.941406 " fill-opacity="1" fill-rule="nonzero"/></g></g></g></g></g></g><g clip-path="url(#10c0fcbb91)"><g clip-path="url(#fa79bf1746)"><path stroke-linecap="butt" transform="matrix(0.75, 0, 0, 0.75, 124.274996, 301.683878)" fill="none" stroke-linejoin="miter" d="M 2.685422 -0.000378719 C 1.201047 -0.000378719 -0.00207845 1.202746 -0.00207845 2.687121 C -0.00207845 4.171497 1.201047 5.374622 2.685422 5.374622 C 4.169797 5.374622 5.372922 4.171497 5.372922 2.687121 C 5.372922 1.202746 4.169797 -0.000378719 2.685422 -0.000378719 Z M 2.685422 -0.000378719 " stroke="#ffffff" stroke-width="4" stroke-opacity="1" stroke-miterlimit="4"/></g></g><g clip-path="url(#50f8214c2e)"><g clip-path="url(#27c94fa592)"><path stroke-linecap="butt" transform="matrix(0.75, 0, 0, 0.75, 171.074993, 309.483877)" fill="none" stroke-linejoin="miter" d="M 2.686467 0.00066363 C 1.202092 0.00066363 -0.00103269 1.203789 -0.00103269 2.688164 C -0.00103269 4.172539 1.202092 5.375664 2.686467 5.375664 C 4.170843 5.375664 5.373968 4.172539 5.373968 2.688164 C 5.373968 1.203789 4.170843 0.00066363 2.686467 0.00066363 Z M 2.686467 0.00066363 " stroke="#ffffff" stroke-width="4" stroke-opacity="1" stroke-miterlimit="4"/></g></g><g clip-path="url(#25ac6252d6)"><g clip-path="url(#73077dfed7)"><path stroke-linecap="butt" transform="matrix(0.75, 0, 0, 0.75, 164.774994, 313.533877)" fill="none" stroke-linejoin="miter" d="M 2.685425 0.00170565 C 1.20105 0.00170565 -0.00207491 1.204831 -0.00207491 2.689206 C -0.00207491 4.173581 1.20105 5.376706 2.685425 5.376706 C 4.1698 5.376706 5.372925 4.173581 5.372925 2.689206 C 5.372925 1.204831 4.1698 0.00170565 2.685425 0.00170565 Z M 2.685425 0.00170565 " stroke="#ffffff" stroke-width="4" stroke-opacity="1" stroke-miterlimit="4"/></g></g><g clip-path="url(#4d901a45fa)"><g clip-path="url(#8c4e65207a)"><path stroke-linecap="butt" transform="matrix(0.75, 0, 0, 0.75, 185.924992, 317.433877)" fill="none" stroke-linejoin="miter" d="M 2.688552 -0.00037734 C 1.204177 -0.00037734 0.00105195 1.202748 0.00105195 2.687123 C 0.00105195 4.171498 1.204177 5.374623 2.688552 5.374623 C 4.172927 5.374623 5.376052 4.171498 5.376052 2.687123 C 5.376052 1.202748 4.172927 -0.00037734 2.688552 -0.00037734 Z M 2.688552 -0.00037734 " stroke="#ffffff" stroke-width="4" stroke-opacity="1" stroke-miterlimit="4"/></g></g><g clip-path="url(#aaa8c047e0)"><g clip-path="url(#bbf01d5a18)"><path stroke-linecap="butt" transform="matrix(0.75, 0, 0, 0.75, 223.724975, 305.733878)" fill="none" stroke-linejoin="miter" d="M 2.689616 0.000663302 C 1.205241 0.000663302 0.00211612 1.203788 0.00211612 2.688163 C 0.00211612 4.172539 1.205241 5.375664 2.689616 5.375664 C 4.173991 5.375664 5.377116 4.172539 5.377116 2.688163 C 5.377116 1.203788 4.173991 0.000663302 2.689616 0.000663302 Z M 2.689616 0.000663302 " stroke="#ffffff" stroke-width="4" stroke-opacity="1" stroke-miterlimit="4"/></g></g><g clip-path="url(#47a29e6081)"><g clip-path="url(#f95b0250d0)"><path stroke-linecap="butt" transform="matrix(0.75, 0, 0, 0.75, 222.53807, 274.242344)" fill="none" stroke-linejoin="miter" d="M 2.688824 -0.000209189 C 1.204449 -0.000209189 0.00132348 1.202916 0.00132348 2.687291 C 0.00132348 4.171666 1.204449 5.374791 2.688824 5.374791 C 4.173199 5.374791 5.376324 4.171666 5.376324 2.687291 C 5.376324 1.202916 4.173199 -0.000209189 2.688824 -0.000209189 Z M 2.688824 -0.000209189 " stroke="#ffffff" stroke-width="4" stroke-opacity="1" stroke-miterlimit="4"/></g></g><g clip-path="url(#d833aea734)"><g clip-path="url(#cf5feb7206)"><path stroke-linecap="butt" transform="matrix(0.75, 0, 0, 0.75, 269.488084, 282.042375)" fill="none" stroke-linejoin="miter" d="M 2.687764 0.000791561 C 1.203389 0.000791561 0.000263529 1.203917 0.000263529 2.688292 C 0.000263529 4.172667 1.203389 5.375792 2.687764 5.375792 C 4.172139 5.375792 5.375264 4.172667 5.375264 2.688292 C 5.375264 1.203917 4.172139 0.000791561 2.687764 0.000791561 Z M 2.687764 0.000791561 " stroke="#ffffff" stroke-width="4" stroke-opacity="1" stroke-miterlimit="4"/></g></g><path stroke-linecap="butt" transform="matrix(0.749993, -0.00315288, 0.00315288, 0.749993, 109.640666, 297.333878)" fill="none" stroke-linejoin="miter" d="M -0.00114192 1.497546 L 47.577399 1.499642 " stroke="#ffffff" stroke-width="3" stroke-opacity="1" stroke-miterlimit="4"/><path stroke-linecap="butt" transform="matrix(0.749994, -0.00310074, 0.00310074, 0.749994, 252.453826, 288.042375)" fill="none" stroke-linejoin="miter" d="M -0.00193049 1.500797 L 48.373499 1.497672 " stroke="#ffffff" stroke-width="3" stroke-opacity="1" stroke-miterlimit="4"/><path stroke-linecap="butt" transform="matrix(0.75, -0.000000000000001116, 0.000000000000001116, 0.75, 216.608457, 280.542375)" fill="none" stroke-linejoin="miter" d="M 0.00122337 1.500792 L 36.975184 1.500792 " stroke="#ffffff" stroke-width="3" stroke-opacity="1" stroke-miterlimit="4"/><path stroke-linecap="butt" transform="matrix(0.75, 0, 0, 0.75, 152.995379, 304.983878)" fill="none" stroke-linejoin="miter" d="M 0.000952662 1.500663 L 37.573872 1.500663 " stroke="#ffffff" stroke-width="3" stroke-opacity="1" stroke-miterlimit="4"/><path stroke-linecap="butt" transform="matrix(0.749988, 0.00428829, -0.00428829, 0.749988, 197.704268, 306.969561)" fill="none" stroke-linejoin="miter" d="M -0.00102111 0.998941 L 34.978737 1.002062 " stroke="#ffffff" stroke-width="2" stroke-opacity="1" stroke-miterlimit="4"/><path stroke-linecap="butt" transform="matrix(0.749983, -0.00500349, 0.00500349, 0.749983, 225.158061, 275.477999)" fill="none" stroke-linejoin="miter" d="M 0.00134339 0.998116 L 29.981164 1.000205 " stroke="#ffffff" stroke-width="2" stroke-opacity="1" stroke-miterlimit="4"/><path stroke-linecap="butt" transform="matrix(0.75, 0, 0, 0.75, 167.399994, 314.919529)" fill="none" stroke-linejoin="miter" d="M -0.00207468 0.99792 L 29.779177 0.99792 " stroke="#ffffff" stroke-width="2" stroke-opacity="1" stroke-miterlimit="4"/><path stroke-linecap="butt" transform="matrix(0.749958, -0.00790328, 0.00790328, 0.749958, 127.492086, 302.91953)" fill="none" stroke-linejoin="miter" d="M 0.0000360053 0.997975 L 18.980236 1.000066 " stroke="#ffffff" stroke-width="2" stroke-opacity="1" stroke-miterlimit="4"/><path stroke-linecap="butt" transform="matrix(0.749982, -0.00524859, 0.00524859, 0.749982, 149.994736, 310.71956)" fill="none" stroke-linejoin="miter" d="M 0.0000276046 0.998944 L 28.57884 1.001025 " stroke="#ffffff" stroke-width="2" stroke-opacity="1" stroke-miterlimit="4"/><path stroke-linecap="butt" transform="matrix(0.75, 0, 0, 0.75, 164.999994, 318.519529)" fill="none" stroke-linejoin="miter" d="M 0.00000844667 1.000003 L 28.979177 1.000003 " stroke="#ffffff" stroke-width="2" stroke-opacity="1" stroke-miterlimit="4"/><path stroke-linecap="butt" transform="matrix(0.749962, 0.00750773, -0.00750773, 0.749962, 255.320553, 283.128087)" fill="none" stroke-linejoin="miter" d="M -0.000716003 1.00115 L 19.979432 0.999059 " stroke="#ffffff" stroke-width="2" stroke-opacity="1" stroke-miterlimit="4"/><path stroke-linecap="butt" transform="matrix(0.553453, -0.506152, 0.506152, 0.553453, 188.602156, 315.210215)" fill="none" stroke-linejoin="miter" d="M 0.00280317 0.999043 L 16.382101 1.001485 " stroke="#ffffff" stroke-width="2" stroke-opacity="1" stroke-miterlimit="4"/><path stroke-linecap="butt" transform="matrix(-0.552156, -0.507566, 0.507566, -0.552156, 149.939409, 312.217801)" fill="none" stroke-linejoin="miter" d="M 0.00306024 1.000053 L 16.819086 0.999886 " stroke="#ffffff" stroke-width="2" stroke-opacity="1" stroke-miterlimit="4"/><path stroke-linecap="butt" transform="matrix(-0.552156, -0.507566, 0.507566, -0.552156, 164.789408, 320.167801)" fill="none" stroke-linejoin="miter" d="M -0.00129477 0.998396 L 16.82209 0.998538 " stroke="#ffffff" stroke-width="2" stroke-opacity="1" stroke-miterlimit="4"/><path stroke-linecap="butt" transform="matrix(-0.553288, -0.506332, 0.506332, -0.553288, 255.406337, 284.478437)" fill="none" stroke-linejoin="miter" d="M -0.00194041 1.000633 L 15.975178 1.000849 " stroke="#ffffff" stroke-width="2" stroke-opacity="1" stroke-miterlimit="4"/><path stroke-linecap="butt" transform="matrix(-0.552317, -0.507391, 0.507391, -0.552317, 153.019742, 307.288809)" fill="none" stroke-linejoin="miter" d="M -0.000958487 1.499787 L 16.697321 1.499953 " stroke="#ffffff" stroke-width="3" stroke-opacity="1" stroke-miterlimit="4"/><path stroke-linecap="butt" transform="matrix(-0.573587, -0.483216, 0.483216, -0.573587, 252.370536, 290.229855)" fill="none" stroke-linejoin="miter" d="M 0.000250656 1.496965 L 16.599959 1.500782 " stroke="#ffffff" stroke-width="3" stroke-opacity="1" stroke-miterlimit="4"/></svg>