<svg xmlns="http://www.w3.org/2000/svg" xmlns:xlink="http://www.w3.org/1999/xlink" width="500" zoomAndPan="magnify" viewBox="0 0 375 374.999991" height="500" preserveAspectRatio="xMidYMid meet" version="1.0"><defs><g/><clipPath id="1ebd5023dc"><path d="M 102.3125 110.722656 L 260.5625 110.722656 L 260.5625 268.972656 L 102.3125 268.972656 Z M 102.3125 110.722656 " clip-rule="nonzero"/></clipPath><clipPath id="c7e17685a9"><path d="M 102.3125 185.722656 L 102.3125 193.683594 C 102.3125 235.105469 135.890625 268.683594 177.3125 268.683594 L 185.273438 268.683594 C 226.691406 268.683594 260.273438 235.105469 260.273438 193.683594 L 260.273438 185.722656 C 260.273438 144.304688 226.691406 110.722656 185.273438 110.722656 L 177.3125 110.722656 C 135.890625 110.722656 102.3125 144.304688 102.3125 185.722656 Z M 102.3125 185.722656 " clip-rule="nonzero"/></clipPath><clipPath id="ff915e3080"><path d="M 97.105469 99.308594 L 277.855469 99.308594 L 277.855469 226.058594 L 97.105469 226.058594 Z M 97.105469 99.308594 " clip-rule="nonzero"/></clipPath><clipPath id="8bb6a75cf0"><path d="M 159 150 L 217.710938 150 L 217.710938 225 L 159 225 Z M 159 150 " clip-rule="nonzero"/></clipPath><clipPath id="4d8f1b619c"><path d="M 230 211.828125 L 288.75 211.828125 L 288.75 257 L 230 257 Z M 230 211.828125 " clip-rule="nonzero"/></clipPath><clipPath id="25b3dd52ed"><path d="M 229.5 211.828125 L 288.75 211.828125 L 288.75 265.078125 L 229.5 265.078125 Z M 229.5 211.828125 " clip-rule="nonzero"/></clipPath><clipPath id="85a571f68f"><path d="M 97.105469 99.308594 L 229.105469 99.308594 L 229.105469 278.558594 L 97.105469 278.558594 Z M 97.105469 99.308594 " clip-rule="nonzero"/></clipPath><clipPath id="23d6d29006"><path d="M 97.105469 262.726562 L 277.855469 262.726562 L 277.855469 279.976562 L 97.105469 279.976562 Z M 97.105469 262.726562 " clip-rule="nonzero"/></clipPath><clipPath id="caa4e100d7"><path d="M 105.832031 295.535156 L 111.816406 295.535156 L 111.816406 301.519531 L 105.832031 301.519531 Z M 105.832031 295.535156 " clip-rule="nonzero"/></clipPath><clipPath id="27119d1fd5"><path d="M 108.824219 295.535156 C 107.171875 295.535156 105.832031 296.875 105.832031 298.527344 C 105.832031 300.179688 107.171875 301.519531 108.824219 301.519531 C 110.476562 301.519531 111.816406 300.179688 111.816406 298.527344 C 111.816406 296.875 110.476562 295.535156 108.824219 295.535156 Z M 108.824219 295.535156 " clip-rule="nonzero"/></clipPath><clipPath id="c57c20483b"><path d="M 0.832031 0.535156 L 6.816406 0.535156 L 6.816406 6.519531 L 0.832031 6.519531 Z M 0.832031 0.535156 " clip-rule="nonzero"/></clipPath><clipPath id="de922b46d2"><path d="M 3.824219 0.535156 C 2.171875 0.535156 0.832031 1.875 0.832031 3.527344 C 0.832031 5.179688 2.171875 6.519531 3.824219 6.519531 C 5.476562 6.519531 6.816406 5.179688 6.816406 3.527344 C 6.816406 1.875 5.476562 0.535156 3.824219 0.535156 Z M 3.824219 0.535156 " clip-rule="nonzero"/></clipPath><clipPath id="c70709d1d7"><rect x="0" width="7" y="0" height="7"/></clipPath><clipPath id="ac872a3d56"><path d="M 178.28125 303.035156 L 184.265625 303.035156 L 184.265625 309.019531 L 178.28125 309.019531 Z M 178.28125 303.035156 " clip-rule="nonzero"/></clipPath><clipPath id="b48760006b"><path d="M 181.273438 303.035156 C 179.621094 303.035156 178.28125 304.375 178.28125 306.027344 C 178.28125 307.679688 179.621094 309.019531 181.273438 309.019531 C 182.925781 309.019531 184.265625 307.679688 184.265625 306.027344 C 184.265625 304.375 182.925781 303.035156 181.273438 303.035156 Z M 181.273438 303.035156 " clip-rule="nonzero"/></clipPath><clipPath id="145fb558ad"><path d="M 0.28125 0.0351562 L 6.265625 0.0351562 L 6.265625 6.019531 L 0.28125 6.019531 Z M 0.28125 0.0351562 " clip-rule="nonzero"/></clipPath><clipPath id="63b5c1b544"><path d="M 3.273438 0.0351562 C 1.621094 0.0351562 0.28125 1.375 0.28125 3.027344 C 0.28125 4.679688 1.621094 6.019531 3.273438 6.019531 C 4.925781 6.019531 6.265625 4.679688 6.265625 3.027344 C 6.265625 1.375 4.925781 0.0351562 3.273438 0.0351562 Z M 3.273438 0.0351562 " clip-rule="nonzero"/></clipPath><clipPath id="ccce2dc571"><rect x="0" width="7" y="0" height="7"/></clipPath><clipPath id="042c0b7aa4"><path d="M 213.546875 278.441406 L 219.53125 278.441406 L 219.53125 284.425781 L 213.546875 284.425781 Z M 213.546875 278.441406 " clip-rule="nonzero"/></clipPath><clipPath id="e01274737b"><path d="M 216.539062 278.441406 C 214.886719 278.441406 213.546875 279.78125 213.546875 281.433594 C 213.546875 283.085938 214.886719 284.425781 216.539062 284.425781 C 218.191406 284.425781 219.53125 283.085938 219.53125 281.433594 C 219.53125 279.78125 218.191406 278.441406 216.539062 278.441406 Z M 216.539062 278.441406 " clip-rule="nonzero"/></clipPath><clipPath id="54a8cf2028"><path d="M 0.546875 0.441406 L 6.53125 0.441406 L 6.53125 6.425781 L 0.546875 6.425781 Z M 0.546875 0.441406 " clip-rule="nonzero"/></clipPath><clipPath id="c78c12f6fa"><path d="M 3.539062 0.441406 C 1.886719 0.441406 0.546875 1.78125 0.546875 3.433594 C 0.546875 5.085938 1.886719 6.425781 3.539062 6.425781 C 5.191406 6.425781 6.53125 5.085938 6.53125 3.433594 C 6.53125 1.78125 5.191406 0.441406 3.539062 0.441406 Z M 3.539062 0.441406 " clip-rule="nonzero"/></clipPath><clipPath id="80f3dea9a8"><rect x="0" width="7" y="0" height="7"/></clipPath><clipPath id="ee097db686"><path d="M 285.695312 285.941406 L 291.679688 285.941406 L 291.679688 291.925781 L 285.695312 291.925781 Z M 285.695312 285.941406 " clip-rule="nonzero"/></clipPath><clipPath id="2992fbe04f"><path d="M 288.6875 285.941406 C 287.035156 285.941406 285.695312 287.28125 285.695312 288.933594 C 285.695312 290.585938 287.035156 291.925781 288.6875 291.925781 C 290.339844 291.925781 291.679688 290.585938 291.679688 288.933594 C 291.679688 287.28125 290.339844 285.941406 288.6875 285.941406 Z M 288.6875 285.941406 " clip-rule="nonzero"/></clipPath><clipPath id="7d05710318"><path d="M 0.695312 0.941406 L 6.679688 0.941406 L 6.679688 6.925781 L 0.695312 6.925781 Z M 0.695312 0.941406 " clip-rule="nonzero"/></clipPath><clipPath id="8d433fd2fd"><path d="M 3.6875 0.941406 C 2.035156 0.941406 0.695312 2.28125 0.695312 3.933594 C 0.695312 5.585938 2.035156 6.925781 3.6875 6.925781 C 5.339844 6.925781 6.679688 5.585938 6.679688 3.933594 C 6.679688 2.28125 5.339844 0.941406 3.6875 0.941406 Z M 3.6875 0.941406 " clip-rule="nonzero"/></clipPath><clipPath id="9f1e89d171"><rect x="0" width="7" y="0" height="7"/></clipPath><clipPath id="6661d3d371"><path d="M 124.273438 301.683594 L 128.023438 301.683594 L 128.023438 305.433594 L 124.273438 305.433594 Z M 124.273438 301.683594 " clip-rule="nonzero"/></clipPath><clipPath id="a2319aa3e8"><path d="M 126.289062 301.683594 C 125.175781 301.683594 124.273438 302.585938 124.273438 303.699219 C 124.273438 304.8125 125.175781 305.714844 126.289062 305.714844 C 127.402344 305.714844 128.304688 304.8125 128.304688 303.699219 C 128.304688 302.585938 127.402344 301.683594 126.289062 301.683594 Z M 126.289062 301.683594 " clip-rule="nonzero"/></clipPath><clipPath id="e0dfdc9244"><path d="M 171.074219 309.484375 L 174.824219 309.484375 L 174.824219 313.234375 L 171.074219 313.234375 Z M 171.074219 309.484375 " clip-rule="nonzero"/></clipPath><clipPath id="1b59b84baf"><path d="M 173.089844 309.484375 C 171.976562 309.484375 171.074219 310.386719 171.074219 311.5 C 171.074219 312.613281 171.976562 313.515625 173.089844 313.515625 C 174.203125 313.515625 175.105469 312.613281 175.105469 311.5 C 175.105469 310.386719 174.203125 309.484375 173.089844 309.484375 Z M 173.089844 309.484375 " clip-rule="nonzero"/></clipPath><clipPath id="80afb005b9"><path d="M 164.773438 313.535156 L 168.523438 313.535156 L 168.523438 317.285156 L 164.773438 317.285156 Z M 164.773438 313.535156 " clip-rule="nonzero"/></clipPath><clipPath id="3a13ee0a80"><path d="M 166.789062 313.535156 C 165.675781 313.535156 164.773438 314.4375 164.773438 315.550781 C 164.773438 316.664062 165.675781 317.566406 166.789062 317.566406 C 167.902344 317.566406 168.804688 316.664062 168.804688 315.550781 C 168.804688 314.4375 167.902344 313.535156 166.789062 313.535156 Z M 166.789062 313.535156 " clip-rule="nonzero"/></clipPath><clipPath id="93cb78f2b0"><path d="M 185.925781 317.433594 L 189.675781 317.433594 L 189.675781 321.183594 L 185.925781 321.183594 Z M 185.925781 317.433594 " clip-rule="nonzero"/></clipPath><clipPath id="d5ceb99db1"><path d="M 187.941406 317.433594 C 186.828125 317.433594 185.925781 318.335938 185.925781 319.449219 C 185.925781 320.5625 186.828125 321.464844 187.941406 321.464844 C 189.054688 321.464844 189.957031 320.5625 189.957031 319.449219 C 189.957031 318.335938 189.054688 317.433594 187.941406 317.433594 Z M 187.941406 317.433594 " clip-rule="nonzero"/></clipPath><clipPath id="2753931d16"><path d="M 223.726562 305.734375 L 227.476562 305.734375 L 227.476562 309.484375 L 223.726562 309.484375 Z M 223.726562 305.734375 " clip-rule="nonzero"/></clipPath><clipPath id="9ac6425f65"><path d="M 225.742188 305.734375 C 224.628906 305.734375 223.726562 306.636719 223.726562 307.75 C 223.726562 308.863281 224.628906 309.765625 225.742188 309.765625 C 226.855469 309.765625 227.757812 308.863281 227.757812 307.75 C 227.757812 306.636719 226.855469 305.734375 225.742188 305.734375 Z M 225.742188 305.734375 " clip-rule="nonzero"/></clipPath><clipPath id="f4f98d141c"><path d="M 222.539062 274.242188 L 226.289062 274.242188 L 226.289062 277.992188 L 222.539062 277.992188 Z M 222.539062 274.242188 " clip-rule="nonzero"/></clipPath><clipPath id="a2cb016fab"><path d="M 224.554688 274.242188 C 223.441406 274.242188 222.539062 275.144531 222.539062 276.257812 C 222.539062 277.371094 223.441406 278.273438 224.554688 278.273438 C 225.667969 278.273438 226.570312 277.371094 226.570312 276.257812 C 226.570312 275.144531 225.667969 274.242188 224.554688 274.242188 Z M 224.554688 274.242188 " clip-rule="nonzero"/></clipPath><clipPath id="5ea41ca0d1"><path d="M 269.488281 282.042969 L 273.238281 282.042969 L 273.238281 285.792969 L 269.488281 285.792969 Z M 269.488281 282.042969 " clip-rule="nonzero"/></clipPath><clipPath id="e19512d1aa"><path d="M 271.503906 282.042969 C 270.390625 282.042969 269.488281 282.945312 269.488281 284.058594 C 269.488281 285.171875 270.390625 286.074219 271.503906 286.074219 C 272.617188 286.074219 273.519531 285.171875 273.519531 284.058594 C 273.519531 282.945312 272.617188 282.042969 271.503906 282.042969 Z M 271.503906 282.042969 " clip-rule="nonzero"/></clipPath></defs><g fill="#ffffff" fill-opacity="1"><g transform="translate(128.061577, 112.56352)"><g><path d="M -2.03125 -8.734375 L -8.75 -20.703125 L -6.234375 -22.125 L 0.484375 -10.15625 C 2.578125 -6.414062 5.484375 -5.585938 9.203125 -7.671875 C 12.929688 -9.765625 13.75 -12.679688 11.65625 -16.421875 L 4.9375 -28.390625 L 7.453125 -29.8125 L 14.171875 -17.84375 C 17.035156 -12.738281 15.765625 -8.664062 10.359375 -5.625 C 4.960938 -2.59375 0.832031 -3.628906 -2.03125 -8.734375 Z M -2.03125 -8.734375 "/></g></g></g><g fill="#ffffff" fill-opacity="1"><g transform="translate(147.06349, 102.000493)"><g><path d="M 9.28125 -26.65625 L 10.03125 -24.4375 L -1.078125 -20.734375 L 1.296875 -13.625 L 11.890625 -17.15625 L 12.640625 -14.921875 L 2.046875 -11.390625 L 5.265625 -1.765625 L 2.515625 -0.84375 L -4.578125 -22.03125 Z M 9.28125 -26.65625 "/></g></g></g><g fill="#ffffff" fill-opacity="1"><g transform="translate(162.497846, 96.574392)"><g><path d="M 2.625 -0.390625 L -0.6875 -22.484375 L 8.734375 -23.90625 C 12.941406 -24.53125 15.3125 -23.078125 15.84375 -19.546875 C 16.269531 -16.671875 14.53125 -14.238281 10.625 -12.25 L 19.78125 -2.96875 L 16.015625 -2.390625 L 7.5 -11.28125 L 7.21875 -13.15625 C 11.332031 -14.457031 13.195312 -16.394531 12.8125 -18.96875 C 12.507812 -21.007812 11.1875 -21.851562 8.84375 -21.5 L 2.53125 -20.5625 L 5.484375 -0.828125 Z M 2.625 -0.390625 "/></g></g></g><g fill="#ffffff" fill-opacity="1"><g transform="translate(181.43351, 94.062138)"><g/></g></g><g fill="#ffffff" fill-opacity="1"><g transform="translate(187.678666, 92.934547)"><g><path d="M 2.625 0.390625 L 5.84375 -21.71875 L 9.484375 -21.203125 L 14.90625 -1.578125 L 25.5625 -18.859375 L 29.046875 -18.34375 L 25.828125 3.765625 L 23.265625 3.390625 L 25.90625 -14.75 L 15.421875 2.25 L 13.15625 1.921875 L 7.8125 -17.390625 L 5.171875 0.75 Z M 2.625 0.390625 "/></g></g></g><g fill="#ffffff" fill-opacity="1"><g transform="translate(214.296918, 97.515206)"><g><path d="M 12.671875 -19.359375 L 5.71875 1.875 L 2.96875 0.96875 L 9.921875 -20.265625 Z M 12.671875 -19.359375 "/></g></g></g><g fill="#ffffff" fill-opacity="1"><g transform="translate(221.768542, 98.92877)"><g><path d="M 2.34375 1.25 L 12.828125 -18.484375 L 16.078125 -16.765625 L 14.5625 3.546875 L 30.421875 -9.140625 L 33.53125 -7.5 L 23.046875 12.234375 L 20.765625 11.03125 L 29.359375 -5.15625 L 13.765625 7.296875 L 11.75 6.234375 L 13.21875 -13.734375 L 4.625 2.453125 Z M 2.34375 1.25 "/></g></g></g><g clip-path="url(#1ebd5023dc)"><g clip-path="url(#c7e17685a9)"><path fill="#82dbff" d="M 112.0625 246.242188 C 112.0625 245.082031 111.117188 244.136719 109.957031 244.136719 C 108.800781 244.136719 107.855469 245.082031 107.855469 246.242188 C 107.855469 247.277344 108.609375 248.144531 109.601562 248.316406 L 109.601562 259.078125 C 109.601562 259.195312 109.652344 259.289062 109.722656 259.347656 L 117.296875 266.921875 C 117.382812 267.007812 117.488281 267.039062 117.582031 267.027344 L 160.003906 267.027344 C 160.121094 267.027344 160.214844 266.976562 160.277344 266.90625 L 173.253906 253.925781 L 210.386719 253.925781 C 210.546875 254.539062 211.105469 254.996094 211.765625 254.996094 C 212.550781 254.996094 213.191406 254.355469 213.191406 253.570312 C 213.191406 252.785156 212.550781 252.144531 211.765625 252.144531 C 211.101562 252.144531 210.542969 252.601562 210.386719 253.214844 L 173.148438 253.214844 C 173.074219 253.207031 172.992188 253.21875 172.914062 253.269531 C 172.890625 253.285156 172.875 253.300781 172.855469 253.316406 L 159.859375 266.3125 L 117.699219 266.3125 L 110.316406 258.929688 L 110.316406 248.320312 C 111.304688 248.144531 112.0625 247.277344 112.0625 246.242188 M 189.097656 250.054688 C 190.257812 250.054688 191.199219 249.109375 191.199219 247.953125 C 191.199219 246.792969 190.257812 245.847656 189.097656 245.847656 C 188.058594 245.847656 187.195312 246.605469 187.023438 247.59375 L 158.722656 247.59375 C 158.621094 247.59375 158.53125 247.632812 158.46875 247.699219 L 145.84375 260.320312 L 122.9375 260.320312 L 117 254.378906 L 117 237.199219 L 139.75 216.402344 C 139.839844 216.324219 139.875 216.21875 139.867188 216.117188 L 139.867188 187.304688 C 140.480469 187.144531 140.9375 186.582031 140.9375 185.925781 C 140.9375 185.140625 140.296875 184.5 139.511719 184.5 C 138.726562 184.5 138.085938 185.140625 138.085938 185.925781 C 138.085938 186.585938 138.542969 187.148438 139.15625 187.304688 L 139.15625 215.984375 L 116.425781 236.757812 C 116.375 236.796875 116.332031 236.855469 116.304688 236.933594 C 116.292969 236.96875 116.285156 237 116.285156 237.039062 L 116.285156 254.484375 C 116.277344 254.5625 116.292969 254.644531 116.34375 254.726562 C 116.355469 254.746094 116.371094 254.765625 116.390625 254.78125 L 122.539062 260.929688 C 122.601562 260.996094 122.691406 261.035156 122.792969 261.035156 L 145.960938 261.035156 C 146.035156 261.046875 146.117188 261.027344 146.195312 260.976562 C 146.214844 260.964844 146.234375 260.949219 146.253906 260.929688 L 158.875 248.308594 L 187.027344 248.308594 C 187.195312 249.300781 188.058594 250.054688 189.097656 250.054688 Z M 134.402344 200.515625 C 135.410156 201.097656 136.6875 200.746094 137.277344 199.746094 C 137.851562 198.734375 137.511719 197.453125 136.503906 196.871094 C 135.605469 196.351562 134.484375 196.574219 133.839844 197.347656 L 132.71875 196.699219 L 132.71875 182.09375 C 133.332031 181.933594 133.789062 181.375 133.789062 180.714844 C 133.789062 179.929688 133.148438 179.289062 132.363281 179.289062 C 131.578125 179.289062 130.9375 179.929688 130.9375 180.714844 C 130.9375 181.378906 131.394531 181.9375 132.007812 182.09375 L 132.007812 196.882812 C 131.996094 196.980469 132.03125 197.085938 132.121094 197.171875 C 132.140625 197.1875 132.160156 197.203125 132.183594 197.21875 L 133.484375 197.964844 C 133.136719 198.90625 133.5 199.992188 134.402344 200.515625 Z M 122.507812 252.015625 C 122.507812 253.175781 123.453125 254.117188 124.609375 254.117188 C 125.769531 254.117188 126.714844 253.175781 126.714844 252.015625 C 126.714844 250.976562 125.957031 250.113281 124.964844 249.941406 L 124.964844 239.542969 L 148.390625 216.117188 C 148.476562 216.03125 148.503906 215.929688 148.496094 215.835938 L 148.496094 206.765625 C 149.105469 206.605469 149.5625 206.046875 149.5625 205.386719 C 149.5625 204.605469 148.921875 203.960938 148.136719 203.960938 C 147.351562 203.960938 146.710938 204.605469 146.710938 205.386719 C 146.710938 206.050781 147.167969 206.609375 147.78125 206.765625 L 147.78125 215.71875 L 124.375 239.125 C 124.332031 239.164062 124.292969 239.21875 124.269531 239.285156 C 124.257812 239.320312 124.25 239.351562 124.25 239.394531 L 124.25 249.9375 C 123.261719 250.113281 122.507812 250.976562 122.507812 252.015625 Z M 111.394531 215.746094 C 111.394531 216.90625 112.339844 217.851562 113.5 217.851562 C 114.65625 217.851562 115.601562 216.90625 115.601562 215.746094 C 115.601562 214.710938 114.847656 213.84375 113.855469 213.671875 L 113.855469 113.511719 C 114.46875 113.351562 114.925781 112.792969 114.925781 112.132812 C 114.925781 111.347656 114.28125 110.707031 113.5 110.707031 C 112.714844 110.707031 112.074219 111.347656 112.074219 112.132812 C 112.074219 112.796875 112.527344 113.355469 113.140625 113.511719 L 113.140625 213.671875 C 112.15625 213.84375 111.394531 214.710938 111.394531 215.746094 Z M 176.394531 258.011719 C 175.238281 258.011719 174.292969 258.957031 174.292969 260.113281 C 174.292969 261.273438 175.238281 262.21875 176.394531 262.21875 C 177.433594 262.21875 178.300781 261.460938 178.472656 260.472656 L 257.445312 260.472656 C 257.605469 261.085938 258.164062 261.539062 258.824219 261.539062 C 259.609375 261.539062 260.25 260.898438 260.25 260.113281 C 260.25 259.332031 259.609375 258.6875 258.824219 258.6875 C 258.164062 258.6875 257.601562 259.144531 257.445312 259.757812 L 178.472656 259.757812 C 178.300781 258.769531 177.4375 258.011719 176.394531 258.011719 Z M 209.847656 233.488281 C 209.261719 232.484375 207.988281 232.136719 206.976562 232.71875 C 206.414062 233.046875 206.058594 233.59375 205.957031 234.183594 L 178.203125 234.183594 C 178.105469 234.171875 178 234.210938 177.914062 234.296875 C 177.898438 234.316406 177.878906 234.335938 177.867188 234.363281 L 174.027344 241.019531 L 156.679688 241.019531 C 156.605469 241.011719 156.523438 241.023438 156.441406 241.074219 C 156.417969 241.089844 156.402344 241.105469 156.382812 241.121094 L 143.707031 253.796875 L 132.660156 253.796875 L 132.660156 243.179688 C 133.648438 243.007812 134.40625 242.144531 134.40625 241.105469 C 134.40625 239.945312 133.460938 239 132.304688 239 C 131.144531 239 130.199219 239.945312 130.199219 241.105469 C 130.199219 242.140625 130.957031 243.007812 131.945312 243.179688 L 131.945312 254.15625 C 131.945312 254.375 132.121094 254.507812 132.304688 254.511719 L 143.851562 254.511719 C 143.96875 254.511719 144.0625 254.460938 144.125 254.390625 L 156.785156 241.730469 L 174.230469 241.730469 C 174.378906 241.730469 174.480469 241.65625 174.539062 241.554688 L 178.382812 234.902344 L 205.953125 234.902344 C 205.992188 235.140625 206.078125 235.375 206.203125 235.597656 C 206.734375 236.496094 207.808594 236.863281 208.753906 236.515625 L 213.902344 245.433594 C 213.96875 245.558594 214.089844 245.613281 214.207031 245.613281 L 233.59375 245.613281 C 233.753906 246.226562 234.3125 246.683594 234.972656 246.683594 C 235.757812 246.683594 236.398438 246.042969 236.398438 245.257812 C 236.398438 244.472656 235.757812 243.832031 234.972656 243.832031 C 234.308594 243.832031 233.75 244.289062 233.59375 244.898438 L 214.414062 244.898438 L 209.367188 236.160156 C 210.144531 235.511719 210.367188 234.394531 209.847656 233.488281 Z M 102.292969 266.558594 C 102.292969 267.71875 103.238281 268.664062 104.398438 268.664062 C 105.554688 268.664062 106.5 267.71875 106.5 266.558594 C 106.5 265.523438 105.746094 264.65625 104.753906 264.484375 L 104.753906 234.421875 L 122.835938 218.882812 C 122.921875 218.804688 122.964844 218.703125 122.960938 218.605469 L 122.960938 176.015625 C 123.371094 175.945312 123.765625 175.75 124.089844 175.433594 C 124.828125 174.679688 124.902344 173.5625 124.316406 172.734375 L 134.925781 162.125 C 135.011719 162.039062 135.039062 161.9375 135.03125 161.84375 L 135.03125 143.5625 C 135.644531 143.402344 136.097656 142.84375 136.097656 142.183594 C 136.097656 141.398438 135.457031 140.757812 134.671875 140.757812 C 133.890625 140.757812 133.246094 141.398438 133.246094 142.183594 C 133.246094 142.847656 133.703125 143.40625 134.316406 143.5625 L 134.316406 161.726562 L 123.8125 172.230469 C 122.984375 171.648438 121.863281 171.726562 121.113281 172.460938 C 120.292969 173.296875 120.292969 174.59375 121.113281 175.4375 C 121.4375 175.753906 121.832031 175.949219 122.242188 176.019531 L 122.242188 218.457031 L 104.183594 233.972656 C 104.125 234.011719 104.082031 234.074219 104.054688 234.15625 C 104.042969 234.191406 104.039062 234.222656 104.039062 234.261719 L 104.039062 264.488281 C 103.050781 264.65625 102.292969 265.523438 102.292969 266.558594 Z M 102.292969 266.558594 " fill-opacity="1" fill-rule="nonzero"/></g></g><path stroke-linecap="butt" transform="matrix(0.533277, -0.527367, 0.527367, 0.533277, 154.121289, 272.330401)" fill="none" stroke-linejoin="miter" d="M 0.00107773 0.502222 L 32.870993 0.499535 " stroke="#82dbff" stroke-width="1" stroke-opacity="1" stroke-miterlimit="4"/><path stroke-linecap="butt" transform="matrix(0.749976, 0.00600579, -0.00600579, 0.749976, 136.577134, 260.528772)" fill="none" stroke-linejoin="miter" d="M 0.000101828 0.498111 L 12.490119 0.502262 " stroke="#82dbff" stroke-width="1" stroke-opacity="1" stroke-miterlimit="4"/><path stroke-linecap="butt" transform="matrix(0.75, 0, 0, 0.75, 131.174264, 254.018069)" fill="none" stroke-linejoin="miter" d="M 0.00202315 0.50195 L 5.07494 0.50195 " stroke="#82dbff" stroke-width="1" stroke-opacity="1" stroke-miterlimit="4"/><path stroke-linecap="butt" transform="matrix(0, -0.75, 0.75, 0, 131.9477, 255.091507)" fill="none" stroke-linejoin="miter" d="M 0.002218 0.502025 L 5.075135 0.502025 " stroke="#82dbff" stroke-width="1" stroke-opacity="1" stroke-miterlimit="4"/><g clip-path="url(#ff915e3080)"><path fill="#82dbff" d="M 277.667969 191.285156 C 277.457031 202.855469 274.984375 214.308594 270.484375 224.878906 C 265.980469 235.445312 259.519531 245.171875 251.425781 253.335938 C 243.351562 261.5 233.671875 268.125 223.082031 272.675781 C 217.785156 274.960938 212.257812 276.734375 206.613281 277.945312 C 200.96875 279.183594 195.183594 279.859375 189.375 279.976562 C 183.566406 280.09375 177.734375 279.648438 171.996094 278.648438 C 166.257812 277.667969 160.589844 276.082031 155.105469 273.980469 C 144.167969 269.78125 133.996094 263.390625 125.410156 255.226562 C 121.117188 251.144531 117.222656 246.640625 113.792969 241.765625 L 112.535156 239.921875 L 111.90625 238.992188 C 111.695312 238.6875 111.484375 238.382812 111.296875 238.058594 L 110.132812 236.144531 L 109.546875 235.1875 L 109.269531 234.722656 L 108.988281 234.253906 L 107.914062 232.296875 L 107.378906 231.316406 L 107.121094 230.824219 L 106.890625 230.3125 L 105.910156 228.285156 L 105.417969 227.28125 C 105.351562 227.117188 105.257812 226.953125 105.1875 226.765625 L 104.976562 226.253906 L 104.113281 224.179688 C 103.832031 223.476562 103.507812 222.800781 103.273438 222.101562 L 102.503906 220.003906 C 102.246094 219.300781 101.96875 218.601562 101.78125 217.878906 L 101.128906 215.734375 L 100.800781 214.660156 C 100.753906 214.472656 100.683594 214.308594 100.636719 214.125 L 100.496094 213.585938 L 99.9375 211.394531 L 99.65625 210.296875 L 99.519531 209.761719 L 99.402344 209.203125 C 98.117188 203.347656 97.417969 197.328125 97.324219 191.308594 C 97.117188 179.273438 99.355469 167.144531 103.925781 155.921875 C 108.476562 144.703125 115.308594 134.414062 123.871094 125.832031 C 128.164062 121.539062 132.875 117.691406 137.9375 114.355469 L 139.851562 113.140625 L 140.808594 112.535156 C 141.132812 112.324219 141.4375 112.136719 141.785156 111.949219 L 143.769531 110.832031 L 144.75 110.269531 L 145.238281 109.992188 L 145.753906 109.734375 L 147.78125 108.707031 L 148.808594 108.195312 L 149.320312 107.9375 L 149.835938 107.707031 L 151.910156 106.796875 L 152.960938 106.328125 C 153.125 106.257812 153.308594 106.164062 153.472656 106.097656 L 154.011719 105.886719 L 156.132812 105.070312 C 156.832031 104.8125 157.53125 104.507812 158.253906 104.300781 L 160.402344 103.601562 C 161.125 103.367188 161.824219 103.109375 162.570312 102.945312 L 164.765625 102.363281 L 165.859375 102.058594 C 166.046875 102.011719 166.234375 101.96875 166.398438 101.921875 L 166.957031 101.804688 L 169.171875 101.3125 L 170.269531 101.082031 L 170.828125 100.964844 L 171.390625 100.871094 C 177.335938 99.796875 183.355469 99.308594 189.375 99.425781 C 201.386719 99.65625 213.308594 102.339844 224.203125 107.214844 C 235.070312 112.089844 244.914062 119.089844 252.988281 127.648438 C 257.023438 131.941406 260.636719 136.609375 263.765625 141.554688 C 266.890625 146.5 269.527344 151.746094 271.625 157.183594 C 275.824219 168.097656 277.878906 179.738281 277.667969 191.285156 Z M 276.289062 191.285156 C 276.175781 185.59375 275.519531 179.925781 274.285156 174.398438 C 273.046875 168.871094 271.300781 163.457031 268.988281 158.300781 C 264.417969 147.96875 257.769531 138.660156 249.628906 130.984375 C 241.488281 123.335938 231.898438 117.316406 221.589844 113.421875 C 216.433594 111.460938 211.089844 110.015625 205.703125 109.082031 L 203.671875 108.777344 L 202.648438 108.617188 L 202.132812 108.546875 C 201.972656 108.523438 201.785156 108.5 201.621094 108.5 L 199.566406 108.289062 L 198.542969 108.195312 C 198.191406 108.171875 197.863281 108.125 197.515625 108.101562 C 196.140625 108.03125 194.785156 107.9375 193.410156 107.890625 L 189.304688 107.890625 L 185.269531 108.101562 C 183.914062 108.21875 182.5625 108.359375 181.1875 108.476562 C 180.835938 108.5 180.511719 108.570312 180.183594 108.617188 L 179.179688 108.753906 L 177.152344 109.058594 C 176.988281 109.082031 176.824219 109.105469 176.636719 109.128906 L 176.148438 109.222656 L 175.144531 109.433594 L 173.136719 109.828125 L 172.648438 109.921875 L 172.160156 110.039062 L 171.179688 110.269531 L 169.195312 110.761719 L 168.707031 110.878906 C 168.542969 110.925781 168.378906 110.972656 168.214844 111.019531 L 167.238281 111.320312 L 165.277344 111.90625 C 164.625 112.089844 163.996094 112.347656 163.339844 112.558594 L 161.429688 113.234375 C 160.773438 113.445312 160.167969 113.722656 159.539062 113.980469 L 157.648438 114.75 L 157.183594 114.9375 C 157.019531 115.007812 156.878906 115.078125 156.714844 115.148438 L 155.804688 115.566406 L 153.964844 116.429688 L 153.496094 116.640625 L 153.054688 116.875 L 152.144531 117.339844 L 150.347656 118.273438 L 149.90625 118.507812 L 149.460938 118.761719 L 148.574219 119.277344 L 146.824219 120.300781 C 146.523438 120.464844 146.242188 120.652344 145.960938 120.839844 L 145.121094 121.398438 L 143.417969 122.496094 C 138.941406 125.527344 134.742188 129.003906 130.917969 132.828125 C 123.265625 140.480469 117.105469 149.625 112.859375 159.585938 C 110.738281 164.578125 109.105469 169.753906 107.984375 175.074219 C 106.867188 180.394531 106.257812 185.804688 106.144531 191.261719 C 106.050781 196.722656 106.492188 202.179688 107.425781 207.570312 L 107.496094 208.082031 L 107.589844 208.59375 L 107.800781 209.597656 L 108.21875 211.605469 L 108.3125 212.117188 C 108.359375 212.28125 108.40625 212.445312 108.429688 212.609375 L 108.6875 213.609375 L 109.199219 215.59375 C 109.363281 216.269531 109.59375 216.898438 109.78125 217.554688 L 110.386719 219.511719 C 110.574219 220.164062 110.832031 220.820312 111.066406 221.449219 L 111.765625 223.382812 L 111.953125 223.875 C 112.019531 224.039062 112.089844 224.199219 112.136719 224.339844 L 112.535156 225.296875 L 113.328125 227.1875 L 113.539062 227.652344 L 113.769531 228.121094 L 114.214844 229.054688 L 115.101562 230.917969 L 115.332031 231.386719 L 115.589844 231.828125 L 116.082031 232.738281 L 117.058594 234.558594 C 117.222656 234.863281 117.386719 235.164062 117.574219 235.445312 L 118.109375 236.332031 L 119.183594 238.105469 C 122.121094 242.769531 125.527344 247.179688 129.351562 251.214844 C 136.980469 259.285156 146.265625 265.886719 156.507812 270.457031 C 161.636719 272.746094 167.003906 274.519531 172.507812 275.753906 C 178.015625 276.992188 183.660156 277.667969 189.328125 277.785156 C 194.996094 277.875 200.6875 277.457031 206.285156 276.453125 C 211.882812 275.425781 217.390625 273.863281 222.683594 271.765625 C 233.277344 267.542969 243.050781 261.152344 251.191406 253.101562 C 259.332031 245.054688 265.863281 235.351562 270.15625 224.714844 C 272.300781 219.417969 273.886719 213.890625 274.914062 208.269531 C 275.941406 202.695312 276.382812 196.976562 276.289062 191.285156 Z M 276.289062 191.285156 " fill-opacity="1" fill-rule="nonzero"/></g><g clip-path="url(#8bb6a75cf0)"><path fill="#ffffff" d="M 161.800781 164.308594 L 184.894531 184.589844 C 186.652344 186.132812 186.652344 188.867188 184.894531 190.414062 L 161.800781 210.691406 C 156.960938 214.941406 159.027344 224.921875 166.710938 224.921875 L 205.558594 224.921875 L 205.558594 224.996094 L 214.167969 224.996094 C 216.308594 224.996094 218.042969 223.261719 218.042969 221.121094 L 218.042969 209.128906 C 218.042969 206.988281 216.308594 205.253906 214.167969 205.253906 L 209.433594 205.253906 C 207.292969 205.253906 205.558594 206.988281 205.558594 209.128906 L 205.558594 212.679688 L 181.523438 212.679688 C 180.332031 212.679688 179.777344 211.203125 180.671875 210.414062 L 200.136719 193.324219 C 203.652344 190.238281 203.652344 184.761719 200.136719 181.675781 L 180.589844 164.511719 C 179.695312 163.726562 180.25 162.25 181.441406 162.25 L 205.558594 162.25 L 205.558594 165.875 C 205.558594 168.015625 207.292969 169.75 209.433594 169.75 L 214.167969 169.75 C 216.304688 169.75 218.042969 168.015625 218.042969 165.875 L 218.042969 153.878906 C 218.042969 151.738281 216.304688 150.003906 214.167969 150.003906 L 166.777344 150.003906 C 158.519531 150.003906 157.355469 160.40625 161.800781 164.308594 Z M 161.800781 164.308594 " fill-opacity="1" fill-rule="nonzero"/></g><path fill="#82dbff" d="M 191.351562 190.414062 L 168.261719 210.691406 C 163.417969 214.941406 165.488281 224.925781 173.171875 224.925781 L 166.710938 224.925781 C 159.03125 224.925781 156.960938 214.941406 161.800781 210.691406 L 184.894531 190.414062 C 186.652344 188.871094 186.652344 186.132812 184.894531 184.589844 L 161.800781 164.308594 C 157.355469 160.40625 158.519531 150.003906 166.777344 150.003906 L 173.234375 150.003906 C 164.980469 150.003906 163.8125 160.40625 168.261719 164.308594 L 191.351562 184.589844 C 193.109375 186.132812 193.109375 188.871094 191.351562 190.410156 Z M 191.351562 190.414062 " fill-opacity="1" fill-rule="nonzero"/><path fill="#82dbff" d="M 214.167969 205.253906 C 214.464844 205.253906 214.753906 205.285156 215.027344 205.347656 C 213.304688 205.738281 212.015625 207.285156 212.015625 209.128906 L 212.015625 212.679688 L 205.558594 212.679688 L 205.558594 209.128906 C 205.558594 206.988281 207.292969 205.253906 209.433594 205.253906 Z M 214.167969 205.253906 " fill-opacity="1" fill-rule="nonzero"/><path fill="#82dbff" d="M 205.558594 165.875 L 205.558594 162.25 L 212.015625 162.25 L 212.015625 165.875 C 212.015625 167.71875 213.304688 169.261719 215.027344 169.652344 C 214.753906 169.714844 214.464844 169.75 214.167969 169.75 L 209.429688 169.75 C 207.292969 169.75 205.554688 168.015625 205.554688 165.875 Z M 205.558594 165.875 " fill-opacity="1" fill-rule="nonzero"/><path fill="#ffffff" d="M 259.597656 246.679688 L 259.304688 246.800781 L 259.089844 247.035156 L 258.992188 247.34375 L 258.992188 249.855469 L 259.058594 250.167969 L 259.253906 250.421875 L 259.539062 250.570312 L 259.855469 250.582031 L 260.152344 250.460938 L 260.367188 250.226562 L 260.460938 249.917969 L 260.464844 249.855469 L 260.464844 247.402344 L 260.394531 247.09375 L 260.203125 246.839844 L 259.917969 246.691406 Z M 238.199219 250.011719 L 237.910156 250.144531 L 237.703125 250.382812 L 237.617188 250.691406 L 237.667969 251.007812 L 237.847656 251.269531 L 238.125 251.433594 L 238.183594 251.449219 L 240.195312 251.921875 L 240.515625 251.925781 L 240.804688 251.792969 L 241.015625 251.554688 L 241.097656 251.246094 L 241.046875 250.929688 L 240.867188 250.667969 L 240.589844 250.503906 L 240.53125 250.488281 L 238.519531 250.015625 Z M 243.082031 251.160156 L 242.789062 251.289062 L 242.582031 251.53125 L 242.496094 251.839844 L 242.546875 252.15625 L 242.730469 252.417969 L 243.003906 252.582031 L 243.0625 252.597656 L 245.933594 253.269531 L 246.253906 253.273438 L 246.542969 253.144531 L 246.75 252.902344 L 246.835938 252.59375 L 246.785156 252.277344 L 246.605469 252.015625 L 246.328125 251.851562 L 246.269531 251.835938 L 243.402344 251.164062 Z M 259.597656 252.078125 L 259.304688 252.199219 L 259.089844 252.433594 L 258.992188 252.738281 L 258.992188 255.75 L 259.058594 256.058594 L 259.253906 256.3125 L 259.539062 256.460938 L 259.855469 256.472656 L 260.152344 256.351562 L 260.367188 256.117188 L 260.460938 255.8125 L 260.464844 255.75 L 260.464844 252.800781 L 260.394531 252.492188 L 260.203125 252.238281 L 259.917969 252.089844 Z M 248.816406 252.503906 L 248.527344 252.636719 L 248.320312 252.875 L 248.234375 253.183594 L 248.285156 253.5 L 248.464844 253.761719 L 248.742188 253.925781 L 248.800781 253.941406 L 251.667969 254.613281 L 251.988281 254.617188 L 252.28125 254.488281 L 252.488281 254.246094 L 252.574219 253.9375 L 252.523438 253.625 L 252.339844 253.359375 L 252.066406 253.195312 L 252.007812 253.179688 L 249.136719 252.507812 Z M 254.554688 253.851562 L 254.265625 253.980469 L 254.058594 254.222656 L 253.972656 254.53125 L 254.023438 254.84375 L 254.203125 255.109375 L 254.480469 255.269531 L 254.539062 255.289062 L 257.40625 255.960938 L 257.726562 255.964844 L 258.019531 255.832031 L 258.226562 255.589844 L 258.3125 255.285156 L 258.261719 254.96875 L 258.078125 254.703125 L 257.804688 254.542969 L 257.746094 254.527344 L 254.875 253.851562 Z M 254.554688 253.851562 " fill-opacity="1" fill-rule="evenodd"/><g clip-path="url(#4d8f1b619c)"><path fill="#ffffff" d="M 259.597656 211.859375 L 259.304688 211.980469 L 259.089844 212.214844 L 259.027344 212.414062 L 258.964844 212.480469 L 258.933594 212.539062 L 257.683594 215.207031 L 257.617188 215.519531 L 257.683594 215.828125 L 257.878906 216.082031 L 258.164062 216.230469 L 258.480469 216.246094 L 258.777344 216.125 L 258.992188 215.886719 L 259.019531 215.832031 L 259.058594 215.746094 L 258.992188 215.960938 L 258.992188 218.96875 L 259.058594 219.28125 L 259.253906 219.53125 L 259.539062 219.679688 L 259.855469 219.691406 L 260.152344 219.570312 L 260.367188 219.335938 L 260.460938 219.03125 L 260.464844 218.96875 L 260.464844 216.019531 L 260.417969 215.816406 L 260.496094 215.917969 L 260.777344 216.070312 L 261.097656 216.085938 L 261.390625 215.96875 L 261.609375 215.734375 L 261.710938 215.433594 L 261.671875 215.117188 L 261.648438 215.058594 L 260.441406 212.371094 L 260.410156 212.328125 L 260.398438 212.273438 L 260.203125 212.019531 L 259.917969 211.871094 Z M 259.714844 214.347656 L 260.226562 215.492188 L 260.199219 215.457031 L 259.917969 215.308594 L 259.597656 215.296875 L 259.304688 215.417969 L 259.117188 215.621094 Z M 262.066406 217.320312 L 261.484375 216.375 L 261.550781 217.671875 L 261.449219 217.972656 L 261.488281 218.289062 L 261.511719 218.347656 L 262.71875 221.035156 L 262.910156 221.292969 L 263.191406 221.445312 L 263.511719 221.460938 L 263.804688 221.34375 L 264.023438 221.109375 L 264.125 220.808594 L 264.085938 220.492188 L 264.0625 220.433594 L 262.855469 217.746094 L 262.664062 217.488281 L 262.382812 217.339844 Z M 256.972656 217.460938 L 256.679688 217.585938 L 256.464844 217.820312 L 256.4375 217.875 L 255.1875 220.542969 L 255.117188 220.855469 L 255.183594 221.167969 L 255.378906 221.421875 L 255.664062 221.566406 L 255.980469 221.582031 L 256.277344 221.460938 L 256.492188 221.226562 L 256.519531 221.167969 L 257.769531 218.5 L 257.839844 218.1875 L 257.773438 217.878906 L 257.578125 217.625 L 258.109375 216.375 Z M 259.597656 221.1875 L 259.304688 221.3125 L 259.089844 221.546875 L 258.992188 221.851562 L 258.992188 224.859375 L 259.058594 225.171875 L 259.253906 225.425781 L 259.539062 225.574219 L 259.855469 225.585938 L 260.152344 225.464844 L 260.367188 225.230469 L 260.460938 224.921875 L 260.464844 224.859375 L 260.464844 221.914062 L 260.394531 221.601562 L 260.203125 221.347656 L 259.917969 221.203125 Z M 264.484375 222.695312 L 264.1875 222.8125 L 263.96875 223.046875 L 263.867188 223.347656 L 263.90625 223.664062 L 263.929688 223.722656 L 265.136719 226.410156 L 265.328125 226.667969 L 265.609375 226.816406 L 265.929688 226.835938 L 266.222656 226.71875 L 266.441406 226.484375 L 266.542969 226.183594 L 266.503906 225.867188 L 266.480469 225.808594 L 265.273438 223.121094 L 265.082031 222.863281 L 264.800781 222.714844 Z M 254.476562 222.800781 L 254.179688 222.921875 L 253.964844 223.15625 L 253.9375 223.210938 L 252.6875 225.878906 L 252.617188 226.191406 L 252.6875 226.503906 L 252.882812 226.757812 L 253.164062 226.90625 L 253.484375 226.917969 L 253.777344 226.796875 L 253.996094 226.5625 L 254.023438 226.507812 L 255.273438 223.839844 L 255.34375 223.527344 L 255.273438 223.214844 L 255.078125 222.960938 L 254.796875 222.8125 Z M 259.597656 227.082031 L 259.304688 227.203125 L 259.089844 227.441406 L 258.992188 227.746094 L 258.992188 230.753906 L 259.058594 231.066406 L 259.253906 231.320312 L 259.539062 231.464844 L 259.855469 231.480469 L 260.152344 231.355469 L 260.367188 231.121094 L 260.460938 230.816406 L 260.464844 230.753906 L 260.464844 227.808594 L 260.394531 227.496094 L 260.203125 227.242188 L 259.917969 227.097656 Z M 266.902344 228.070312 L 266.605469 228.1875 L 266.386719 228.421875 L 266.285156 228.722656 L 266.324219 229.039062 L 266.347656 229.097656 L 267.554688 231.785156 L 267.746094 232.042969 L 268.027344 232.191406 L 268.347656 232.210938 L 268.640625 232.09375 L 268.859375 231.859375 L 268.960938 231.558594 L 268.921875 231.242188 L 268.898438 231.183594 L 267.691406 228.496094 L 267.5 228.238281 L 267.21875 228.089844 Z M 251.976562 228.136719 L 251.679688 228.257812 L 251.464844 228.492188 L 251.4375 228.550781 L 250.1875 231.21875 L 250.121094 231.53125 L 250.1875 231.839844 L 250.382812 232.09375 L 250.667969 232.242188 L 250.984375 232.257812 L 251.28125 232.132812 L 251.496094 231.898438 L 251.523438 231.84375 L 252.773438 229.175781 L 252.84375 228.863281 L 252.773438 228.550781 L 252.582031 228.296875 L 252.296875 228.152344 Z M 259.597656 232.976562 L 259.304688 233.097656 L 259.089844 233.335938 L 258.992188 233.640625 L 258.992188 236.648438 L 259.058594 236.960938 L 259.253906 237.214844 L 259.539062 237.359375 L 259.855469 237.371094 L 260.152344 237.25 L 260.367188 237.015625 L 260.460938 236.710938 L 260.464844 236.648438 L 260.464844 233.703125 L 260.394531 233.390625 L 260.203125 233.136719 L 259.917969 232.988281 Z M 269.316406 233.445312 L 269.019531 233.5625 L 268.804688 233.796875 L 268.703125 234.097656 L 268.742188 234.414062 L 268.765625 234.472656 L 269.972656 237.160156 L 270.164062 237.417969 L 270.445312 237.566406 L 270.761719 237.585938 L 271.058594 237.46875 L 271.277344 237.234375 L 271.375 236.933594 L 271.339844 236.617188 L 271.316406 236.558594 L 270.105469 233.871094 L 269.914062 233.613281 L 269.636719 233.460938 Z M 249.476562 233.472656 L 249.183594 233.59375 L 248.964844 233.832031 L 248.9375 233.886719 L 247.6875 236.554688 L 247.621094 236.867188 L 247.6875 237.179688 L 247.882812 237.429688 L 248.164062 237.578125 L 248.484375 237.59375 L 248.777344 237.472656 L 248.996094 237.238281 L 249.023438 237.179688 L 250.273438 234.511719 L 250.34375 234.199219 L 250.273438 233.890625 L 250.082031 233.636719 L 249.796875 233.488281 Z M 246.976562 238.808594 L 246.683594 238.933594 L 246.464844 239.167969 L 246.4375 239.222656 L 245.1875 241.890625 L 245.117188 242.203125 L 245.1875 242.515625 L 245.382812 242.769531 L 245.664062 242.917969 L 245.984375 242.929688 L 246.277344 242.808594 L 246.492188 242.574219 L 246.523438 242.519531 L 247.773438 239.847656 L 247.839844 239.539062 L 247.773438 239.226562 L 247.578125 238.972656 L 247.296875 238.824219 Z M 271.734375 238.820312 L 271.4375 238.9375 L 271.222656 239.171875 L 271.121094 239.472656 L 271.160156 239.789062 L 271.183594 239.847656 L 272.390625 242.535156 L 272.582031 242.792969 L 272.863281 242.941406 L 273.179688 242.960938 L 273.476562 242.84375 L 273.695312 242.609375 L 273.792969 242.308594 L 273.757812 241.992188 L 273.734375 241.933594 L 272.523438 239.242188 L 272.332031 238.988281 L 272.054688 238.835938 Z M 259.597656 238.867188 L 259.304688 238.992188 L 259.089844 239.226562 L 258.992188 239.53125 L 258.992188 242.542969 L 259.058594 242.851562 L 259.253906 243.105469 L 259.539062 243.253906 L 259.855469 243.265625 L 260.152344 243.144531 L 260.367188 242.910156 L 260.460938 242.601562 L 260.464844 242.542969 L 260.464844 239.59375 L 260.394531 239.28125 L 260.203125 239.03125 L 259.917969 238.882812 Z M 244.476562 244.148438 L 244.183594 244.269531 L 243.964844 244.507812 L 243.9375 244.5625 L 242.773438 247.046875 L 240.429688 248.535156 L 240.203125 248.757812 L 240.097656 249.058594 L 240.121094 249.375 L 240.28125 249.652344 L 240.542969 249.835938 L 240.859375 249.890625 L 241.164062 249.808594 L 241.21875 249.777344 L 243.707031 248.199219 L 243.753906 248.15625 L 243.777344 248.144531 L 243.820312 248.097656 L 244.113281 248.191406 L 247.125 248.191406 L 247.433594 248.121094 L 247.6875 247.925781 L 247.835938 247.640625 L 247.847656 247.324219 L 247.726562 247.027344 L 247.488281 246.8125 L 247.183594 246.71875 L 247.121094 246.714844 L 244.554688 246.71875 L 245.273438 245.1875 L 245.339844 244.875 L 245.273438 244.5625 L 245.078125 244.308594 L 244.792969 244.160156 Z M 274.152344 244.195312 L 273.855469 244.3125 L 273.636719 244.542969 L 273.539062 244.847656 L 273.574219 245.164062 L 273.597656 245.222656 L 274.257812 246.691406 L 271.761719 246.695312 L 271.449219 246.765625 L 271.195312 246.957031 L 271.050781 247.242188 L 271.035156 247.5625 L 271.160156 247.855469 L 271.394531 248.070312 L 271.703125 248.164062 L 271.765625 248.167969 L 274.710938 248.164062 L 274.957031 248.109375 L 275 248.167969 L 275.105469 248.226562 L 275.15625 248.285156 L 275.207031 248.324219 L 277.671875 249.933594 L 277.972656 250.046875 L 278.289062 250.023438 L 278.566406 249.867188 L 278.753906 249.605469 L 278.8125 249.292969 L 278.734375 248.984375 L 278.53125 248.738281 L 278.480469 248.699219 L 276.070312 247.125 L 274.945312 244.617188 L 274.753906 244.363281 L 274.472656 244.210938 Z M 259.597656 244.761719 L 259.304688 244.886719 L 259.089844 245.121094 L 258.992188 245.425781 L 258.992188 246.707031 L 256.371094 246.707031 L 256.058594 246.777344 L 255.804688 246.972656 L 255.65625 247.253906 L 255.644531 247.574219 L 255.769531 247.871094 L 256.003906 248.082031 L 256.308594 248.179688 L 262.457031 248.179688 L 262.769531 248.109375 L 263.023438 247.914062 L 263.171875 247.628906 L 263.183594 247.3125 L 263.058594 247.015625 L 262.824219 246.800781 L 262.519531 246.707031 L 262.457031 246.703125 L 260.464844 246.707031 L 260.464844 245.488281 L 260.394531 245.175781 L 260.199219 244.925781 L 259.917969 244.777344 Z M 268.652344 246.699219 L 265.707031 246.699219 L 265.394531 246.769531 L 265.140625 246.964844 L 264.996094 247.25 L 264.984375 247.566406 L 265.105469 247.863281 L 265.34375 248.078125 L 265.648438 248.171875 L 265.710938 248.175781 L 268.65625 248.171875 L 268.96875 248.101562 L 269.222656 247.90625 L 269.367188 247.625 L 269.382812 247.304688 L 269.257812 247.007812 L 269.019531 246.792969 L 268.714844 246.699219 Z M 253.292969 246.710938 L 250.34375 246.710938 L 250.035156 246.78125 L 249.78125 246.976562 L 249.632812 247.261719 L 249.621094 247.578125 L 249.742188 247.875 L 249.980469 248.089844 L 250.285156 248.183594 L 250.347656 248.1875 L 253.292969 248.183594 L 253.605469 248.113281 L 253.859375 247.917969 L 254.007812 247.636719 L 254.019531 247.316406 L 253.894531 247.023438 L 253.660156 246.808594 L 253.355469 246.710938 Z M 238.304688 250 L 237.996094 250.082031 L 237.941406 250.113281 L 235.453125 251.691406 L 235.226562 251.914062 L 235.117188 252.214844 L 235.144531 252.535156 L 235.304688 252.808594 L 235.566406 252.992188 L 235.878906 253.050781 L 236.1875 252.964844 L 236.242188 252.933594 L 238.730469 251.355469 L 238.957031 251.132812 L 239.066406 250.832031 L 239.039062 250.515625 L 238.878906 250.238281 L 238.617188 250.054688 Z M 280.648438 250.203125 L 280.328125 250.226562 L 280.050781 250.382812 L 279.867188 250.644531 L 279.808594 250.957031 L 279.886719 251.265625 L 280.089844 251.511719 L 280.140625 251.550781 L 282.605469 253.160156 L 282.902344 253.273438 L 283.222656 253.25 L 283.5 253.09375 L 283.6875 252.832031 L 283.746094 252.519531 L 283.664062 252.210938 L 283.460938 251.964844 L 283.410156 251.925781 L 280.945312 250.3125 Z M 233.328125 253.15625 L 233.019531 253.238281 L 232.964844 253.269531 L 230.476562 254.847656 L 230.25 255.074219 L 230.140625 255.371094 L 230.167969 255.691406 L 230.328125 255.96875 L 230.589844 256.148438 L 230.902344 256.207031 L 231.210938 256.121094 L 231.265625 256.089844 L 233.753906 254.515625 L 233.980469 254.289062 L 234.089844 253.988281 L 234.0625 253.671875 L 233.902344 253.394531 L 233.640625 253.210938 Z M 285.578125 253.425781 L 285.261719 253.453125 L 284.984375 253.609375 L 284.796875 253.867188 L 284.738281 254.183594 L 284.816406 254.492188 L 285.019531 254.738281 L 285.070312 254.773438 L 287.539062 256.386719 L 287.835938 256.5 L 288.152344 256.476562 L 288.433594 256.320312 L 288.617188 256.058594 L 288.675781 255.746094 L 288.597656 255.4375 L 288.394531 255.1875 L 288.34375 255.152344 L 285.878906 253.539062 Z M 285.578125 253.425781 " fill-opacity="1" fill-rule="evenodd"/></g><g clip-path="url(#25b3dd52ed)"><path fill="#82dbff" d="M 259.730469 211.828125 C 259.449219 211.828125 259.195312 211.984375 259.066406 212.234375 L 229.761719 255.371094 C 229.535156 255.707031 229.621094 256.164062 229.960938 256.394531 C 229.972656 256.402344 229.988281 256.410156 230 256.421875 L 244.683594 265.050781 C 244.796875 265.117188 244.925781 265.152344 245.058594 265.152344 L 273.683594 265.152344 C 273.8125 265.152344 273.941406 265.117188 274.054688 265.054688 L 288.613281 256.554688 C 288.964844 256.351562 289.082031 255.898438 288.875 255.546875 C 288.871094 255.535156 288.863281 255.527344 288.855469 255.515625 L 260.386719 212.242188 C 260.261719 211.992188 260.007812 211.832031 259.730469 211.828125 Z M 259.707031 215.332031 L 272.71875 263.679688 L 246.007812 263.679688 Z M 257.769531 216.765625 L 244.589844 263.285156 L 231.425781 255.550781 Z M 261.632812 216.8125 L 287.195312 255.671875 L 274.140625 263.296875 Z M 261.632812 216.8125 " fill-opacity="1" fill-rule="evenodd"/></g><g fill="#ffffff" fill-opacity="1"><g transform="translate(165.990229, 295.317343)"><g><path d="M 1 0 L 1 -8.375 L 2.375 -8.375 L 5.453125 -1.390625 L 8.46875 -8.375 L 9.78125 -8.375 L 9.78125 0 L 8.8125 0 L 8.8125 -6.875 L 5.84375 0 L 4.984375 0 L 1.96875 -6.875 L 1.96875 0 Z M 1 0 "/></g></g><g transform="translate(176.771478, 295.317343)"><g><path d="M 1.265625 0 L 0.140625 0 L 3.703125 -8.375 L 4.90625 -8.375 L 8.484375 0 L 7.28125 0 L 6.1875 -2.640625 L 3.421875 -2.640625 L 3.71875 -3.515625 L 5.828125 -3.515625 L 4.265625 -7.3125 Z M 1.265625 0 "/></g></g><g transform="translate(185.396478, 295.317343)"><g><path d="M 6.65625 -8.375 L 6.65625 -7.5 L 4.015625 -7.5 L 4.015625 0 L 2.9375 0 L 2.9375 -7.5 L 0.296875 -7.5 L 0.296875 -8.375 Z M 6.65625 -8.375 "/></g></g><g transform="translate(192.339836, 295.317343)"><g><path d="M 1 0 L 1 -8.375 L 2.078125 -8.375 L 2.078125 -4.6875 L 7.03125 -4.6875 L 7.03125 -8.375 L 8.109375 -8.375 L 8.109375 0 L 7.03125 0 L 7.03125 -3.8125 L 2.078125 -3.8125 L 2.078125 0 Z M 1 0 "/></g></g><g transform="translate(201.451164, 295.317343)"><g><path d="M 0.875 -0.296875 L 0.875 -1.296875 C 1.757812 -0.984375 2.710938 -0.828125 3.734375 -0.828125 C 5.171875 -0.828125 5.890625 -1.351562 5.890625 -2.40625 C 5.890625 -3.300781 5.359375 -3.75 4.296875 -3.75 L 3.21875 -3.75 C 1.46875 -3.75 0.59375 -4.507812 0.59375 -6.03125 C 0.59375 -7.632812 1.710938 -8.4375 3.953125 -8.4375 C 4.929688 -8.4375 5.84375 -8.320312 6.6875 -8.09375 L 6.6875 -7.09375 C 5.84375 -7.40625 4.929688 -7.5625 3.953125 -7.5625 C 2.429688 -7.5625 1.671875 -7.050781 1.671875 -6.03125 C 1.671875 -5.132812 2.1875 -4.6875 3.21875 -4.6875 L 4.296875 -4.6875 C 6.078125 -4.6875 6.96875 -3.925781 6.96875 -2.40625 C 6.96875 -0.757812 5.890625 0.0625 3.734375 0.0625 C 2.710938 0.0625 1.757812 -0.0546875 0.875 -0.296875 Z M 0.875 -0.296875 "/></g></g></g><g clip-path="url(#85a571f68f)"><path fill="#82dbff" d="M 277.667969 191.285156 C 277.457031 202.855469 274.984375 214.308594 270.484375 224.878906 C 265.980469 235.445312 259.519531 245.171875 251.425781 253.335938 C 243.351562 261.5 233.671875 268.125 223.082031 272.675781 C 217.785156 274.960938 212.257812 276.734375 206.613281 277.945312 C 200.96875 279.183594 195.183594 279.859375 189.375 279.976562 C 183.566406 280.09375 177.734375 279.648438 171.996094 278.648438 C 166.257812 277.667969 160.589844 276.082031 155.105469 273.980469 C 144.167969 269.78125 133.996094 263.390625 125.410156 255.226562 C 121.117188 251.144531 117.222656 246.640625 113.792969 241.765625 L 112.535156 239.921875 L 111.90625 238.992188 C 111.695312 238.6875 111.484375 238.382812 111.296875 238.058594 L 110.132812 236.144531 L 109.546875 235.1875 L 109.269531 234.722656 L 108.988281 234.253906 L 107.914062 232.296875 L 107.378906 231.316406 L 107.121094 230.824219 L 106.890625 230.3125 L 105.910156 228.285156 L 105.417969 227.28125 C 105.351562 227.117188 105.257812 226.953125 105.1875 226.765625 L 104.976562 226.253906 L 104.113281 224.179688 C 103.832031 223.476562 103.507812 222.800781 103.273438 222.101562 L 102.503906 220.003906 C 102.246094 219.300781 101.96875 218.601562 101.78125 217.878906 L 101.128906 215.734375 L 100.800781 214.660156 C 100.753906 214.472656 100.683594 214.308594 100.636719 214.125 L 100.496094 213.585938 L 99.9375 211.394531 L 99.65625 210.296875 L 99.519531 209.761719 L 99.402344 209.203125 C 98.117188 203.347656 97.417969 197.328125 97.324219 191.308594 C 97.117188 179.273438 99.355469 167.144531 103.925781 155.921875 C 108.476562 144.703125 115.308594 134.414062 123.871094 125.832031 C 128.164062 121.539062 132.875 117.691406 137.9375 114.355469 L 139.851562 113.140625 L 140.808594 112.535156 C 141.132812 112.324219 141.4375 112.136719 141.785156 111.949219 L 143.769531 110.832031 L 144.75 110.269531 L 145.238281 109.992188 L 145.753906 109.734375 L 147.78125 108.707031 L 148.808594 108.195312 L 149.320312 107.9375 L 149.835938 107.707031 L 151.910156 106.796875 L 152.960938 106.328125 C 153.125 106.257812 153.308594 106.164062 153.472656 106.097656 L 154.011719 105.886719 L 156.132812 105.070312 C 156.832031 104.8125 157.53125 104.507812 158.253906 104.300781 L 160.402344 103.601562 C 161.125 103.367188 161.824219 103.109375 162.570312 102.945312 L 164.765625 102.363281 L 165.859375 102.058594 C 166.046875 102.011719 166.234375 101.96875 166.398438 101.921875 L 166.957031 101.804688 L 169.171875 101.3125 L 170.269531 101.082031 L 170.828125 100.964844 L 171.390625 100.871094 C 177.335938 99.796875 183.355469 99.308594 189.375 99.425781 C 201.386719 99.65625 213.308594 102.339844 224.203125 107.214844 C 235.070312 112.089844 244.914062 119.089844 252.988281 127.648438 C 257.023438 131.941406 260.636719 136.609375 263.765625 141.554688 C 266.890625 146.5 269.527344 151.746094 271.625 157.183594 C 275.824219 168.097656 277.878906 179.738281 277.667969 191.285156 Z M 276.289062 191.285156 C 276.175781 185.59375 275.519531 179.925781 274.285156 174.398438 C 273.046875 168.871094 271.300781 163.457031 268.988281 158.300781 C 264.417969 147.96875 257.769531 138.660156 249.628906 130.984375 C 241.488281 123.335938 231.898438 117.316406 221.589844 113.421875 C 216.433594 111.460938 211.089844 110.015625 205.703125 109.082031 L 203.671875 108.777344 L 202.648438 108.617188 L 202.132812 108.546875 C 201.972656 108.523438 201.785156 108.5 201.621094 108.5 L 199.566406 108.289062 L 198.542969 108.195312 C 198.191406 108.171875 197.863281 108.125 197.515625 108.101562 C 196.140625 108.03125 194.785156 107.9375 193.410156 107.890625 L 189.304688 107.890625 L 185.269531 108.101562 C 183.914062 108.21875 182.5625 108.359375 181.1875 108.476562 C 180.835938 108.5 180.511719 108.570312 180.183594 108.617188 L 179.179688 108.753906 L 177.152344 109.058594 C 176.988281 109.082031 176.824219 109.105469 176.636719 109.128906 L 176.148438 109.222656 L 175.144531 109.433594 L 173.136719 109.828125 L 172.648438 109.921875 L 172.160156 110.039062 L 171.179688 110.269531 L 169.195312 110.761719 L 168.707031 110.878906 C 168.542969 110.925781 168.378906 110.972656 168.214844 111.019531 L 167.238281 111.320312 L 165.277344 111.90625 C 164.625 112.089844 163.996094 112.347656 163.339844 112.558594 L 161.429688 113.234375 C 160.773438 113.445312 160.167969 113.722656 159.539062 113.980469 L 157.648438 114.75 L 157.183594 114.9375 C 157.019531 115.007812 156.878906 115.078125 156.714844 115.148438 L 155.804688 115.566406 L 153.964844 116.429688 L 153.496094 116.640625 L 153.054688 116.875 L 152.144531 117.339844 L 150.347656 118.273438 L 149.90625 118.507812 L 149.460938 118.761719 L 148.574219 119.277344 L 146.824219 120.300781 C 146.523438 120.464844 146.242188 120.652344 145.960938 120.839844 L 145.121094 121.398438 L 143.417969 122.496094 C 138.941406 125.527344 134.742188 129.003906 130.917969 132.828125 C 123.265625 140.480469 117.105469 149.625 112.859375 159.585938 C 110.738281 164.578125 109.105469 169.753906 107.984375 175.074219 C 106.867188 180.394531 106.257812 185.804688 106.144531 191.261719 C 106.050781 196.722656 106.492188 202.179688 107.425781 207.570312 L 107.496094 208.082031 L 107.589844 208.59375 L 107.800781 209.597656 L 108.21875 211.605469 L 108.3125 212.117188 C 108.359375 212.28125 108.40625 212.445312 108.429688 212.609375 L 108.6875 213.609375 L 109.199219 215.59375 C 109.363281 216.269531 109.59375 216.898438 109.78125 217.554688 L 110.386719 219.511719 C 110.574219 220.164062 110.832031 220.820312 111.066406 221.449219 L 111.765625 223.382812 L 111.953125 223.875 C 112.019531 224.039062 112.089844 224.199219 112.136719 224.339844 L 112.535156 225.296875 L 113.328125 227.1875 L 113.539062 227.652344 L 113.769531 228.121094 L 114.214844 229.054688 L 115.101562 230.917969 L 115.332031 231.386719 L 115.589844 231.828125 L 116.082031 232.738281 L 117.058594 234.558594 C 117.222656 234.863281 117.386719 235.164062 117.574219 235.445312 L 118.109375 236.332031 L 119.183594 238.105469 C 122.121094 242.769531 125.527344 247.179688 129.351562 251.214844 C 136.980469 259.285156 146.265625 265.886719 156.507812 270.457031 C 161.636719 272.746094 167.003906 274.519531 172.507812 275.753906 C 178.015625 276.992188 183.660156 277.667969 189.328125 277.785156 C 194.996094 277.875 200.6875 277.457031 206.285156 276.453125 C 211.882812 275.425781 217.390625 273.863281 222.683594 271.765625 C 233.277344 267.542969 243.050781 261.152344 251.191406 253.101562 C 259.332031 245.054688 265.863281 235.351562 270.15625 224.714844 C 272.300781 219.417969 273.886719 213.890625 274.914062 208.269531 C 275.941406 202.695312 276.382812 196.976562 276.289062 191.285156 Z M 276.289062 191.285156 " fill-opacity="1" fill-rule="nonzero"/></g><g clip-path="url(#23d6d29006)"><path fill="#82dbff" d="M 277.667969 191.285156 C 277.457031 202.855469 274.984375 214.308594 270.484375 224.878906 C 265.980469 235.445312 259.519531 245.171875 251.425781 253.335938 C 243.351562 261.5 233.671875 268.125 223.082031 272.675781 C 217.785156 274.960938 212.257812 276.734375 206.613281 277.945312 C 200.96875 279.183594 195.183594 279.859375 189.375 279.976562 C 183.566406 280.09375 177.734375 279.648438 171.996094 278.648438 C 166.257812 277.667969 160.589844 276.082031 155.105469 273.980469 C 144.167969 269.78125 133.996094 263.390625 125.410156 255.226562 C 121.117188 251.144531 117.222656 246.640625 113.792969 241.765625 L 112.535156 239.921875 L 111.90625 238.992188 C 111.695312 238.6875 111.484375 238.382812 111.296875 238.058594 L 110.132812 236.144531 L 109.546875 235.1875 L 109.269531 234.722656 L 108.988281 234.253906 L 107.914062 232.296875 L 107.378906 231.316406 L 107.121094 230.824219 L 106.890625 230.3125 L 105.910156 228.285156 L 105.417969 227.28125 C 105.351562 227.117188 105.257812 226.953125 105.1875 226.765625 L 104.976562 226.253906 L 104.113281 224.179688 C 103.832031 223.476562 103.507812 222.800781 103.273438 222.101562 L 102.503906 220.003906 C 102.246094 219.300781 101.96875 218.601562 101.78125 217.878906 L 101.128906 215.734375 L 100.800781 214.660156 C 100.753906 214.472656 100.683594 214.308594 100.636719 214.125 L 100.496094 213.585938 L 99.9375 211.394531 L 99.65625 210.296875 L 99.519531 209.761719 L 99.402344 209.203125 C 98.117188 203.347656 97.417969 197.328125 97.324219 191.308594 C 97.117188 179.273438 99.355469 167.144531 103.925781 155.921875 C 108.476562 144.703125 115.308594 134.414062 123.871094 125.832031 C 128.164062 121.539062 132.875 117.691406 137.9375 114.355469 L 139.851562 113.140625 L 140.808594 112.535156 C 141.132812 112.324219 141.4375 112.136719 141.785156 111.949219 L 143.769531 110.832031 L 144.75 110.269531 L 145.238281 109.992188 L 145.753906 109.734375 L 147.78125 108.707031 L 148.808594 108.195312 L 149.320312 107.9375 L 149.835938 107.707031 L 151.910156 106.796875 L 152.960938 106.328125 C 153.125 106.257812 153.308594 106.164062 153.472656 106.097656 L 154.011719 105.886719 L 156.132812 105.070312 C 156.832031 104.8125 157.53125 104.507812 158.253906 104.300781 L 160.402344 103.601562 C 161.125 103.367188 161.824219 103.109375 162.570312 102.945312 L 164.765625 102.363281 L 165.859375 102.058594 C 166.046875 102.011719 166.234375 101.96875 166.398438 101.921875 L 166.957031 101.804688 L 169.171875 101.3125 L 170.269531 101.082031 L 170.828125 100.964844 L 171.390625 100.871094 C 177.335938 99.796875 183.355469 99.308594 189.375 99.425781 C 201.386719 99.65625 213.308594 102.339844 224.203125 107.214844 C 235.070312 112.089844 244.914062 119.089844 252.988281 127.648438 C 257.023438 131.941406 260.636719 136.609375 263.765625 141.554688 C 266.890625 146.5 269.527344 151.746094 271.625 157.183594 C 275.824219 168.097656 277.878906 179.738281 277.667969 191.285156 Z M 276.289062 191.285156 C 276.175781 185.59375 275.519531 179.925781 274.285156 174.398438 C 273.046875 168.871094 271.300781 163.457031 268.988281 158.300781 C 264.417969 147.96875 257.769531 138.660156 249.628906 130.984375 C 241.488281 123.335938 231.898438 117.316406 221.589844 113.421875 C 216.433594 111.460938 211.089844 110.015625 205.703125 109.082031 L 203.671875 108.777344 L 202.648438 108.613281 L 202.132812 108.546875 C 201.972656 108.523438 201.785156 108.5 201.621094 108.5 L 199.566406 108.289062 L 198.542969 108.195312 C 198.191406 108.171875 197.863281 108.125 197.515625 108.101562 C 196.140625 108.03125 194.785156 107.9375 193.410156 107.890625 L 189.304688 107.890625 L 185.269531 108.101562 C 183.914062 108.21875 182.5625 108.359375 181.1875 108.476562 C 180.835938 108.5 180.511719 108.570312 180.183594 108.617188 L 179.179688 108.753906 L 177.152344 109.058594 C 176.988281 109.082031 176.824219 109.105469 176.636719 109.128906 L 176.148438 109.222656 L 175.144531 109.433594 L 173.136719 109.828125 L 172.648438 109.921875 L 172.160156 110.039062 L 171.179688 110.269531 L 169.195312 110.761719 L 168.707031 110.878906 C 168.542969 110.925781 168.378906 110.972656 168.214844 111.019531 L 167.238281 111.320312 L 165.277344 111.90625 C 164.625 112.089844 163.996094 112.347656 163.339844 112.558594 L 161.429688 113.234375 C 160.773438 113.445312 160.167969 113.722656 159.539062 113.980469 L 157.648438 114.75 L 157.183594 114.9375 C 157.019531 115.007812 156.878906 115.078125 156.714844 115.148438 L 155.804688 115.566406 L 153.964844 116.429688 L 153.496094 116.640625 L 153.054688 116.871094 L 152.144531 117.339844 L 150.347656 118.273438 L 149.90625 118.507812 L 149.460938 118.761719 L 148.574219 119.277344 L 146.824219 120.300781 C 146.523438 120.464844 146.242188 120.652344 145.960938 120.839844 L 145.121094 121.398438 L 143.417969 122.496094 C 138.941406 125.527344 134.742188 129.003906 130.917969 132.828125 C 123.265625 140.480469 117.105469 149.625 112.859375 159.585938 C 110.738281 164.578125 109.105469 169.753906 107.984375 175.074219 C 106.867188 180.394531 106.257812 185.804688 106.144531 191.261719 C 106.050781 196.722656 106.492188 202.179688 107.425781 207.570312 L 107.496094 208.082031 L 107.589844 208.59375 L 107.800781 209.597656 L 108.21875 211.605469 L 108.3125 212.117188 C 108.359375 212.28125 108.40625 212.445312 108.429688 212.609375 L 108.6875 213.609375 L 109.199219 215.59375 C 109.363281 216.269531 109.59375 216.898438 109.78125 217.554688 L 110.386719 219.511719 C 110.574219 220.164062 110.832031 220.820312 111.066406 221.449219 L 111.765625 223.382812 L 111.953125 223.875 C 112.019531 224.039062 112.089844 224.199219 112.136719 224.339844 L 112.535156 225.296875 L 113.328125 227.1875 L 113.539062 227.652344 L 113.769531 228.121094 L 114.214844 229.054688 L 115.101562 230.917969 L 115.332031 231.386719 L 115.589844 231.828125 L 116.082031 232.738281 L 117.058594 234.558594 C 117.222656 234.863281 117.386719 235.164062 117.574219 235.445312 L 118.109375 236.332031 L 119.183594 238.105469 C 122.121094 242.769531 125.527344 247.179688 129.351562 251.214844 C 136.980469 259.285156 146.265625 265.886719 156.507812 270.457031 C 161.636719 272.746094 167.003906 274.519531 172.507812 275.753906 C 178.015625 276.992188 183.660156 277.667969 189.328125 277.785156 C 194.996094 277.875 200.6875 277.457031 206.285156 276.453125 C 211.882812 275.425781 217.390625 273.863281 222.683594 271.765625 C 233.277344 267.542969 243.050781 261.152344 251.191406 253.101562 C 259.332031 245.054688 265.863281 235.351562 270.15625 224.714844 C 272.300781 219.417969 273.886719 213.890625 274.914062 208.269531 C 275.941406 202.695312 276.382812 196.976562 276.289062 191.285156 Z M 276.289062 191.285156 " fill-opacity="1" fill-rule="nonzero"/></g><g clip-path="url(#caa4e100d7)"><g clip-path="url(#27119d1fd5)"><g transform="matrix(1, 0, 0, 1, 105, 295)"><g clip-path="url(#c70709d1d7)"><g clip-path="url(#c57c20483b)"><g clip-path="url(#de922b46d2)"><path fill="#ffffff" d="M 0.832031 0.535156 L 6.816406 0.535156 L 6.816406 6.519531 L 0.832031 6.519531 Z M 0.832031 0.535156 " fill-opacity="1" fill-rule="nonzero"/></g></g></g></g></g></g><g clip-path="url(#ac872a3d56)"><g clip-path="url(#b48760006b)"><g transform="matrix(1, 0, 0, 1, 178, 303)"><g clip-path="url(#ccce2dc571)"><g clip-path="url(#145fb558ad)"><g clip-path="url(#63b5c1b544)"><path fill="#ffffff" d="M 0.28125 0.0351562 L 6.265625 0.0351562 L 6.265625 6.019531 L 0.28125 6.019531 Z M 0.28125 0.0351562 " fill-opacity="1" fill-rule="nonzero"/></g></g></g></g></g></g><g clip-path="url(#042c0b7aa4)"><g clip-path="url(#e01274737b)"><g transform="matrix(1, 0, 0, 1, 213, 278)"><g clip-path="url(#80f3dea9a8)"><g clip-path="url(#54a8cf2028)"><g clip-path="url(#c78c12f6fa)"><path fill="#ffffff" d="M 0.546875 0.441406 L 6.53125 0.441406 L 6.53125 6.425781 L 0.546875 6.425781 Z M 0.546875 0.441406 " fill-opacity="1" fill-rule="nonzero"/></g></g></g></g></g></g><g clip-path="url(#ee097db686)"><g clip-path="url(#2992fbe04f)"><g transform="matrix(1, 0, 0, 1, 285, 285)"><g clip-path="url(#9f1e89d171)"><g clip-path="url(#7d05710318)"><g clip-path="url(#8d433fd2fd)"><path fill="#ffffff" d="M 0.695312 0.941406 L 6.679688 0.941406 L 6.679688 6.925781 L 0.695312 6.925781 Z M 0.695312 0.941406 " fill-opacity="1" fill-rule="nonzero"/></g></g></g></g></g></g><g clip-path="url(#6661d3d371)"><g clip-path="url(#a2319aa3e8)"><path stroke-linecap="butt" transform="matrix(0.75, 0, 0, 0.75, 124.274996, 301.683878)" fill="none" stroke-linejoin="miter" d="M 2.685422 -0.000378719 C 1.201047 -0.000378719 -0.00207845 1.202746 -0.00207845 2.687121 C -0.00207845 4.171497 1.201047 5.374622 2.685422 5.374622 C 4.169797 5.374622 5.372922 4.171497 5.372922 2.687121 C 5.372922 1.202746 4.169797 -0.000378719 2.685422 -0.000378719 Z M 2.685422 -0.000378719 " stroke="#ffffff" stroke-width="4" stroke-opacity="1" stroke-miterlimit="4"/></g></g><g clip-path="url(#e0dfdc9244)"><g clip-path="url(#1b59b84baf)"><path stroke-linecap="butt" transform="matrix(0.75, 0, 0, 0.75, 171.074993, 309.483877)" fill="none" stroke-linejoin="miter" d="M 2.686467 0.00066363 C 1.202092 0.00066363 -0.00103269 1.203789 -0.00103269 2.688164 C -0.00103269 4.172539 1.202092 5.375664 2.686467 5.375664 C 4.170843 5.375664 5.373968 4.172539 5.373968 2.688164 C 5.373968 1.203789 4.170843 0.00066363 2.686467 0.00066363 Z M 2.686467 0.00066363 " stroke="#ffffff" stroke-width="4" stroke-opacity="1" stroke-miterlimit="4"/></g></g><g clip-path="url(#80afb005b9)"><g clip-path="url(#3a13ee0a80)"><path stroke-linecap="butt" transform="matrix(0.75, 0, 0, 0.75, 164.774994, 313.533877)" fill="none" stroke-linejoin="miter" d="M 2.685425 0.00170565 C 1.20105 0.00170565 -0.00207491 1.204831 -0.00207491 2.689206 C -0.00207491 4.173581 1.20105 5.376706 2.685425 5.376706 C 4.1698 5.376706 5.372925 4.173581 5.372925 2.689206 C 5.372925 1.204831 4.1698 0.00170565 2.685425 0.00170565 Z M 2.685425 0.00170565 " stroke="#ffffff" stroke-width="4" stroke-opacity="1" stroke-miterlimit="4"/></g></g><g clip-path="url(#93cb78f2b0)"><g clip-path="url(#d5ceb99db1)"><path stroke-linecap="butt" transform="matrix(0.75, 0, 0, 0.75, 185.924992, 317.433877)" fill="none" stroke-linejoin="miter" d="M 2.688552 -0.00037734 C 1.204177 -0.00037734 0.00105195 1.202748 0.00105195 2.687123 C 0.00105195 4.171498 1.204177 5.374623 2.688552 5.374623 C 4.172927 5.374623 5.376052 4.171498 5.376052 2.687123 C 5.376052 1.202748 4.172927 -0.00037734 2.688552 -0.00037734 Z M 2.688552 -0.00037734 " stroke="#ffffff" stroke-width="4" stroke-opacity="1" stroke-miterlimit="4"/></g></g><g clip-path="url(#2753931d16)"><g clip-path="url(#9ac6425f65)"><path stroke-linecap="butt" transform="matrix(0.75, 0, 0, 0.75, 223.724975, 305.733878)" fill="none" stroke-linejoin="miter" d="M 2.689616 0.000663302 C 1.205241 0.000663302 0.00211612 1.203788 0.00211612 2.688163 C 0.00211612 4.172539 1.205241 5.375664 2.689616 5.375664 C 4.173991 5.375664 5.377116 4.172539 5.377116 2.688163 C 5.377116 1.203788 4.173991 0.000663302 2.689616 0.000663302 Z M 2.689616 0.000663302 " stroke="#ffffff" stroke-width="4" stroke-opacity="1" stroke-miterlimit="4"/></g></g><g clip-path="url(#f4f98d141c)"><g clip-path="url(#a2cb016fab)"><path stroke-linecap="butt" transform="matrix(0.75, 0, 0, 0.75, 222.53807, 274.242344)" fill="none" stroke-linejoin="miter" d="M 2.688824 -0.000209189 C 1.204449 -0.000209189 0.00132348 1.202916 0.00132348 2.687291 C 0.00132348 4.171666 1.204449 5.374791 2.688824 5.374791 C 4.173199 5.374791 5.376324 4.171666 5.376324 2.687291 C 5.376324 1.202916 4.173199 -0.000209189 2.688824 -0.000209189 Z M 2.688824 -0.000209189 " stroke="#ffffff" stroke-width="4" stroke-opacity="1" stroke-miterlimit="4"/></g></g><g clip-path="url(#5ea41ca0d1)"><g clip-path="url(#e19512d1aa)"><path stroke-linecap="butt" transform="matrix(0.75, 0, 0, 0.75, 269.488084, 282.042375)" fill="none" stroke-linejoin="miter" d="M 2.687764 0.000791561 C 1.203389 0.000791561 0.000263529 1.203917 0.000263529 2.688292 C 0.000263529 4.172667 1.203389 5.375792 2.687764 5.375792 C 4.172139 5.375792 5.375264 4.172667 5.375264 2.688292 C 5.375264 1.203917 4.172139 0.000791561 2.687764 0.000791561 Z M 2.687764 0.000791561 " stroke="#ffffff" stroke-width="4" stroke-opacity="1" stroke-miterlimit="4"/></g></g><path stroke-linecap="butt" transform="matrix(0.749993, -0.00315288, 0.00315288, 0.749993, 109.640666, 297.333878)" fill="none" stroke-linejoin="miter" d="M -0.00114192 1.497546 L 47.577399 1.499642 " stroke="#ffffff" stroke-width="3" stroke-opacity="1" stroke-miterlimit="4"/><path stroke-linecap="butt" transform="matrix(0.749994, -0.00310074, 0.00310074, 0.749994, 252.453826, 288.042375)" fill="none" stroke-linejoin="miter" d="M -0.00193049 1.500797 L 48.373499 1.497672 " stroke="#ffffff" stroke-width="3" stroke-opacity="1" stroke-miterlimit="4"/><path stroke-linecap="butt" transform="matrix(0.75, -0.000000000000001116, 0.000000000000001116, 0.75, 216.608457, 280.542375)" fill="none" stroke-linejoin="miter" d="M 0.00122337 1.500792 L 36.975184 1.500792 " stroke="#ffffff" stroke-width="3" stroke-opacity="1" stroke-miterlimit="4"/><path stroke-linecap="butt" transform="matrix(0.75, 0, 0, 0.75, 152.995379, 304.983878)" fill="none" stroke-linejoin="miter" d="M 0.000952662 1.500663 L 37.573872 1.500663 " stroke="#ffffff" stroke-width="3" stroke-opacity="1" stroke-miterlimit="4"/><path stroke-linecap="butt" transform="matrix(0.749988, 0.00428829, -0.00428829, 0.749988, 197.704268, 306.969561)" fill="none" stroke-linejoin="miter" d="M -0.00102111 0.998941 L 34.978737 1.002062 " stroke="#ffffff" stroke-width="2" stroke-opacity="1" stroke-miterlimit="4"/><path stroke-linecap="butt" transform="matrix(0.749983, -0.00500349, 0.00500349, 0.749983, 225.158061, 275.477999)" fill="none" stroke-linejoin="miter" d="M 0.00134339 0.998116 L 29.981164 1.000205 " stroke="#ffffff" stroke-width="2" stroke-opacity="1" stroke-miterlimit="4"/><path stroke-linecap="butt" transform="matrix(0.75, 0, 0, 0.75, 167.399994, 314.919529)" fill="none" stroke-linejoin="miter" d="M -0.00207468 0.99792 L 29.779177 0.99792 " stroke="#ffffff" stroke-width="2" stroke-opacity="1" stroke-miterlimit="4"/><path stroke-linecap="butt" transform="matrix(0.749958, -0.00790328, 0.00790328, 0.749958, 127.492086, 302.91953)" fill="none" stroke-linejoin="miter" d="M 0.0000360053 0.997975 L 18.980236 1.000066 " stroke="#ffffff" stroke-width="2" stroke-opacity="1" stroke-miterlimit="4"/><path stroke-linecap="butt" transform="matrix(0.749982, -0.00524859, 0.00524859, 0.749982, 149.994736, 310.71956)" fill="none" stroke-linejoin="miter" d="M 0.0000276046 0.998944 L 28.57884 1.001025 " stroke="#ffffff" stroke-width="2" stroke-opacity="1" stroke-miterlimit="4"/><path stroke-linecap="butt" transform="matrix(0.75, 0, 0, 0.75, 164.999994, 318.519529)" fill="none" stroke-linejoin="miter" d="M 0.00000844667 1.000003 L 28.979177 1.000003 " stroke="#ffffff" stroke-width="2" stroke-opacity="1" stroke-miterlimit="4"/><path stroke-linecap="butt" transform="matrix(0.749962, 0.00750773, -0.00750773, 0.749962, 255.320553, 283.128087)" fill="none" stroke-linejoin="miter" d="M -0.000716003 1.00115 L 19.979432 0.999059 " stroke="#ffffff" stroke-width="2" stroke-opacity="1" stroke-miterlimit="4"/><path stroke-linecap="butt" transform="matrix(0.553453, -0.506152, 0.506152, 0.553453, 188.602156, 315.210215)" fill="none" stroke-linejoin="miter" d="M 0.00280317 0.999043 L 16.382101 1.001485 " stroke="#ffffff" stroke-width="2" stroke-opacity="1" stroke-miterlimit="4"/><path stroke-linecap="butt" transform="matrix(-0.552156, -0.507566, 0.507566, -0.552156, 149.939409, 312.217801)" fill="none" stroke-linejoin="miter" d="M 0.00306024 1.000053 L 16.819086 0.999886 " stroke="#ffffff" stroke-width="2" stroke-opacity="1" stroke-miterlimit="4"/><path stroke-linecap="butt" transform="matrix(-0.552156, -0.507566, 0.507566, -0.552156, 164.789408, 320.167801)" fill="none" stroke-linejoin="miter" d="M -0.00129477 0.998396 L 16.82209 0.998538 " stroke="#ffffff" stroke-width="2" stroke-opacity="1" stroke-miterlimit="4"/><path stroke-linecap="butt" transform="matrix(-0.553288, -0.506332, 0.506332, -0.553288, 255.406337, 284.478437)" fill="none" stroke-linejoin="miter" d="M -0.00194041 1.000633 L 15.975178 1.000849 " stroke="#ffffff" stroke-width="2" stroke-opacity="1" stroke-miterlimit="4"/><path stroke-linecap="butt" transform="matrix(-0.552317, -0.507391, 0.507391, -0.552317, 153.019742, 307.288809)" fill="none" stroke-linejoin="miter" d="M -0.000958487 1.499787 L 16.697321 1.499953 " stroke="#ffffff" stroke-width="3" stroke-opacity="1" stroke-miterlimit="4"/><path stroke-linecap="butt" transform="matrix(-0.573587, -0.483216, 0.483216, -0.573587, 252.370536, 290.229855)" fill="none" stroke-linejoin="miter" d="M 0.000250656 1.496965 L 16.599959 1.500782 " stroke="#ffffff" stroke-width="3" stroke-opacity="1" stroke-miterlimit="4"/></svg>