<svg xmlns="http://www.w3.org/2000/svg" xmlns:xlink="http://www.w3.org/1999/xlink" width="500" zoomAndPan="magnify" viewBox="0 0 375 374.999991" height="500" preserveAspectRatio="xMidYMid meet" version="1.0"><defs><g/><clipPath id="d1d36e3a00"><path d="M 97.105469 99.308594 L 277.855469 99.308594 L 277.855469 207.308594 L 97.105469 207.308594 Z M 97.105469 99.308594 " clip-rule="nonzero"/></clipPath><clipPath id="450311ff1d"><path d="M 232.238281 237.507812 L 266.875 237.507812 L 266.875 273.851562 L 232.238281 273.851562 Z M 232.238281 237.507812 " clip-rule="nonzero"/></clipPath><clipPath id="af18d2abf7"><path d="M 238.125 205.601562 L 292.980469 205.601562 L 292.980469 260.625 L 238.125 260.625 Z M 238.125 205.601562 " clip-rule="nonzero"/></clipPath><clipPath id="de8b45aea9"><path d="M 232.542969 237.140625 L 267.175781 237.140625 L 267.175781 273.488281 L 232.542969 273.488281 Z M 232.542969 237.140625 " clip-rule="nonzero"/></clipPath><clipPath id="15536e5b62"><path d="M 238.429688 205.238281 L 293.285156 205.238281 L 293.285156 260.257812 L 238.429688 260.257812 Z M 238.429688 205.238281 " clip-rule="nonzero"/></clipPath><clipPath id="a95ab52169"><path d="M 233.238281 236.503906 L 267.871094 236.503906 L 267.871094 272.851562 L 233.238281 272.851562 Z M 233.238281 236.503906 " clip-rule="nonzero"/></clipPath><clipPath id="65df2810db"><path d="M 239.125 204.601562 L 293.980469 204.601562 L 293.980469 259.621094 L 239.125 259.621094 Z M 239.125 204.601562 " clip-rule="nonzero"/></clipPath><clipPath id="e8ec8de3a5"><path d="M 246 118.722656 L 277.8125 118.722656 L 277.8125 158.472656 L 246 158.472656 Z M 246 118.722656 " clip-rule="nonzero"/></clipPath><clipPath id="fe50617f5b"><path d="M 246 118.722656 L 265 118.722656 L 265 158.472656 L 246 158.472656 Z M 246 118.722656 " clip-rule="nonzero"/></clipPath><clipPath id="5e5d97995b"><path d="M 96.34375 205.496094 L 143.59375 205.496094 L 143.59375 263.996094 L 96.34375 263.996094 Z M 96.34375 205.496094 " clip-rule="nonzero"/></clipPath><clipPath id="b296cce0c8"><path d="M 127.925781 126.914062 L 247.175781 126.914062 L 247.175781 242 L 127.925781 242 Z M 127.925781 126.914062 " clip-rule="nonzero"/></clipPath><clipPath id="285433b674"><path d="M 150.59375 210.390625 C 150.59375 210.390625 150.054688 190.601562 157.25 178.367188 C 164.449219 166.132812 169.84375 157.679688 169.84375 157.679688 C 169.84375 157.679688 145.019531 175.488281 136.921875 195.640625 C 128.824219 215.789062 127.925781 220.46875 127.925781 220.46875 C 127.925781 220.46875 128.285156 175.671875 138.71875 159.476562 C 153.601562 136.390625 171.191406 131.492188 194.851562 126.914062 C 194.851562 126.914062 184.417969 139.6875 186.9375 145.085938 C 189.457031 150.484375 195.570312 153.722656 195.570312 153.722656 C 195.570312 153.722656 195.753906 149.761719 194.132812 149.402344 C 192.515625 149.042969 203.667969 149.941406 207.535156 151.652344 C 211.402344 153.363281 212.933594 154.261719 212.933594 154.261719 C 212.933594 154.261719 209.246094 146.613281 207.085938 145.265625 C 204.925781 143.914062 203.578125 143.644531 203.578125 143.644531 C 203.578125 143.644531 220.667969 150.484375 222.558594 151.5625 C 224.449219 152.640625 226.605469 155.339844 226.605469 155.339844 L 226.15625 144.726562 C 226.15625 144.726562 232.09375 153 232.453125 156.148438 C 232.8125 159.296875 233.398438 161.773438 233.398438 161.773438 L 237.671875 155.835938 C 237.671875 155.835938 236.097656 159.523438 236.007812 161.457031 C 235.917969 163.390625 235.917969 164.066406 235.917969 164.066406 C 235.917969 164.066406 238.75 161.050781 240.414062 160.0625 C 242.078125 159.074219 243.160156 158.804688 243.160156 158.804688 C 243.160156 158.804688 238.253906 164.742188 238.886719 170.136719 C 239.515625 175.535156 240.683594 179.042969 241.402344 180.753906 C 242.125 182.460938 244.191406 190.46875 244.371094 194.425781 C 244.550781 198.382812 242.035156 205.039062 242.035156 205.039062 C 242.035156 205.039062 239.15625 195.683594 233.578125 192.808594 C 228 189.929688 219.726562 188.488281 219.726562 188.488281 C 219.726562 188.488281 222.964844 187.949219 224.222656 187.230469 C 225.480469 186.511719 224.222656 184.351562 219.363281 181.832031 C 214.507812 179.3125 210.371094 176.792969 210.371094 176.792969 L 216.667969 176.792969 L 215.765625 175.175781 L 222.0625 171.039062 C 165.695312 166.984375 175.707031 237.425781 229.800781 237.425781 C 238.796875 237.425781 247.070312 235.265625 247.070312 235.265625 C 215.648438 248.085938 166.019531 244.125 164.492188 203.601562 C 164.132812 194.066406 167.191406 183.8125 167.191406 183.8125 C 167.191406 183.8125 159.632812 183.453125 150.59375 210.390625 Z M 231.503906 179 L 231.820312 181.203125 L 236.40625 184.847656 L 234.382812 180.078125 Z M 231.503906 179 " clip-rule="evenodd"/></clipPath><clipPath id="fab0d2b03e"><path d="M 105.832031 295.535156 L 111.816406 295.535156 L 111.816406 301.519531 L 105.832031 301.519531 Z M 105.832031 295.535156 " clip-rule="nonzero"/></clipPath><clipPath id="0b12191935"><path d="M 108.824219 295.535156 C 107.171875 295.535156 105.832031 296.875 105.832031 298.527344 C 105.832031 300.179688 107.171875 301.519531 108.824219 301.519531 C 110.476562 301.519531 111.816406 300.179688 111.816406 298.527344 C 111.816406 296.875 110.476562 295.535156 108.824219 295.535156 Z M 108.824219 295.535156 " clip-rule="nonzero"/></clipPath><clipPath id="4d495d35aa"><path d="M 0.832031 0.535156 L 6.816406 0.535156 L 6.816406 6.519531 L 0.832031 6.519531 Z M 0.832031 0.535156 " clip-rule="nonzero"/></clipPath><clipPath id="a36aaaee76"><path d="M 3.824219 0.535156 C 2.171875 0.535156 0.832031 1.875 0.832031 3.527344 C 0.832031 5.179688 2.171875 6.519531 3.824219 6.519531 C 5.476562 6.519531 6.816406 5.179688 6.816406 3.527344 C 6.816406 1.875 5.476562 0.535156 3.824219 0.535156 Z M 3.824219 0.535156 " clip-rule="nonzero"/></clipPath><clipPath id="7a935d0949"><rect x="0" width="7" y="0" height="7"/></clipPath><clipPath id="528f628164"><path d="M 178.28125 303.035156 L 184.265625 303.035156 L 184.265625 309.019531 L 178.28125 309.019531 Z M 178.28125 303.035156 " clip-rule="nonzero"/></clipPath><clipPath id="e12b701604"><path d="M 181.273438 303.035156 C 179.621094 303.035156 178.28125 304.375 178.28125 306.027344 C 178.28125 307.679688 179.621094 309.019531 181.273438 309.019531 C 182.925781 309.019531 184.265625 307.679688 184.265625 306.027344 C 184.265625 304.375 182.925781 303.035156 181.273438 303.035156 Z M 181.273438 303.035156 " clip-rule="nonzero"/></clipPath><clipPath id="d77e18bd9e"><path d="M 0.28125 0.0351562 L 6.265625 0.0351562 L 6.265625 6.019531 L 0.28125 6.019531 Z M 0.28125 0.0351562 " clip-rule="nonzero"/></clipPath><clipPath id="d7904b49fb"><path d="M 3.273438 0.0351562 C 1.621094 0.0351562 0.28125 1.375 0.28125 3.027344 C 0.28125 4.679688 1.621094 6.019531 3.273438 6.019531 C 4.925781 6.019531 6.265625 4.679688 6.265625 3.027344 C 6.265625 1.375 4.925781 0.0351562 3.273438 0.0351562 Z M 3.273438 0.0351562 " clip-rule="nonzero"/></clipPath><clipPath id="52bb9f91fc"><rect x="0" width="7" y="0" height="7"/></clipPath><clipPath id="6310029137"><path d="M 213.546875 278.441406 L 219.53125 278.441406 L 219.53125 284.425781 L 213.546875 284.425781 Z M 213.546875 278.441406 " clip-rule="nonzero"/></clipPath><clipPath id="3b12dc42dc"><path d="M 216.539062 278.441406 C 214.886719 278.441406 213.546875 279.78125 213.546875 281.433594 C 213.546875 283.085938 214.886719 284.425781 216.539062 284.425781 C 218.191406 284.425781 219.53125 283.085938 219.53125 281.433594 C 219.53125 279.78125 218.191406 278.441406 216.539062 278.441406 Z M 216.539062 278.441406 " clip-rule="nonzero"/></clipPath><clipPath id="ee81e2c749"><path d="M 0.546875 0.441406 L 6.53125 0.441406 L 6.53125 6.425781 L 0.546875 6.425781 Z M 0.546875 0.441406 " clip-rule="nonzero"/></clipPath><clipPath id="e6c54d2137"><path d="M 3.539062 0.441406 C 1.886719 0.441406 0.546875 1.78125 0.546875 3.433594 C 0.546875 5.085938 1.886719 6.425781 3.539062 6.425781 C 5.191406 6.425781 6.53125 5.085938 6.53125 3.433594 C 6.53125 1.78125 5.191406 0.441406 3.539062 0.441406 Z M 3.539062 0.441406 " clip-rule="nonzero"/></clipPath><clipPath id="e7e30d6fd0"><rect x="0" width="7" y="0" height="7"/></clipPath><clipPath id="473bd89bb4"><path d="M 285.695312 285.941406 L 291.679688 285.941406 L 291.679688 291.925781 L 285.695312 291.925781 Z M 285.695312 285.941406 " clip-rule="nonzero"/></clipPath><clipPath id="980916dc52"><path d="M 288.6875 285.941406 C 287.035156 285.941406 285.695312 287.28125 285.695312 288.933594 C 285.695312 290.585938 287.035156 291.925781 288.6875 291.925781 C 290.339844 291.925781 291.679688 290.585938 291.679688 288.933594 C 291.679688 287.28125 290.339844 285.941406 288.6875 285.941406 Z M 288.6875 285.941406 " clip-rule="nonzero"/></clipPath><clipPath id="af1d5b6a14"><path d="M 0.695312 0.941406 L 6.679688 0.941406 L 6.679688 6.925781 L 0.695312 6.925781 Z M 0.695312 0.941406 " clip-rule="nonzero"/></clipPath><clipPath id="e7e8b135ea"><path d="M 3.6875 0.941406 C 2.035156 0.941406 0.695312 2.28125 0.695312 3.933594 C 0.695312 5.585938 2.035156 6.925781 3.6875 6.925781 C 5.339844 6.925781 6.679688 5.585938 6.679688 3.933594 C 6.679688 2.28125 5.339844 0.941406 3.6875 0.941406 Z M 3.6875 0.941406 " clip-rule="nonzero"/></clipPath><clipPath id="06b96ac708"><rect x="0" width="7" y="0" height="7"/></clipPath><clipPath id="d74f166bdd"><path d="M 124.273438 301.683594 L 128.023438 301.683594 L 128.023438 305.433594 L 124.273438 305.433594 Z M 124.273438 301.683594 " clip-rule="nonzero"/></clipPath><clipPath id="ba0dda2708"><path d="M 126.289062 301.683594 C 125.175781 301.683594 124.273438 302.585938 124.273438 303.699219 C 124.273438 304.8125 125.175781 305.714844 126.289062 305.714844 C 127.402344 305.714844 128.304688 304.8125 128.304688 303.699219 C 128.304688 302.585938 127.402344 301.683594 126.289062 301.683594 Z M 126.289062 301.683594 " clip-rule="nonzero"/></clipPath><clipPath id="938b8d50d9"><path d="M 171.074219 309.484375 L 174.824219 309.484375 L 174.824219 313.234375 L 171.074219 313.234375 Z M 171.074219 309.484375 " clip-rule="nonzero"/></clipPath><clipPath id="5e4ffd5326"><path d="M 173.089844 309.484375 C 171.976562 309.484375 171.074219 310.386719 171.074219 311.5 C 171.074219 312.613281 171.976562 313.515625 173.089844 313.515625 C 174.203125 313.515625 175.105469 312.613281 175.105469 311.5 C 175.105469 310.386719 174.203125 309.484375 173.089844 309.484375 Z M 173.089844 309.484375 " clip-rule="nonzero"/></clipPath><clipPath id="365a24a702"><path d="M 164.773438 313.535156 L 168.523438 313.535156 L 168.523438 317.285156 L 164.773438 317.285156 Z M 164.773438 313.535156 " clip-rule="nonzero"/></clipPath><clipPath id="a1434646db"><path d="M 166.789062 313.535156 C 165.675781 313.535156 164.773438 314.4375 164.773438 315.550781 C 164.773438 316.664062 165.675781 317.566406 166.789062 317.566406 C 167.902344 317.566406 168.804688 316.664062 168.804688 315.550781 C 168.804688 314.4375 167.902344 313.535156 166.789062 313.535156 Z M 166.789062 313.535156 " clip-rule="nonzero"/></clipPath><clipPath id="9ecb4696b7"><path d="M 185.925781 317.433594 L 189.675781 317.433594 L 189.675781 321.183594 L 185.925781 321.183594 Z M 185.925781 317.433594 " clip-rule="nonzero"/></clipPath><clipPath id="b9e676ad8e"><path d="M 187.941406 317.433594 C 186.828125 317.433594 185.925781 318.335938 185.925781 319.449219 C 185.925781 320.5625 186.828125 321.464844 187.941406 321.464844 C 189.054688 321.464844 189.957031 320.5625 189.957031 319.449219 C 189.957031 318.335938 189.054688 317.433594 187.941406 317.433594 Z M 187.941406 317.433594 " clip-rule="nonzero"/></clipPath><clipPath id="ee5075a4d5"><path d="M 223.726562 305.734375 L 227.476562 305.734375 L 227.476562 309.484375 L 223.726562 309.484375 Z M 223.726562 305.734375 " clip-rule="nonzero"/></clipPath><clipPath id="ed09149de3"><path d="M 225.742188 305.734375 C 224.628906 305.734375 223.726562 306.636719 223.726562 307.75 C 223.726562 308.863281 224.628906 309.765625 225.742188 309.765625 C 226.855469 309.765625 227.757812 308.863281 227.757812 307.75 C 227.757812 306.636719 226.855469 305.734375 225.742188 305.734375 Z M 225.742188 305.734375 " clip-rule="nonzero"/></clipPath><clipPath id="98df775db0"><path d="M 222.539062 274.242188 L 226.289062 274.242188 L 226.289062 277.992188 L 222.539062 277.992188 Z M 222.539062 274.242188 " clip-rule="nonzero"/></clipPath><clipPath id="976cd5a906"><path d="M 224.554688 274.242188 C 223.441406 274.242188 222.539062 275.144531 222.539062 276.257812 C 222.539062 277.371094 223.441406 278.273438 224.554688 278.273438 C 225.667969 278.273438 226.570312 277.371094 226.570312 276.257812 C 226.570312 275.144531 225.667969 274.242188 224.554688 274.242188 Z M 224.554688 274.242188 " clip-rule="nonzero"/></clipPath><clipPath id="1ed733ceff"><path d="M 269.488281 282.042969 L 273.238281 282.042969 L 273.238281 285.792969 L 269.488281 285.792969 Z M 269.488281 282.042969 " clip-rule="nonzero"/></clipPath><clipPath id="349a37ebda"><path d="M 271.503906 282.042969 C 270.390625 282.042969 269.488281 282.945312 269.488281 284.058594 C 269.488281 285.171875 270.390625 286.074219 271.503906 286.074219 C 272.617188 286.074219 273.519531 285.171875 273.519531 284.058594 C 273.519531 282.945312 272.617188 282.042969 271.503906 282.042969 Z M 271.503906 282.042969 " clip-rule="nonzero"/></clipPath><clipPath id="91fee3d57e"><path d="M 97.105469 263.867188 L 277.855469 263.867188 L 277.855469 280 L 97.105469 280 Z M 97.105469 263.867188 " clip-rule="nonzero"/></clipPath></defs><g fill="#ffffff" fill-opacity="1"><g transform="translate(128.061577, 112.56352)"><g><path d="M -2.03125 -8.734375 L -8.75 -20.703125 L -6.234375 -22.125 L 0.484375 -10.15625 C 2.578125 -6.414062 5.484375 -5.585938 9.203125 -7.671875 C 12.929688 -9.765625 13.75 -12.679688 11.65625 -16.421875 L 4.9375 -28.390625 L 7.453125 -29.8125 L 14.171875 -17.84375 C 17.035156 -12.738281 15.765625 -8.664062 10.359375 -5.625 C 4.960938 -2.59375 0.832031 -3.628906 -2.03125 -8.734375 Z M -2.03125 -8.734375 "/></g></g></g><g fill="#ffffff" fill-opacity="1"><g transform="translate(147.06349, 102.000493)"><g><path d="M 9.28125 -26.65625 L 10.03125 -24.4375 L -1.078125 -20.734375 L 1.296875 -13.625 L 11.890625 -17.15625 L 12.640625 -14.921875 L 2.046875 -11.390625 L 5.265625 -1.765625 L 2.515625 -0.84375 L -4.578125 -22.03125 Z M 9.28125 -26.65625 "/></g></g></g><g fill="#ffffff" fill-opacity="1"><g transform="translate(162.497846, 96.574392)"><g><path d="M 2.625 -0.390625 L -0.6875 -22.484375 L 8.734375 -23.90625 C 12.941406 -24.53125 15.3125 -23.078125 15.84375 -19.546875 C 16.269531 -16.671875 14.53125 -14.238281 10.625 -12.25 L 19.78125 -2.96875 L 16.015625 -2.390625 L 7.5 -11.28125 L 7.21875 -13.15625 C 11.332031 -14.457031 13.195312 -16.394531 12.8125 -18.96875 C 12.507812 -21.007812 11.1875 -21.851562 8.84375 -21.5 L 2.53125 -20.5625 L 5.484375 -0.828125 Z M 2.625 -0.390625 "/></g></g></g><g fill="#ffffff" fill-opacity="1"><g transform="translate(181.43351, 94.062138)"><g/></g></g><g fill="#ffffff" fill-opacity="1"><g transform="translate(187.678666, 92.934547)"><g><path d="M 2.625 0.390625 L 5.84375 -21.71875 L 9.484375 -21.203125 L 14.90625 -1.578125 L 25.5625 -18.859375 L 29.046875 -18.34375 L 25.828125 3.765625 L 23.265625 3.390625 L 25.90625 -14.75 L 15.421875 2.25 L 13.15625 1.921875 L 7.8125 -17.390625 L 5.171875 0.75 Z M 2.625 0.390625 "/></g></g></g><g fill="#ffffff" fill-opacity="1"><g transform="translate(214.296918, 97.515206)"><g><path d="M 12.671875 -19.359375 L 5.71875 1.875 L 2.96875 0.96875 L 9.921875 -20.265625 Z M 12.671875 -19.359375 "/></g></g></g><g fill="#ffffff" fill-opacity="1"><g transform="translate(221.768542, 98.92877)"><g><path d="M 2.34375 1.25 L 12.828125 -18.484375 L 16.078125 -16.765625 L 14.5625 3.546875 L 30.421875 -9.140625 L 33.53125 -7.5 L 23.046875 12.234375 L 20.765625 11.03125 L 29.359375 -5.15625 L 13.765625 7.296875 L 11.75 6.234375 L 13.21875 -13.734375 L 4.625 2.453125 Z M 2.34375 1.25 "/></g></g></g><g clip-path="url(#d1d36e3a00)"><path fill="#82dbff" d="M 277.632812 191.269531 C 277.421875 202.835938 274.949219 214.289062 270.449219 224.851562 C 265.949219 235.417969 259.488281 245.144531 251.394531 253.308594 C 243.324219 261.46875 233.644531 268.09375 223.058594 272.640625 C 217.761719 274.925781 212.234375 276.699219 206.589844 277.910156 C 200.949219 279.148438 195.164062 279.824219 189.355469 279.941406 C 183.546875 280.058594 177.71875 279.613281 171.980469 278.613281 C 166.242188 277.632812 160.574219 276.046875 155.09375 273.945312 C 144.15625 269.75 133.988281 263.359375 125.40625 255.195312 C 121.113281 251.113281 117.21875 246.613281 113.789062 241.738281 L 112.53125 239.894531 L 111.902344 238.964844 C 111.691406 238.660156 111.480469 238.355469 111.296875 238.03125 L 110.128906 236.117188 L 109.546875 235.160156 L 109.265625 234.695312 L 108.988281 234.230469 L 107.914062 232.269531 L 107.378906 231.289062 L 107.121094 230.800781 L 106.886719 230.289062 L 105.90625 228.257812 L 105.417969 227.253906 C 105.347656 227.09375 105.253906 226.929688 105.183594 226.742188 L 104.976562 226.230469 L 104.113281 224.152344 C 103.832031 223.453125 103.503906 222.777344 103.273438 222.078125 L 102.503906 219.980469 C 102.246094 219.277344 101.964844 218.578125 101.78125 217.855469 L 101.125 215.710938 L 100.800781 214.636719 C 100.753906 214.453125 100.683594 214.289062 100.636719 214.101562 L 100.496094 213.566406 L 99.9375 211.371094 L 99.65625 210.277344 L 99.519531 209.738281 L 99.402344 209.179688 C 98.117188 203.328125 97.417969 197.308594 97.324219 191.292969 C 97.117188 179.257812 99.355469 167.128906 103.925781 155.910156 C 108.472656 144.695312 115.308594 134.40625 123.867188 125.824219 C 128.15625 121.535156 132.867188 117.6875 137.929688 114.351562 L 139.84375 113.136719 L 140.796875 112.53125 C 141.125 112.320312 141.429688 112.136719 141.777344 111.949219 L 143.761719 110.828125 L 144.738281 110.269531 L 145.230469 109.988281 L 145.742188 109.734375 L 147.773438 108.707031 L 149.3125 107.9375 L 149.824219 107.703125 L 151.898438 106.792969 L 152.949219 106.328125 C 153.113281 106.257812 153.300781 106.164062 153.460938 106.09375 L 154 105.882812 L 156.121094 105.070312 C 156.820312 104.8125 157.519531 104.507812 158.242188 104.296875 L 160.390625 103.597656 C 161.113281 103.367188 161.8125 103.109375 162.558594 102.945312 L 164.75 102.363281 L 165.847656 102.058594 C 166.035156 102.011719 166.21875 101.964844 166.382812 101.917969 L 166.941406 101.804688 L 169.160156 101.3125 L 170.253906 101.082031 L 170.816406 100.964844 L 171.375 100.871094 C 177.320312 99.796875 183.339844 99.308594 189.355469 99.425781 C 201.367188 99.65625 213.285156 102.339844 224.175781 107.214844 C 235.046875 112.089844 244.886719 119.085938 252.957031 127.644531 C 256.992188 131.9375 260.605469 136.601562 263.730469 141.542969 C 266.855469 146.488281 269.492188 151.738281 271.589844 157.171875 C 275.789062 168.085938 277.84375 179.722656 277.632812 191.269531 Z M 276.257812 191.269531 C 276.140625 185.578125 275.488281 179.910156 274.25 174.382812 C 273.015625 168.855469 271.265625 163.445312 268.957031 158.289062 C 264.386719 147.957031 257.738281 138.652344 249.597656 130.980469 C 241.457031 123.328125 231.875 117.3125 221.566406 113.417969 C 216.410156 111.457031 211.070312 110.011719 205.683594 109.078125 L 203.652344 108.777344 L 202.625 108.613281 L 202.113281 108.542969 C 201.949219 108.519531 201.765625 108.496094 201.601562 108.496094 L 199.546875 108.285156 L 198.523438 108.195312 C 198.171875 108.171875 197.84375 108.125 197.496094 108.101562 C 196.121094 108.03125 194.765625 107.9375 193.390625 107.890625 L 189.285156 107.890625 L 185.25 108.101562 C 183.898438 108.21875 182.546875 108.355469 181.167969 108.472656 C 180.820312 108.496094 180.492188 108.566406 180.167969 108.613281 L 179.164062 108.753906 L 177.136719 109.054688 C 176.972656 109.078125 176.808594 109.101562 176.621094 109.125 L 176.132812 109.21875 L 175.128906 109.429688 L 173.125 109.828125 L 172.632812 109.917969 L 172.144531 110.035156 L 171.164062 110.269531 L 169.183594 110.757812 L 168.691406 110.875 C 168.527344 110.921875 168.367188 110.96875 168.203125 111.015625 L 167.222656 111.320312 L 165.265625 111.902344 C 164.609375 112.089844 163.980469 112.34375 163.328125 112.554688 L 161.414062 113.230469 C 160.761719 113.441406 160.15625 113.722656 159.527344 113.976562 L 157.636719 114.746094 L 157.171875 114.933594 C 157.007812 115.003906 156.867188 115.074219 156.703125 115.144531 L 155.796875 115.5625 L 153.953125 116.425781 L 153.484375 116.636719 L 153.042969 116.871094 L 152.132812 117.335938 L 150.335938 118.269531 L 149.894531 118.503906 L 149.453125 118.757812 L 148.566406 119.273438 L 146.816406 120.296875 C 146.511719 120.460938 146.234375 120.648438 145.953125 120.835938 L 145.113281 121.394531 L 143.410156 122.492188 C 138.933594 125.523438 134.734375 128.996094 130.910156 132.824219 C 123.261719 140.472656 117.101562 149.613281 112.859375 159.574219 C 110.734375 164.5625 109.101562 169.742188 107.984375 175.058594 C 106.863281 180.378906 106.257812 185.789062 106.140625 191.246094 C 106.046875 196.703125 106.492188 202.160156 107.425781 207.546875 L 107.492188 208.0625 L 107.585938 208.574219 L 107.796875 209.578125 L 108.21875 211.582031 L 108.308594 212.097656 C 108.355469 212.257812 108.402344 212.421875 108.425781 212.585938 L 108.683594 213.589844 L 109.195312 215.570312 C 109.359375 216.246094 109.59375 216.875 109.78125 217.53125 L 110.386719 219.488281 C 110.574219 220.140625 110.828125 220.796875 111.0625 221.425781 L 111.761719 223.359375 L 111.949219 223.851562 C 112.019531 224.011719 112.089844 224.175781 112.136719 224.316406 L 112.53125 225.273438 L 113.324219 227.160156 L 113.535156 227.628906 L 113.769531 228.09375 L 114.210938 229.027344 L 115.097656 230.894531 L 115.332031 231.359375 L 115.585938 231.804688 L 116.078125 232.710938 L 117.054688 234.53125 C 117.21875 234.835938 117.382812 235.136719 117.570312 235.417969 L 118.105469 236.304688 L 119.179688 238.078125 C 122.117188 242.742188 125.523438 247.148438 129.347656 251.183594 C 136.972656 259.253906 146.257812 265.855469 156.496094 270.425781 C 161.625 272.710938 166.988281 274.484375 172.492188 275.71875 C 177.996094 276.957031 183.640625 277.632812 189.308594 277.75 C 194.976562 277.84375 200.667969 277.421875 206.265625 276.417969 C 211.863281 275.394531 217.367188 273.832031 222.660156 271.730469 C 233.25 267.511719 243.019531 261.121094 251.160156 253.074219 C 259.300781 245.027344 265.832031 235.324219 270.121094 224.691406 C 272.269531 219.394531 273.855469 213.867188 274.878906 208.246094 C 275.90625 202.671875 276.347656 196.960938 276.257812 191.269531 Z M 276.257812 191.269531 " fill-opacity="1" fill-rule="nonzero"/></g><g clip-path="url(#450311ff1d)"><path fill="#82dbff" d="M 264.410156 259.476562 C 264.414062 259.464844 264.414062 259.457031 264.417969 259.445312 C 264.578125 258.84375 264.972656 258.339844 265.496094 258.035156 L 265.203125 257.300781 C 264.800781 256.292969 263.882812 255.585938 262.796875 255.449219 L 262.75 255.441406 C 262.628906 255.425781 262.503906 255.417969 262.378906 255.417969 C 262.378906 255.511719 262.382812 255.605469 262.382812 255.699219 C 262.382812 262.316406 257.019531 267.679688 250.402344 267.679688 C 243.789062 267.679688 238.425781 262.316406 238.425781 255.699219 C 238.425781 249.085938 243.789062 243.722656 250.402344 243.722656 C 255.007812 243.722656 259.007812 246.324219 261.011719 250.132812 C 262.121094 250.4375 263.261719 250.636719 264.414062 250.71875 C 264.523438 250.328125 264.730469 249.964844 265.035156 249.671875 L 266.828125 247.9375 C 266.402344 247.039062 265.90625 246.179688 265.34375 245.371094 L 262.941406 246.054688 C 262.132812 246.285156 261.265625 246.054688 260.671875 245.457031 C 260.667969 245.453125 260.660156 245.445312 260.652344 245.441406 C 260.058594 244.84375 259.828125 243.976562 260.058594 243.167969 L 260.746094 240.765625 C 259.9375 240.203125 259.078125 239.707031 258.179688 239.28125 L 256.445312 241.074219 C 255.859375 241.679688 254.992188 241.910156 254.179688 241.695312 C 254.167969 241.691406 254.160156 241.6875 254.148438 241.6875 C 253.335938 241.46875 252.703125 240.832031 252.496094 240.015625 L 251.894531 237.597656 C 251.402344 237.558594 250.90625 237.535156 250.402344 237.535156 C 249.90625 237.535156 249.414062 237.558594 248.925781 237.597656 L 248.320312 240.015625 C 248.117188 240.832031 247.480469 241.464844 246.667969 241.683594 C 246.660156 241.683594 246.648438 241.6875 246.640625 241.691406 C 245.828125 241.910156 244.960938 241.675781 244.375 241.070312 L 242.640625 239.273438 C 241.742188 239.699219 240.882812 240.195312 240.074219 240.757812 L 240.757812 243.160156 C 240.988281 243.96875 240.757812 244.835938 240.160156 245.433594 C 240.15625 245.4375 240.148438 245.445312 240.144531 245.449219 C 239.546875 246.046875 238.679688 246.277344 237.871094 246.046875 L 235.46875 245.359375 C 234.90625 246.167969 234.410156 247.027344 233.984375 247.925781 L 235.777344 249.660156 C 236.382812 250.246094 236.613281 251.113281 236.394531 251.925781 C 236.394531 251.933594 236.390625 251.945312 236.386719 251.957031 C 236.171875 252.769531 235.535156 253.402344 234.71875 253.605469 L 232.300781 254.210938 C 232.261719 254.703125 232.238281 255.199219 232.238281 255.699219 C 232.238281 256.199219 232.257812 256.691406 232.296875 257.175781 L 234.71875 257.78125 C 235.53125 257.988281 236.167969 258.621094 236.386719 259.433594 C 236.386719 259.445312 236.390625 259.453125 236.394531 259.464844 C 236.613281 260.277344 236.378906 261.144531 235.773438 261.730469 L 233.976562 263.464844 C 234.402344 264.363281 234.898438 265.222656 235.460938 266.03125 L 237.863281 265.347656 C 238.671875 265.113281 239.539062 265.347656 240.132812 265.941406 C 240.140625 265.949219 240.148438 265.957031 240.152344 265.960938 C 240.75 266.554688 240.980469 267.421875 240.75 268.234375 L 240.0625 270.632812 C 240.871094 271.195312 241.730469 271.695312 242.625 272.121094 L 244.363281 270.328125 C 244.949219 269.722656 245.816406 269.488281 246.628906 269.707031 C 246.636719 269.710938 246.648438 269.714844 246.65625 269.714844 C 247.472656 269.933594 248.105469 270.570312 248.308594 271.386719 L 248.914062 273.804688 C 249.40625 273.84375 249.902344 273.863281 250.402344 273.863281 C 250.902344 273.863281 251.394531 273.84375 251.878906 273.804688 L 252.484375 271.386719 C 252.691406 270.570312 253.324219 269.933594 254.136719 269.71875 C 254.148438 269.714844 254.15625 269.714844 254.167969 269.710938 C 254.980469 269.492188 255.847656 269.726562 256.433594 270.332031 L 258.167969 272.125 C 259.066406 271.699219 259.925781 271.203125 260.734375 270.644531 L 260.050781 268.238281 C 259.816406 267.429688 260.050781 266.5625 260.644531 265.96875 C 260.652344 265.964844 260.65625 265.957031 260.664062 265.949219 C 261.257812 265.355469 262.125 265.125 262.9375 265.355469 L 265.335938 266.042969 C 265.898438 265.234375 266.398438 264.375 266.824219 263.476562 L 265.03125 261.742188 C 264.425781 261.15625 264.191406 260.289062 264.410156 259.476562 " fill-opacity="1" fill-rule="nonzero"/></g><g clip-path="url(#af18d2abf7)"><path fill="#ffffff" d="M 287.457031 235.933594 C 287.460938 235.917969 287.460938 235.902344 287.464844 235.886719 C 287.625 234.621094 288.453125 233.539062 289.636719 233.066406 L 293.148438 231.667969 C 293.109375 230.921875 293.039062 230.167969 292.9375 229.417969 C 292.835938 228.667969 292.707031 227.933594 292.546875 227.210938 L 288.789062 226.789062 C 287.523438 226.648438 286.4375 225.824219 285.945312 224.648438 C 285.941406 224.632812 285.933594 224.617188 285.929688 224.605469 C 285.4375 223.425781 285.609375 222.078125 286.402344 221.074219 L 288.746094 218.101562 C 287.921875 216.839844 287 215.648438 285.992188 214.546875 L 282.523438 216.066406 C 281.355469 216.578125 280.003906 216.40625 278.988281 215.632812 C 278.976562 215.621094 278.96875 215.613281 278.957031 215.605469 C 277.941406 214.835938 277.417969 213.578125 277.601562 212.3125 L 278.144531 208.566406 C 276.8125 207.886719 275.421875 207.3125 273.988281 206.855469 L 271.742188 209.902344 C 270.984375 210.929688 269.730469 211.457031 268.464844 211.292969 C 268.449219 211.292969 268.433594 211.289062 268.417969 211.289062 C 267.152344 211.128906 266.070312 210.300781 265.597656 209.113281 L 264.195312 205.601562 C 263.449219 205.644531 262.699219 205.710938 261.945312 205.816406 C 261.199219 205.914062 260.460938 206.046875 259.738281 206.203125 L 259.320312 209.960938 C 259.179688 211.230469 258.355469 212.316406 257.175781 212.804688 C 257.164062 212.8125 257.148438 212.816406 257.132812 212.824219 C 255.957031 213.316406 254.605469 213.140625 253.605469 212.351562 L 250.632812 210.007812 C 249.367188 210.828125 248.179688 211.75 247.074219 212.757812 L 248.59375 216.230469 C 249.105469 217.398438 248.933594 218.75 248.160156 219.761719 C 248.152344 219.773438 248.144531 219.785156 248.136719 219.796875 C 247.363281 220.8125 246.105469 221.335938 244.84375 221.152344 L 241.09375 220.605469 C 240.414062 221.9375 239.839844 223.328125 239.382812 224.765625 L 242.433594 227.011719 C 243.460938 227.765625 243.988281 229.023438 243.824219 230.289062 C 243.820312 230.304688 243.820312 230.320312 243.816406 230.335938 C 243.65625 231.601562 242.828125 232.683594 241.644531 233.15625 L 238.132812 234.554688 C 238.171875 235.300781 238.242188 236.050781 238.34375 236.808594 C 238.445312 237.554688 238.574219 238.289062 238.734375 239.011719 L 242.492188 239.433594 C 242.71875 239.457031 242.9375 239.503906 243.152344 239.570312 C 243.203125 239.457031 243.265625 239.351562 243.339844 239.253906 L 244.09375 240.035156 C 244.429688 240.269531 244.722656 240.558594 244.960938 240.898438 C 245.269531 241.125 245.644531 241.253906 246.03125 241.253906 C 246.191406 241.253906 246.351562 241.230469 246.503906 241.191406 L 246.535156 241.183594 C 247.167969 241.015625 247.660156 240.519531 247.820312 239.886719 L 248.222656 238.277344 C 247.964844 237.394531 247.765625 236.484375 247.640625 235.546875 C 246.292969 225.605469 253.261719 216.457031 263.203125 215.109375 C 273.144531 213.765625 282.292969 220.734375 283.640625 230.675781 C 284.988281 240.617188 278.019531 249.765625 268.078125 251.113281 C 261.421875 252.011719 255.125 249.1875 251.28125 244.242188 L 250.90625 244.242188 C 250.90625 244.246094 250.90625 244.25 250.90625 244.25 C 250.792969 244.246094 250.675781 244.242188 250.558594 244.242188 L 250.195312 244.242188 C 247.949219 244.28125 245.859375 244.972656 244.105469 246.132812 L 242.535156 248.121094 C 243.359375 249.382812 244.28125 250.574219 245.289062 251.675781 L 248.757812 250.15625 C 249.925781 249.644531 251.277344 249.816406 252.292969 250.589844 C 252.304688 250.597656 252.3125 250.609375 252.324219 250.617188 C 253.339844 251.386719 253.863281 252.644531 253.679688 253.910156 L 253.136719 257.65625 C 254.46875 258.335938 255.859375 258.910156 257.292969 259.367188 L 259.539062 256.320312 C 260.296875 255.292969 261.550781 254.765625 262.816406 254.929688 C 262.832031 254.929688 262.847656 254.933594 262.863281 254.933594 C 264.128906 255.09375 265.210938 255.921875 265.683594 257.109375 L 267.085938 260.621094 C 267.832031 260.578125 268.582031 260.511719 269.335938 260.40625 C 270.082031 260.308594 270.816406 260.175781 271.542969 260.019531 L 271.960938 256.261719 C 272.101562 254.992188 272.925781 253.90625 274.105469 253.417969 C 274.117188 253.410156 274.132812 253.40625 274.148438 253.398438 C 275.324219 252.90625 276.675781 253.082031 277.675781 253.871094 L 280.648438 256.214844 C 281.914062 255.394531 283.101562 254.472656 284.207031 253.464844 L 282.6875 249.992188 C 282.175781 248.824219 282.347656 247.472656 283.121094 246.460938 C 283.128906 246.449219 283.136719 246.4375 283.144531 246.425781 C 283.917969 245.410156 285.175781 244.886719 286.4375 245.070312 L 290.1875 245.617188 C 290.867188 244.285156 291.441406 242.894531 291.898438 241.457031 L 288.847656 239.210938 C 287.820312 238.457031 287.292969 237.199219 287.457031 235.933594 " fill-opacity="1" fill-rule="nonzero"/></g><g clip-path="url(#de8b45aea9)"><path fill="#82dbff" d="M 264.714844 259.109375 C 264.714844 259.097656 264.71875 259.089844 264.722656 259.078125 C 264.882812 258.476562 265.273438 257.972656 265.800781 257.667969 L 265.507812 256.933594 C 265.105469 255.929688 264.183594 255.21875 263.101562 255.082031 L 263.054688 255.074219 C 262.929688 255.058594 262.804688 255.050781 262.679688 255.050781 C 262.683594 255.144531 262.683594 255.238281 262.683594 255.335938 C 262.683594 261.949219 257.320312 267.3125 250.707031 267.3125 C 244.089844 267.3125 238.726562 261.949219 238.726562 255.335938 C 238.726562 248.71875 244.089844 243.355469 250.707031 243.355469 C 255.3125 243.355469 259.308594 245.957031 261.3125 249.769531 C 262.421875 250.074219 263.5625 250.269531 264.71875 250.351562 C 264.824219 249.960938 265.035156 249.597656 265.335938 249.304688 L 267.132812 247.570312 C 266.707031 246.671875 266.210938 245.8125 265.648438 245.003906 L 263.246094 245.6875 C 262.4375 245.917969 261.570312 245.6875 260.976562 245.09375 C 260.96875 245.085938 260.960938 245.078125 260.957031 245.074219 C 260.359375 244.480469 260.128906 243.609375 260.363281 242.800781 L 261.050781 240.398438 C 260.238281 239.839844 259.382812 239.339844 258.484375 238.914062 L 256.746094 240.707031 C 256.160156 241.3125 255.292969 241.546875 254.480469 241.328125 C 254.472656 241.324219 254.460938 241.320312 254.453125 241.320312 C 253.636719 241.101562 253.003906 240.464844 252.800781 239.648438 L 252.195312 237.230469 C 251.703125 237.191406 251.207031 237.171875 250.707031 237.171875 C 250.210938 237.171875 249.71875 237.191406 249.230469 237.230469 L 248.625 239.648438 C 248.417969 240.464844 247.785156 241.101562 246.972656 241.316406 C 246.960938 241.320312 246.953125 241.320312 246.941406 241.324219 C 246.128906 241.542969 245.261719 241.308594 244.679688 240.703125 L 242.941406 238.910156 C 242.042969 239.335938 241.1875 239.832031 240.375 240.390625 L 241.0625 242.792969 C 241.292969 243.605469 241.058594 244.472656 240.464844 245.066406 C 240.457031 245.070312 240.453125 245.078125 240.445312 245.085938 C 239.851562 245.679688 238.984375 245.910156 238.175781 245.679688 L 235.773438 244.992188 C 235.210938 245.800781 234.710938 246.660156 234.285156 247.558594 L 236.082031 249.292969 C 236.683594 249.878906 236.917969 250.746094 236.699219 251.558594 C 236.695312 251.570312 236.695312 251.578125 236.691406 251.589844 C 236.472656 252.402344 235.839844 253.035156 235.023438 253.238281 L 232.601562 253.84375 C 232.5625 254.335938 232.542969 254.832031 232.542969 255.335938 C 232.542969 255.832031 232.5625 256.324219 232.601562 256.808594 L 235.019531 257.417969 C 235.835938 257.621094 236.472656 258.253906 236.6875 259.070312 C 236.691406 259.078125 236.695312 259.089844 236.695312 259.097656 C 236.914062 259.910156 236.679688 260.777344 236.074219 261.363281 L 234.28125 263.097656 C 234.707031 263.996094 235.203125 264.855469 235.765625 265.664062 L 238.167969 264.980469 C 238.976562 264.75 239.84375 264.980469 240.4375 265.578125 C 240.445312 265.582031 240.449219 265.589844 240.457031 265.59375 C 241.050781 266.191406 241.28125 267.058594 241.050781 267.867188 L 240.363281 270.269531 C 241.171875 270.832031 242.03125 271.328125 242.929688 271.753906 L 244.667969 269.960938 C 245.25 269.355469 246.117188 269.121094 246.929688 269.339844 C 246.941406 269.34375 246.949219 269.347656 246.960938 269.347656 C 247.773438 269.566406 248.40625 270.203125 248.613281 271.019531 L 249.214844 273.4375 C 249.707031 273.476562 250.203125 273.5 250.707031 273.5 C 251.203125 273.5 251.695312 273.476562 252.183594 273.4375 L 252.789062 271.019531 C 252.992188 270.203125 253.628906 269.570312 254.441406 269.351562 C 254.449219 269.347656 254.460938 269.347656 254.46875 269.34375 C 255.28125 269.125 256.148438 269.359375 256.734375 269.964844 L 258.46875 271.761719 C 259.367188 271.335938 260.226562 270.835938 261.039062 270.277344 L 260.351562 267.875 C 260.121094 267.066406 260.351562 266.199219 260.949219 265.601562 C 260.953125 265.597656 260.960938 265.589844 260.96875 265.585938 C 261.5625 264.988281 262.429688 264.757812 263.238281 264.988281 L 265.640625 265.675781 C 266.203125 264.867188 266.699219 264.007812 267.125 263.109375 L 265.332031 261.375 C 264.726562 260.789062 264.496094 259.921875 264.714844 259.109375 " fill-opacity="1" fill-rule="nonzero"/></g><g clip-path="url(#15536e5b62)"><path fill="#ffffff" d="M 287.761719 235.570312 C 287.761719 235.554688 287.765625 235.539062 287.765625 235.523438 C 287.925781 234.257812 288.753906 233.175781 289.941406 232.703125 L 293.453125 231.300781 C 293.410156 230.554688 293.34375 229.804688 293.238281 229.050781 C 293.140625 228.304688 293.007812 227.566406 292.851562 226.84375 L 289.09375 226.425781 C 287.824219 226.28125 286.738281 225.460938 286.25 224.28125 C 286.242188 224.265625 286.238281 224.253906 286.230469 224.238281 C 285.738281 223.0625 285.914062 221.710938 286.703125 220.710938 L 289.046875 217.734375 C 288.226562 216.472656 287.304688 215.285156 286.296875 214.179688 L 282.824219 215.699219 C 281.65625 216.210938 280.304688 216.039062 279.292969 215.265625 C 279.28125 215.257812 279.269531 215.25 279.257812 215.242188 C 278.242188 214.46875 277.71875 213.210938 277.902344 211.949219 L 278.449219 208.199219 C 277.117188 207.519531 275.726562 206.945312 274.289062 206.488281 L 272.042969 209.535156 C 271.289062 210.5625 270.03125 211.089844 268.765625 210.929688 C 268.75 210.925781 268.734375 210.925781 268.722656 210.921875 C 267.453125 210.761719 266.371094 209.933594 265.898438 208.75 L 264.5 205.238281 C 263.753906 205.277344 263.003906 205.347656 262.25 205.449219 C 261.5 205.550781 260.765625 205.679688 260.042969 205.839844 L 259.621094 209.597656 C 259.480469 210.863281 258.65625 211.949219 257.480469 212.441406 C 257.464844 212.445312 257.449219 212.449219 257.4375 212.457031 C 256.257812 212.949219 254.910156 212.773438 253.90625 211.984375 L 250.933594 209.640625 C 249.671875 210.460938 248.480469 211.382812 247.378906 212.390625 L 248.898438 215.863281 C 249.410156 217.03125 249.238281 218.382812 248.464844 219.398438 C 248.453125 219.40625 248.445312 219.417969 248.4375 219.429688 C 247.667969 220.445312 246.410156 220.96875 245.144531 220.785156 L 241.398438 220.242188 C 240.71875 221.570312 240.144531 222.960938 239.6875 224.398438 L 242.734375 226.644531 C 243.761719 227.402344 244.289062 228.65625 244.125 229.921875 C 244.125 229.9375 244.121094 229.953125 244.121094 229.96875 C 243.960938 231.234375 243.132812 232.316406 241.945312 232.789062 L 238.433594 234.1875 C 238.476562 234.9375 238.542969 235.6875 238.648438 236.441406 C 238.75 237.1875 238.878906 237.921875 239.035156 238.644531 L 242.792969 239.066406 C 243.019531 239.089844 243.242188 239.136719 243.453125 239.207031 C 243.507812 239.09375 243.566406 238.984375 243.640625 238.886719 L 244.398438 239.667969 C 244.730469 239.902344 245.027344 240.195312 245.265625 240.53125 C 245.570312 240.757812 245.949219 240.886719 246.335938 240.886719 C 246.496094 240.886719 246.652344 240.867188 246.808594 240.824219 L 246.839844 240.816406 C 247.472656 240.648438 247.964844 240.152344 248.121094 239.523438 L 248.527344 237.910156 C 248.265625 237.03125 248.070312 236.117188 247.945312 235.183594 C 246.597656 225.242188 253.566406 216.089844 263.507812 214.746094 C 273.449219 213.398438 282.597656 220.367188 283.945312 230.308594 C 285.289062 240.25 278.320312 249.398438 268.378906 250.746094 C 261.726562 251.644531 255.429688 248.820312 251.585938 243.875 L 251.210938 243.875 C 251.210938 243.878906 251.210938 243.882812 251.210938 243.886719 C 251.09375 243.878906 250.980469 243.878906 250.863281 243.875 L 250.5 243.875 C 248.253906 243.914062 246.160156 244.605469 244.40625 245.765625 L 242.839844 247.753906 C 243.660156 249.019531 244.582031 250.207031 245.589844 251.308594 L 249.0625 249.789062 C 250.230469 249.277344 251.582031 249.449219 252.59375 250.226562 C 252.605469 250.234375 252.617188 250.242188 252.628906 250.25 C 253.644531 251.023438 254.167969 252.28125 253.984375 253.542969 L 253.4375 257.292969 C 254.769531 257.972656 256.160156 258.542969 257.597656 259.003906 L 259.84375 255.953125 C 260.597656 254.925781 261.855469 254.398438 263.121094 254.5625 C 263.136719 254.5625 263.152344 254.566406 263.167969 254.566406 C 264.433594 254.726562 265.515625 255.554688 265.988281 256.742188 L 267.386719 260.253906 C 268.132812 260.214844 268.882812 260.144531 269.640625 260.042969 C 270.386719 259.941406 271.121094 259.808594 271.84375 259.652344 L 272.265625 255.894531 C 272.40625 254.625 273.230469 253.539062 274.40625 253.050781 C 274.421875 253.042969 274.4375 253.039062 274.449219 253.03125 C 275.628906 252.539062 276.976562 252.714844 277.980469 253.503906 L 280.953125 255.847656 C 282.214844 255.027344 283.40625 254.105469 284.507812 253.097656 L 282.988281 249.625 C 282.476562 248.457031 282.648438 247.105469 283.421875 246.09375 C 283.433594 246.082031 283.441406 246.070312 283.449219 246.0625 C 284.222656 245.046875 285.476562 244.519531 286.742188 244.703125 L 290.488281 245.25 C 291.167969 243.917969 291.742188 242.527344 292.199219 241.089844 L 289.152344 238.847656 C 288.125 238.089844 287.597656 236.832031 287.761719 235.570312 " fill-opacity="1" fill-rule="nonzero"/></g><g clip-path="url(#a95ab52169)"><path fill="#ffffff" d="M 265.410156 258.472656 C 265.414062 258.464844 265.414062 258.453125 265.417969 258.445312 C 265.578125 257.839844 265.96875 257.335938 266.496094 257.03125 L 266.203125 256.296875 C 265.800781 255.292969 264.878906 254.582031 263.796875 254.445312 L 263.75 254.4375 C 263.625 254.421875 263.5 254.414062 263.378906 254.414062 C 263.378906 254.507812 263.378906 254.601562 263.378906 254.699219 C 263.378906 261.3125 258.019531 266.675781 251.402344 266.675781 C 244.789062 266.675781 239.425781 261.3125 239.425781 254.699219 C 239.425781 248.082031 244.789062 242.71875 251.402344 242.71875 C 256.007812 242.71875 260.007812 245.320312 262.011719 249.132812 C 263.121094 249.4375 264.257812 249.632812 265.414062 249.714844 C 265.523438 249.324219 265.730469 248.960938 266.03125 248.667969 L 267.828125 246.933594 C 267.402344 246.035156 266.90625 245.175781 266.34375 244.367188 L 263.941406 245.050781 C 263.132812 245.285156 262.265625 245.050781 261.671875 244.457031 C 261.664062 244.449219 261.660156 244.441406 261.652344 244.4375 C 261.058594 243.84375 260.824219 242.976562 261.058594 242.164062 L 261.746094 239.765625 C 260.933594 239.203125 260.078125 238.703125 259.179688 238.277344 L 257.441406 240.070312 C 256.855469 240.675781 255.988281 240.910156 255.175781 240.691406 C 255.167969 240.6875 255.15625 240.6875 255.148438 240.683594 C 254.335938 240.464844 253.699219 239.828125 253.496094 239.011719 L 252.894531 236.59375 C 252.402344 236.554688 251.90625 236.535156 251.402344 236.535156 C 250.90625 236.535156 250.414062 236.554688 249.925781 236.59375 L 249.320312 239.011719 C 249.117188 239.828125 248.480469 240.464844 247.667969 240.679688 C 247.65625 240.683594 247.648438 240.683594 247.636719 240.6875 C 246.824219 240.90625 245.957031 240.671875 245.375 240.066406 L 243.636719 238.273438 C 242.742188 238.699219 241.882812 239.195312 241.070312 239.753906 L 241.757812 242.160156 C 241.988281 242.96875 241.757812 243.835938 241.160156 244.429688 C 241.15625 244.4375 241.148438 244.441406 241.140625 244.449219 C 240.546875 245.042969 239.679688 245.273438 238.871094 245.042969 L 236.46875 244.355469 C 235.90625 245.164062 235.410156 246.023438 234.984375 246.921875 L 236.777344 248.65625 C 237.382812 249.242188 237.613281 250.109375 237.394531 250.921875 C 237.394531 250.933594 237.390625 250.941406 237.386719 250.953125 C 237.171875 251.765625 236.535156 252.398438 235.71875 252.605469 L 233.300781 253.207031 C 233.257812 253.699219 233.238281 254.195312 233.238281 254.699219 C 233.238281 255.195312 233.257812 255.6875 233.296875 256.175781 L 235.714844 256.78125 C 236.53125 256.984375 237.167969 257.621094 237.382812 258.433594 C 237.386719 258.441406 237.390625 258.453125 237.394531 258.460938 C 237.609375 259.273438 237.378906 260.140625 236.773438 260.726562 L 234.976562 262.460938 C 235.402344 263.359375 235.898438 264.21875 236.460938 265.027344 L 238.863281 264.34375 C 239.671875 264.113281 240.539062 264.34375 241.132812 264.941406 C 241.140625 264.945312 241.144531 264.953125 241.152344 264.957031 C 241.746094 265.554688 241.980469 266.421875 241.746094 267.230469 L 241.058594 269.632812 C 241.871094 270.195312 242.726562 270.691406 243.625 271.117188 L 245.363281 269.324219 C 245.949219 268.71875 246.816406 268.488281 247.628906 268.703125 C 247.636719 268.707031 247.648438 268.710938 247.65625 268.710938 C 248.46875 268.929688 249.105469 269.566406 249.308594 270.382812 L 249.914062 272.800781 C 250.402344 272.839844 250.902344 272.863281 251.402344 272.863281 C 251.898438 272.863281 252.390625 272.84375 252.878906 272.804688 L 253.484375 270.382812 C 253.6875 269.566406 254.324219 268.933594 255.136719 268.714844 C 255.148438 268.714844 255.15625 268.710938 255.167969 268.707031 C 255.980469 268.488281 256.847656 268.722656 257.429688 269.328125 L 259.167969 271.125 C 260.066406 270.699219 260.921875 270.203125 261.734375 269.640625 L 261.046875 267.238281 C 260.816406 266.429688 261.046875 265.5625 261.644531 264.96875 C 261.652344 264.960938 261.65625 264.953125 261.664062 264.949219 C 262.257812 264.351562 263.125 264.121094 263.933594 264.351562 L 266.335938 265.039062 C 266.898438 264.230469 267.394531 263.371094 267.820312 262.472656 L 266.027344 260.738281 C 265.425781 260.152344 265.191406 259.285156 265.410156 258.472656 " fill-opacity="1" fill-rule="nonzero"/></g><g clip-path="url(#65df2810db)"><path fill="#82dbff" d="M 288.457031 234.933594 C 288.457031 234.917969 288.460938 234.902344 288.460938 234.886719 C 288.625 233.621094 289.449219 232.539062 290.636719 232.066406 L 294.148438 230.664062 C 294.109375 229.917969 294.039062 229.167969 293.9375 228.414062 C 293.835938 227.667969 293.703125 226.929688 293.546875 226.207031 L 289.789062 225.789062 C 288.519531 225.648438 287.433594 224.824219 286.945312 223.644531 C 286.941406 223.628906 286.933594 223.617188 286.925781 223.601562 C 286.433594 222.425781 286.609375 221.074219 287.398438 220.074219 L 289.742188 217.101562 C 288.921875 215.835938 288 214.648438 286.992188 213.542969 L 283.523438 215.0625 C 282.351562 215.574219 281 215.402344 279.988281 214.628906 C 279.976562 214.621094 279.964844 214.613281 279.957031 214.605469 C 278.941406 213.832031 278.417969 212.574219 278.597656 211.3125 L 279.144531 207.5625 C 277.8125 206.882812 276.421875 206.308594 274.984375 205.851562 L 272.742188 208.898438 C 271.984375 209.929688 270.730469 210.453125 269.464844 210.292969 C 269.449219 210.289062 269.433594 210.289062 269.417969 210.285156 C 268.152344 210.125 267.070312 209.296875 266.597656 208.113281 L 265.195312 204.601562 C 264.449219 204.640625 263.699219 204.710938 262.945312 204.8125 C 262.199219 204.914062 261.460938 205.042969 260.738281 205.203125 L 260.320312 208.960938 C 260.175781 210.226562 259.355469 211.3125 258.175781 211.804688 C 258.160156 211.808594 258.148438 211.816406 258.132812 211.820312 C 256.957031 212.3125 255.605469 212.136719 254.605469 211.347656 L 251.628906 209.003906 C 250.367188 209.828125 249.179688 210.746094 248.074219 211.753906 L 249.59375 215.226562 C 250.105469 216.394531 249.933594 217.746094 249.160156 218.761719 C 249.152344 218.773438 249.144531 218.78125 249.136719 218.792969 C 248.363281 219.808594 247.105469 220.332031 245.84375 220.148438 L 242.09375 219.605469 C 241.414062 220.9375 240.839844 222.328125 240.382812 223.761719 L 243.433594 226.007812 C 244.460938 226.765625 244.984375 228.019531 244.824219 229.285156 C 244.820312 229.300781 244.820312 229.316406 244.816406 229.332031 C 244.65625 230.597656 243.828125 231.679688 242.644531 232.152344 L 239.132812 233.550781 C 239.171875 234.300781 239.242188 235.050781 239.34375 235.804688 C 239.445312 236.550781 239.574219 237.285156 239.734375 238.011719 L 243.492188 238.429688 C 243.71875 238.453125 243.9375 238.5 244.152344 238.570312 C 244.203125 238.457031 244.265625 238.347656 244.339844 238.25 L 245.09375 239.03125 C 245.429688 239.265625 245.722656 239.558594 245.960938 239.894531 C 246.265625 240.121094 246.644531 240.25 247.03125 240.25 C 247.191406 240.25 247.351562 240.230469 247.503906 240.1875 L 247.535156 240.179688 C 248.167969 240.011719 248.660156 239.515625 248.816406 238.886719 L 249.222656 237.273438 C 248.964844 236.394531 248.765625 235.484375 248.640625 234.546875 C 247.292969 224.605469 254.261719 215.453125 264.203125 214.109375 C 274.144531 212.761719 283.292969 219.730469 284.640625 229.671875 C 285.984375 239.613281 279.019531 248.761719 269.078125 250.109375 C 262.421875 251.007812 256.125 248.1875 252.28125 243.238281 L 251.90625 243.238281 C 251.90625 243.242188 251.90625 243.246094 251.90625 243.25 C 251.792969 243.246094 251.675781 243.242188 251.558594 243.238281 L 251.195312 243.238281 C 248.949219 243.28125 246.859375 243.96875 245.101562 245.128906 L 243.535156 247.117188 C 244.359375 248.382812 245.277344 249.570312 246.289062 250.671875 L 249.757812 249.15625 C 250.925781 248.644531 252.277344 248.816406 253.292969 249.589844 C 253.300781 249.597656 253.3125 249.605469 253.324219 249.613281 C 254.339844 250.386719 254.863281 251.644531 254.679688 252.90625 L 254.136719 256.65625 C 255.46875 257.335938 256.855469 257.90625 258.292969 258.367188 L 260.539062 255.316406 C 261.296875 254.289062 262.550781 253.761719 263.816406 253.925781 C 263.832031 253.929688 263.847656 253.929688 263.863281 253.933594 C 265.128906 254.09375 266.210938 254.917969 266.683594 256.105469 L 268.082031 259.617188 C 268.832031 259.578125 269.582031 259.507812 270.335938 259.40625 C 271.082031 259.304688 271.816406 259.171875 272.539062 259.015625 L 272.960938 255.257812 C 273.101562 253.988281 273.925781 252.90625 275.105469 252.414062 C 275.117188 252.410156 275.132812 252.402344 275.148438 252.394531 C 276.324219 251.902344 277.671875 252.078125 278.675781 252.867188 L 281.648438 255.214844 C 282.914062 254.390625 284.101562 253.46875 285.203125 252.460938 L 283.6875 248.992188 C 283.175781 247.820312 283.34375 246.472656 284.121094 245.457031 C 284.128906 245.445312 284.136719 245.433594 284.144531 245.425781 C 284.917969 244.410156 286.175781 243.886719 287.4375 244.066406 L 291.1875 244.613281 C 291.867188 243.28125 292.4375 241.890625 292.898438 240.453125 L 289.847656 238.210938 C 288.820312 237.453125 288.292969 236.195312 288.457031 234.933594 " fill-opacity="1" fill-rule="nonzero"/></g><g clip-path="url(#e8ec8de3a5)"><path fill="#ffffff" d="M 248.125 126.296875 L 260.347656 137.03125 C 261.277344 137.851562 261.277344 139.300781 260.347656 140.117188 L 248.125 150.851562 C 245.5625 153.101562 246.65625 158.382812 250.722656 158.382812 L 271.285156 158.382812 L 271.285156 158.425781 L 275.84375 158.425781 C 276.976562 158.425781 277.894531 157.503906 277.894531 156.371094 L 277.894531 150.023438 C 277.894531 148.890625 276.976562 147.972656 275.84375 147.972656 L 273.339844 147.972656 C 272.207031 147.972656 271.285156 148.890625 271.285156 150.023438 L 271.285156 151.902344 L 258.566406 151.902344 C 257.933594 151.902344 257.640625 151.121094 258.113281 150.703125 L 268.417969 141.65625 C 270.277344 140.023438 270.277344 137.125 268.417969 135.492188 L 258.070312 126.40625 C 257.597656 125.988281 257.890625 125.207031 258.519531 125.207031 L 271.285156 125.207031 L 271.285156 127.125 C 271.285156 128.257812 272.203125 129.179688 273.339844 129.179688 L 275.84375 129.179688 C 276.976562 129.179688 277.894531 128.257812 277.894531 127.125 L 277.894531 120.777344 C 277.894531 119.644531 276.976562 118.726562 275.84375 118.726562 L 250.757812 118.726562 C 246.386719 118.726562 245.769531 124.230469 248.125 126.296875 Z M 248.125 126.296875 " fill-opacity="1" fill-rule="nonzero"/></g><g clip-path="url(#fe50617f5b)"><path fill="#82dbff" d="M 263.769531 140.117188 L 251.542969 150.851562 C 248.980469 153.101562 250.074219 158.386719 254.144531 158.386719 L 250.722656 158.386719 C 246.65625 158.386719 245.5625 153.101562 248.125 150.851562 L 260.347656 140.117188 C 261.277344 139.300781 261.277344 137.851562 260.347656 137.035156 L 248.125 126.296875 C 245.769531 124.230469 246.386719 118.726562 250.757812 118.726562 L 254.175781 118.726562 C 249.804688 118.726562 249.191406 124.230469 251.542969 126.296875 L 263.769531 137.035156 C 264.699219 137.851562 264.699219 139.300781 263.769531 140.117188 Z M 263.769531 140.117188 " fill-opacity="1" fill-rule="nonzero"/></g><path fill="#82dbff" d="M 275.84375 147.972656 C 276 147.972656 276.152344 147.988281 276.300781 148.023438 C 275.386719 148.230469 274.707031 149.046875 274.707031 150.023438 L 274.707031 151.902344 L 271.285156 151.902344 L 271.285156 150.023438 C 271.285156 148.890625 272.207031 147.972656 273.339844 147.972656 Z M 275.84375 147.972656 " fill-opacity="1" fill-rule="nonzero"/><path fill="#82dbff" d="M 271.285156 127.125 L 271.285156 125.207031 L 274.707031 125.207031 L 274.707031 127.125 C 274.707031 128.101562 275.386719 128.917969 276.300781 129.125 C 276.152344 129.160156 276 129.179688 275.84375 129.179688 L 273.335938 129.179688 C 272.203125 129.179688 271.285156 128.257812 271.285156 127.125 Z M 271.285156 127.125 " fill-opacity="1" fill-rule="nonzero"/><path fill="#ffffff" d="M 101.960938 257.101562 C 101.960938 257.882812 102.597656 258.519531 103.378906 258.519531 L 137.179688 258.519531 C 137.960938 258.519531 138.597656 257.882812 138.597656 257.101562 C 138.597656 256.316406 137.960938 255.679688 137.179688 255.679688 L 103.378906 255.679688 C 102.597656 255.679688 101.960938 256.316406 101.960938 257.101562 Z M 101.960938 257.101562 " fill-opacity="1" fill-rule="nonzero"/><g clip-path="url(#5e5d97995b)"><path fill="#82dbff" d="M 142.148438 205.503906 L 103.378906 205.503906 C 99.515625 205.503906 96.375 208.648438 96.375 212.511719 L 96.375 257.101562 C 96.375 260.964844 99.515625 264.105469 103.378906 264.105469 L 142.148438 264.105469 C 142.929688 264.105469 143.566406 263.46875 143.566406 262.6875 L 143.566406 206.925781 C 143.566406 206.140625 142.929688 205.503906 142.148438 205.503906 Z M 103.378906 208.34375 L 140.726562 208.34375 L 140.726562 250.09375 L 103.378906 250.09375 C 101.816406 250.09375 100.378906 250.613281 99.214844 251.480469 L 99.214844 212.511719 C 99.214844 210.210938 101.082031 208.34375 103.378906 208.34375 Z M 140.726562 261.265625 L 103.378906 261.265625 C 101.082031 261.265625 99.214844 259.398438 99.214844 257.101562 C 99.214844 254.800781 101.082031 252.933594 103.378906 252.933594 L 140.726562 252.933594 Z M 140.726562 261.265625 " fill-opacity="1" fill-rule="nonzero"/></g><path fill="#ffffff" d="M 111.097656 235.417969 C 111.375 235.695312 111.738281 235.832031 112.101562 235.832031 C 112.464844 235.832031 112.828125 235.695312 113.105469 235.417969 C 113.660156 234.863281 113.660156 233.964844 113.105469 233.410156 L 108.910156 229.214844 L 113.105469 225.019531 C 113.660156 224.464844 113.660156 223.566406 113.105469 223.015625 C 112.550781 222.460938 111.652344 222.460938 111.097656 223.015625 L 105.898438 228.210938 C 105.632812 228.476562 105.484375 228.839844 105.484375 229.214844 C 105.484375 229.59375 105.632812 229.953125 105.898438 230.21875 Z M 111.097656 235.417969 " fill-opacity="1" fill-rule="nonzero"/><path fill="#ffffff" d="M 126.835938 235.417969 C 127.113281 235.695312 127.476562 235.832031 127.839844 235.832031 C 128.203125 235.832031 128.566406 235.695312 128.84375 235.417969 L 134.039062 230.21875 C 134.59375 229.664062 134.59375 228.765625 134.039062 228.210938 L 128.84375 223.015625 C 128.289062 222.460938 127.390625 222.460938 126.835938 223.015625 C 126.28125 223.566406 126.28125 224.464844 126.835938 225.019531 L 131.03125 229.214844 L 126.835938 233.410156 C 126.28125 233.964844 126.28125 234.863281 126.835938 235.417969 Z M 126.835938 235.417969 " fill-opacity="1" fill-rule="nonzero"/><path fill="#ffffff" d="M 114.683594 241.660156 C 114.863281 241.738281 115.050781 241.773438 115.234375 241.773438 C 115.789062 241.773438 116.3125 241.449219 116.542969 240.910156 L 126.011719 218.632812 C 126.316406 217.910156 125.980469 217.078125 125.257812 216.769531 C 124.539062 216.464844 123.703125 216.800781 123.398438 217.519531 L 113.929688 239.800781 C 113.625 240.519531 113.960938 241.355469 114.683594 241.660156 Z M 114.683594 241.660156 " fill-opacity="1" fill-rule="nonzero"/><g clip-path="url(#b296cce0c8)"><g clip-path="url(#285433b674)"><path fill="#82dbff" d="M 127.925781 126.914062 L 127.925781 248.085938 L 247.070312 248.085938 L 247.070312 126.914062 Z M 127.925781 126.914062 " fill-opacity="1" fill-rule="nonzero"/></g></g><path fill="#ffffff" d="M 216.667969 176.792969 C 216.667969 176.792969 217.5625 178.683594 221.433594 179.941406 C 225.300781 181.203125 226.199219 181.832031 227.820312 183 C 229.4375 184.171875 233.035156 187.320312 234.207031 187.769531 C 235.375 188.21875 237.894531 192.445312 239.421875 195.863281 C 240.953125 199.285156 242.21875 204.53125 242.21875 204.53125 C 242.21875 204.53125 236.238281 192.199219 228.699219 190.792969 C 221.164062 189.386719 219.726562 188.488281 219.726562 188.488281 C 219.726562 188.488281 225.070312 188.296875 223.949219 186.148438 C 222.832031 184.003906 215.871094 179.449219 214.828125 179.382812 C 213.785156 179.3125 210.371094 176.792969 210.371094 176.792969 Z M 216.667969 176.792969 " fill-opacity="1" fill-rule="evenodd"/><path fill="#ffffff" d="M 190.277344 218.828125 C 194.6875 230.484375 199.578125 235.660156 210.90625 240.484375 C 212.480469 241.152344 214.449219 242.0625 216.207031 241.777344 C 220.160156 241.128906 241.757812 237.574219 243.296875 236.703125 C 244.988281 235.742188 245.433594 235.648438 245.433594 235.648438 C 245.433594 235.648438 214.414062 247.769531 190.277344 218.828125 Z M 190.277344 218.828125 " fill-opacity="1" fill-rule="evenodd"/><path fill="#ffffff" d="M 143.53125 183.847656 C 149.515625 149.800781 167.835938 152.769531 189.765625 134.289062 L 193.925781 128.101562 C 164.976562 132.117188 138.640625 146.316406 132.347656 177.097656 C 131.621094 180.65625 129.464844 215.378906 129.464844 215.378906 C 129.464844 215.378906 139.210938 183.363281 143.53125 183.847656 Z M 143.53125 183.847656 " fill-opacity="1" fill-rule="evenodd"/><path fill="#ffffff" d="M 218.96875 181.625 C 218.96875 181.625 226.109375 184.710938 228.265625 186.691406 C 230.425781 188.667969 234.253906 193.753906 234.253906 193.753906 C 234.253906 193.753906 226.21875 190.351562 224.523438 189.933594 C 222.824219 189.519531 219.726562 188.488281 219.726562 188.488281 C 219.726562 188.488281 229.921875 188.414062 218.96875 181.625 Z M 218.96875 181.625 " fill-opacity="1" fill-rule="evenodd"/><path fill="#ffffff" d="M 244.371094 195.34375 C 244.371094 195.34375 241.761719 187.859375 239.691406 183.453125 C 237.621094 179.042969 237.351562 177.425781 236.902344 175.714844 C 236.453125 174.007812 233.664062 166.902344 233.664062 166.902344 C 233.664062 166.902344 236.992188 171.488281 237.710938 172.929688 C 238.433594 174.367188 240.128906 176.890625 240.128906 176.890625 C 240.128906 176.890625 242.480469 175.714844 242.75 174.007812 C 243.019531 172.296875 243.109375 169.328125 243.109375 169.328125 C 243.109375 169.328125 246.617188 187.320312 244.371094 195.34375 Z M 244.371094 195.34375 " fill-opacity="1" fill-rule="evenodd"/><path fill="#ffffff" d="M 150.589844 208.726562 C 150.589844 208.726562 159.453125 187.679688 163.410156 179.585938 C 167.367188 171.488281 174.5625 154.578125 174.5625 154.578125 L 169.84375 157.679688 C 169.84375 157.679688 147.578125 183.542969 150.589844 208.726562 Z M 150.589844 208.726562 " fill-opacity="1" fill-rule="evenodd"/><path fill="#ffffff" d="M 185.933594 188.914062 C 185.933594 188.914062 188.144531 174.277344 191.742188 171.578125 C 195.339844 168.878906 198.039062 169.058594 198.578125 166.359375 C 199.117188 163.660156 198.578125 158.804688 198.578125 158.804688 C 198.578125 158.804688 201.277344 164.5625 203.976562 164.921875 C 206.675781 165.28125 208.652344 164.742188 211.710938 165.101562 C 214.769531 165.460938 222.0625 171.039062 222.0625 171.039062 C 222.0625 171.039062 196.601562 166.179688 185.933594 188.914062 Z M 185.933594 188.914062 " fill-opacity="1" fill-rule="evenodd"/><path fill="#ffffff" d="M 190.441406 181.242188 C 198.878906 170.902344 201.671875 168.632812 215.042969 170.621094 C 215.042969 170.621094 200.410156 171.566406 190.441406 181.242188 Z M 190.441406 181.242188 " fill-opacity="1" fill-rule="evenodd"/><g fill="#ffffff" fill-opacity="1"><g transform="translate(153.498042, 295.317343)"><g><path d="M 0.359375 0 L 0.359375 -0.875 C 3.460938 -3.007812 5.015625 -4.710938 5.015625 -5.984375 C 5.015625 -7.035156 4.347656 -7.5625 3.015625 -7.5625 C 2.160156 -7.5625 1.351562 -7.347656 0.59375 -6.921875 L 0.59375 -7.859375 C 1.351562 -8.242188 2.160156 -8.4375 3.015625 -8.4375 C 5.066406 -8.4375 6.09375 -7.617188 6.09375 -5.984375 C 6.09375 -4.535156 4.695312 -2.832031 1.90625 -0.875 L 6.09375 -0.875 L 6.09375 0 Z M 0.359375 0 "/></g></g><g transform="translate(160.207026, 295.317343)"><g><path d="M 1.78125 -4.21875 C 1.78125 -1.957031 2.609375 -0.828125 4.265625 -0.828125 C 5.878906 -0.828125 6.6875 -1.957031 6.6875 -4.21875 C 6.6875 -6.445312 5.878906 -7.5625 4.265625 -7.5625 C 2.609375 -7.5625 1.78125 -6.445312 1.78125 -4.21875 Z M 0.640625 -4.171875 C 0.640625 -7.015625 1.847656 -8.4375 4.265625 -8.4375 C 6.640625 -8.4375 7.828125 -7.015625 7.828125 -4.171875 C 7.828125 -1.347656 6.640625 0.0625 4.265625 0.0625 C 1.847656 0.0625 0.640625 -1.347656 0.640625 -4.171875 Z M 0.640625 -4.171875 "/></g></g><g transform="translate(168.673823, 295.317343)"><g><path d="M 0.359375 0 L 0.359375 -0.875 C 3.460938 -3.007812 5.015625 -4.710938 5.015625 -5.984375 C 5.015625 -7.035156 4.347656 -7.5625 3.015625 -7.5625 C 2.160156 -7.5625 1.351562 -7.347656 0.59375 -6.921875 L 0.59375 -7.859375 C 1.351562 -8.242188 2.160156 -8.4375 3.015625 -8.4375 C 5.066406 -8.4375 6.09375 -7.617188 6.09375 -5.984375 C 6.09375 -4.535156 4.695312 -2.832031 1.90625 -0.875 L 6.09375 -0.875 L 6.09375 0 Z M 0.359375 0 "/></g></g><g transform="translate(175.382807, 295.317343)"><g><path d="M 0.90625 -8.375 L 5.96875 -8.375 L 5.96875 -7.5 L 1.828125 -7.5 L 1.6875 -4.90625 C 2.144531 -5 2.628906 -5.046875 3.140625 -5.046875 C 5.242188 -5.046875 6.296875 -4.242188 6.296875 -2.640625 C 6.296875 -0.835938 5.203125 0.0625 3.015625 0.0625 C 2.273438 0.0625 1.515625 -0.0546875 0.734375 -0.296875 L 0.734375 -1.234375 C 1.515625 -0.960938 2.296875 -0.828125 3.078125 -0.828125 C 4.503906 -0.828125 5.21875 -1.429688 5.21875 -2.640625 C 5.21875 -3.648438 4.523438 -4.15625 3.140625 -4.15625 C 2.253906 -4.15625 1.453125 -4.078125 0.734375 -3.921875 Z M 0.90625 -8.375 "/></g></g><g transform="translate(182.267572, 295.317343)"><g/></g><g transform="translate(185.197259, 295.317343)"><g><path d="M 3.515625 -3.515625 L 3.515625 -2.640625 L 0.59375 -2.640625 L 0.59375 -3.515625 Z M 3.515625 -3.515625 "/></g></g><g transform="translate(189.298821, 295.317343)"><g/></g><g transform="translate(192.228509, 295.317343)"><g><path d="M 0.359375 0 L 0.359375 -0.875 C 3.460938 -3.007812 5.015625 -4.710938 5.015625 -5.984375 C 5.015625 -7.035156 4.347656 -7.5625 3.015625 -7.5625 C 2.160156 -7.5625 1.351562 -7.347656 0.59375 -6.921875 L 0.59375 -7.859375 C 1.351562 -8.242188 2.160156 -8.4375 3.015625 -8.4375 C 5.066406 -8.4375 6.09375 -7.617188 6.09375 -5.984375 C 6.09375 -4.535156 4.695312 -2.832031 1.90625 -0.875 L 6.09375 -0.875 L 6.09375 0 Z M 0.359375 0 "/></g></g><g transform="translate(198.937493, 295.317343)"><g><path d="M 1.78125 -4.21875 C 1.78125 -1.957031 2.609375 -0.828125 4.265625 -0.828125 C 5.878906 -0.828125 6.6875 -1.957031 6.6875 -4.21875 C 6.6875 -6.445312 5.878906 -7.5625 4.265625 -7.5625 C 2.609375 -7.5625 1.78125 -6.445312 1.78125 -4.21875 Z M 0.640625 -4.171875 C 0.640625 -7.015625 1.847656 -8.4375 4.265625 -8.4375 C 6.640625 -8.4375 7.828125 -7.015625 7.828125 -4.171875 C 7.828125 -1.347656 6.640625 0.0625 4.265625 0.0625 C 1.847656 0.0625 0.640625 -1.347656 0.640625 -4.171875 Z M 0.640625 -4.171875 "/></g></g><g transform="translate(207.404289, 295.317343)"><g><path d="M 0.359375 0 L 0.359375 -0.875 C 3.460938 -3.007812 5.015625 -4.710938 5.015625 -5.984375 C 5.015625 -7.035156 4.347656 -7.5625 3.015625 -7.5625 C 2.160156 -7.5625 1.351562 -7.347656 0.59375 -6.921875 L 0.59375 -7.859375 C 1.351562 -8.242188 2.160156 -8.4375 3.015625 -8.4375 C 5.066406 -8.4375 6.09375 -7.617188 6.09375 -5.984375 C 6.09375 -4.535156 4.695312 -2.832031 1.90625 -0.875 L 6.09375 -0.875 L 6.09375 0 Z M 0.359375 0 "/></g></g><g transform="translate(214.113273, 295.317343)"><g><path d="M 0.59375 -3.21875 C 0.59375 -5.394531 1.875 -7.195312 4.4375 -8.625 L 5 -7.890625 C 3.59375 -7.203125 2.59375 -6.265625 2 -5.078125 C 2.507812 -5.285156 3.125 -5.390625 3.84375 -5.390625 C 5.851562 -5.390625 6.859375 -4.507812 6.859375 -2.75 C 6.859375 -0.875 5.796875 0.0625 3.671875 0.0625 C 1.617188 0.0625 0.59375 -1.03125 0.59375 -3.21875 Z M 1.609375 -3.265625 C 1.609375 -1.640625 2.316406 -0.828125 3.734375 -0.828125 C 5.109375 -0.828125 5.796875 -1.46875 5.796875 -2.75 C 5.796875 -3.925781 5.128906 -4.515625 3.796875 -4.515625 C 2.953125 -4.515625 2.28125 -4.421875 1.78125 -4.234375 C 1.664062 -3.992188 1.609375 -3.671875 1.609375 -3.265625 Z M 1.609375 -3.265625 "/></g></g></g><g clip-path="url(#fab0d2b03e)"><g clip-path="url(#0b12191935)"><g transform="matrix(1, 0, 0, 1, 105, 295)"><g clip-path="url(#7a935d0949)"><g clip-path="url(#4d495d35aa)"><g clip-path="url(#a36aaaee76)"><path fill="#ffffff" d="M 0.832031 0.535156 L 6.816406 0.535156 L 6.816406 6.519531 L 0.832031 6.519531 Z M 0.832031 0.535156 " fill-opacity="1" fill-rule="nonzero"/></g></g></g></g></g></g><g clip-path="url(#528f628164)"><g clip-path="url(#e12b701604)"><g transform="matrix(1, 0, 0, 1, 178, 303)"><g clip-path="url(#52bb9f91fc)"><g clip-path="url(#d77e18bd9e)"><g clip-path="url(#d7904b49fb)"><path fill="#ffffff" d="M 0.28125 0.0351562 L 6.265625 0.0351562 L 6.265625 6.019531 L 0.28125 6.019531 Z M 0.28125 0.0351562 " fill-opacity="1" fill-rule="nonzero"/></g></g></g></g></g></g><g clip-path="url(#6310029137)"><g clip-path="url(#3b12dc42dc)"><g transform="matrix(1, 0, 0, 1, 213, 278)"><g clip-path="url(#e7e30d6fd0)"><g clip-path="url(#ee81e2c749)"><g clip-path="url(#e6c54d2137)"><path fill="#ffffff" d="M 0.546875 0.441406 L 6.53125 0.441406 L 6.53125 6.425781 L 0.546875 6.425781 Z M 0.546875 0.441406 " fill-opacity="1" fill-rule="nonzero"/></g></g></g></g></g></g><g clip-path="url(#473bd89bb4)"><g clip-path="url(#980916dc52)"><g transform="matrix(1, 0, 0, 1, 285, 285)"><g clip-path="url(#06b96ac708)"><g clip-path="url(#af1d5b6a14)"><g clip-path="url(#e7e8b135ea)"><path fill="#ffffff" d="M 0.695312 0.941406 L 6.679688 0.941406 L 6.679688 6.925781 L 0.695312 6.925781 Z M 0.695312 0.941406 " fill-opacity="1" fill-rule="nonzero"/></g></g></g></g></g></g><g clip-path="url(#d74f166bdd)"><g clip-path="url(#ba0dda2708)"><path stroke-linecap="butt" transform="matrix(0.75, 0, 0, 0.75, 124.274996, 301.683878)" fill="none" stroke-linejoin="miter" d="M 2.685422 -0.000378719 C 1.201047 -0.000378719 -0.00207845 1.202746 -0.00207845 2.687121 C -0.00207845 4.171497 1.201047 5.374622 2.685422 5.374622 C 4.169797 5.374622 5.372922 4.171497 5.372922 2.687121 C 5.372922 1.202746 4.169797 -0.000378719 2.685422 -0.000378719 Z M 2.685422 -0.000378719 " stroke="#ffffff" stroke-width="4" stroke-opacity="1" stroke-miterlimit="4"/></g></g><g clip-path="url(#938b8d50d9)"><g clip-path="url(#5e4ffd5326)"><path stroke-linecap="butt" transform="matrix(0.75, 0, 0, 0.75, 171.074993, 309.483877)" fill="none" stroke-linejoin="miter" d="M 2.686467 0.00066363 C 1.202092 0.00066363 -0.00103269 1.203789 -0.00103269 2.688164 C -0.00103269 4.172539 1.202092 5.375664 2.686467 5.375664 C 4.170843 5.375664 5.373968 4.172539 5.373968 2.688164 C 5.373968 1.203789 4.170843 0.00066363 2.686467 0.00066363 Z M 2.686467 0.00066363 " stroke="#ffffff" stroke-width="4" stroke-opacity="1" stroke-miterlimit="4"/></g></g><g clip-path="url(#365a24a702)"><g clip-path="url(#a1434646db)"><path stroke-linecap="butt" transform="matrix(0.75, 0, 0, 0.75, 164.774994, 313.533877)" fill="none" stroke-linejoin="miter" d="M 2.685425 0.00170565 C 1.20105 0.00170565 -0.00207491 1.204831 -0.00207491 2.689206 C -0.00207491 4.173581 1.20105 5.376706 2.685425 5.376706 C 4.1698 5.376706 5.372925 4.173581 5.372925 2.689206 C 5.372925 1.204831 4.1698 0.00170565 2.685425 0.00170565 Z M 2.685425 0.00170565 " stroke="#ffffff" stroke-width="4" stroke-opacity="1" stroke-miterlimit="4"/></g></g><g clip-path="url(#9ecb4696b7)"><g clip-path="url(#b9e676ad8e)"><path stroke-linecap="butt" transform="matrix(0.75, 0, 0, 0.75, 185.924992, 317.433877)" fill="none" stroke-linejoin="miter" d="M 2.688552 -0.00037734 C 1.204177 -0.00037734 0.00105195 1.202748 0.00105195 2.687123 C 0.00105195 4.171498 1.204177 5.374623 2.688552 5.374623 C 4.172927 5.374623 5.376052 4.171498 5.376052 2.687123 C 5.376052 1.202748 4.172927 -0.00037734 2.688552 -0.00037734 Z M 2.688552 -0.00037734 " stroke="#ffffff" stroke-width="4" stroke-opacity="1" stroke-miterlimit="4"/></g></g><g clip-path="url(#ee5075a4d5)"><g clip-path="url(#ed09149de3)"><path stroke-linecap="butt" transform="matrix(0.75, 0, 0, 0.75, 223.724975, 305.733878)" fill="none" stroke-linejoin="miter" d="M 2.689616 0.000663302 C 1.205241 0.000663302 0.00211612 1.203788 0.00211612 2.688163 C 0.00211612 4.172539 1.205241 5.375664 2.689616 5.375664 C 4.173991 5.375664 5.377116 4.172539 5.377116 2.688163 C 5.377116 1.203788 4.173991 0.000663302 2.689616 0.000663302 Z M 2.689616 0.000663302 " stroke="#ffffff" stroke-width="4" stroke-opacity="1" stroke-miterlimit="4"/></g></g><g clip-path="url(#98df775db0)"><g clip-path="url(#976cd5a906)"><path stroke-linecap="butt" transform="matrix(0.75, 0, 0, 0.75, 222.53807, 274.242344)" fill="none" stroke-linejoin="miter" d="M 2.688824 -0.000209189 C 1.204449 -0.000209189 0.00132348 1.202916 0.00132348 2.687291 C 0.00132348 4.171666 1.204449 5.374791 2.688824 5.374791 C 4.173199 5.374791 5.376324 4.171666 5.376324 2.687291 C 5.376324 1.202916 4.173199 -0.000209189 2.688824 -0.000209189 Z M 2.688824 -0.000209189 " stroke="#ffffff" stroke-width="4" stroke-opacity="1" stroke-miterlimit="4"/></g></g><g clip-path="url(#1ed733ceff)"><g clip-path="url(#349a37ebda)"><path stroke-linecap="butt" transform="matrix(0.75, 0, 0, 0.75, 269.488084, 282.042375)" fill="none" stroke-linejoin="miter" d="M 2.687764 0.000791561 C 1.203389 0.000791561 0.000263529 1.203917 0.000263529 2.688292 C 0.000263529 4.172667 1.203389 5.375792 2.687764 5.375792 C 4.172139 5.375792 5.375264 4.172667 5.375264 2.688292 C 5.375264 1.203917 4.172139 0.000791561 2.687764 0.000791561 Z M 2.687764 0.000791561 " stroke="#ffffff" stroke-width="4" stroke-opacity="1" stroke-miterlimit="4"/></g></g><path stroke-linecap="butt" transform="matrix(0.749993, -0.00315288, 0.00315288, 0.749993, 109.640666, 297.333878)" fill="none" stroke-linejoin="miter" d="M -0.00114192 1.497546 L 47.577399 1.499642 " stroke="#ffffff" stroke-width="3" stroke-opacity="1" stroke-miterlimit="4"/><path stroke-linecap="butt" transform="matrix(0.749994, -0.00310074, 0.00310074, 0.749994, 252.453826, 288.042375)" fill="none" stroke-linejoin="miter" d="M -0.00193049 1.500797 L 48.373499 1.497672 " stroke="#ffffff" stroke-width="3" stroke-opacity="1" stroke-miterlimit="4"/><path stroke-linecap="butt" transform="matrix(0.75, -0.000000000000001116, 0.000000000000001116, 0.75, 216.608457, 280.542375)" fill="none" stroke-linejoin="miter" d="M 0.00122337 1.500792 L 36.975184 1.500792 " stroke="#ffffff" stroke-width="3" stroke-opacity="1" stroke-miterlimit="4"/><path stroke-linecap="butt" transform="matrix(0.75, 0, 0, 0.75, 152.995379, 304.983878)" fill="none" stroke-linejoin="miter" d="M 0.000952662 1.500663 L 37.573872 1.500663 " stroke="#ffffff" stroke-width="3" stroke-opacity="1" stroke-miterlimit="4"/><path stroke-linecap="butt" transform="matrix(0.749988, 0.00428829, -0.00428829, 0.749988, 197.704268, 306.969561)" fill="none" stroke-linejoin="miter" d="M -0.00102111 0.998941 L 34.978737 1.002062 " stroke="#ffffff" stroke-width="2" stroke-opacity="1" stroke-miterlimit="4"/><path stroke-linecap="butt" transform="matrix(0.749983, -0.00500349, 0.00500349, 0.749983, 225.158061, 275.477999)" fill="none" stroke-linejoin="miter" d="M 0.00134339 0.998116 L 29.981164 1.000205 " stroke="#ffffff" stroke-width="2" stroke-opacity="1" stroke-miterlimit="4"/><path stroke-linecap="butt" transform="matrix(0.75, 0, 0, 0.75, 167.399994, 314.919529)" fill="none" stroke-linejoin="miter" d="M -0.00207468 0.99792 L 29.779177 0.99792 " stroke="#ffffff" stroke-width="2" stroke-opacity="1" stroke-miterlimit="4"/><path stroke-linecap="butt" transform="matrix(0.749958, -0.00790328, 0.00790328, 0.749958, 127.492086, 302.91953)" fill="none" stroke-linejoin="miter" d="M 0.0000360053 0.997975 L 18.980236 1.000066 " stroke="#ffffff" stroke-width="2" stroke-opacity="1" stroke-miterlimit="4"/><path stroke-linecap="butt" transform="matrix(0.749982, -0.00524859, 0.00524859, 0.749982, 149.994736, 310.71956)" fill="none" stroke-linejoin="miter" d="M 0.0000276046 0.998944 L 28.57884 1.001025 " stroke="#ffffff" stroke-width="2" stroke-opacity="1" stroke-miterlimit="4"/><path stroke-linecap="butt" transform="matrix(0.75, 0, 0, 0.75, 164.999994, 318.519529)" fill="none" stroke-linejoin="miter" d="M 0.00000844667 1.000003 L 28.979177 1.000003 " stroke="#ffffff" stroke-width="2" stroke-opacity="1" stroke-miterlimit="4"/><path stroke-linecap="butt" transform="matrix(0.749962, 0.00750773, -0.00750773, 0.749962, 255.320553, 283.128087)" fill="none" stroke-linejoin="miter" d="M -0.000716003 1.00115 L 19.979432 0.999059 " stroke="#ffffff" stroke-width="2" stroke-opacity="1" stroke-miterlimit="4"/><path stroke-linecap="butt" transform="matrix(0.553453, -0.506152, 0.506152, 0.553453, 188.602156, 315.210215)" fill="none" stroke-linejoin="miter" d="M 0.00280317 0.999043 L 16.382101 1.001485 " stroke="#ffffff" stroke-width="2" stroke-opacity="1" stroke-miterlimit="4"/><path stroke-linecap="butt" transform="matrix(-0.552156, -0.507566, 0.507566, -0.552156, 149.939409, 312.217801)" fill="none" stroke-linejoin="miter" d="M 0.00306024 1.000053 L 16.819086 0.999886 " stroke="#ffffff" stroke-width="2" stroke-opacity="1" stroke-miterlimit="4"/><path stroke-linecap="butt" transform="matrix(-0.552156, -0.507566, 0.507566, -0.552156, 164.789408, 320.167801)" fill="none" stroke-linejoin="miter" d="M -0.00129477 0.998396 L 16.82209 0.998538 " stroke="#ffffff" stroke-width="2" stroke-opacity="1" stroke-miterlimit="4"/><path stroke-linecap="butt" transform="matrix(-0.553288, -0.506332, 0.506332, -0.553288, 255.406337, 284.478437)" fill="none" stroke-linejoin="miter" d="M -0.00194041 1.000633 L 15.975178 1.000849 " stroke="#ffffff" stroke-width="2" stroke-opacity="1" stroke-miterlimit="4"/><path stroke-linecap="butt" transform="matrix(-0.552317, -0.507391, 0.507391, -0.552317, 153.019742, 307.288809)" fill="none" stroke-linejoin="miter" d="M -0.000958487 1.499787 L 16.697321 1.499953 " stroke="#ffffff" stroke-width="3" stroke-opacity="1" stroke-miterlimit="4"/><path stroke-linecap="butt" transform="matrix(-0.573587, -0.483216, 0.483216, -0.573587, 252.370536, 290.229855)" fill="none" stroke-linejoin="miter" d="M 0.000250656 1.496965 L 16.599959 1.500782 " stroke="#ffffff" stroke-width="3" stroke-opacity="1" stroke-miterlimit="4"/><g clip-path="url(#91fee3d57e)"><path fill="#82dbff" d="M 277.632812 191.238281 C 277.421875 202.804688 274.949219 214.257812 270.449219 224.820312 C 265.949219 235.386719 259.488281 245.113281 251.394531 253.273438 C 243.324219 261.4375 233.644531 268.0625 223.058594 272.609375 C 217.761719 274.894531 212.234375 276.667969 206.589844 277.878906 C 200.949219 279.117188 195.164062 279.792969 189.355469 279.910156 C 183.546875 280.027344 177.71875 279.582031 171.980469 278.578125 C 166.242188 277.601562 160.574219 276.015625 155.09375 273.914062 C 144.15625 269.71875 133.988281 263.328125 125.40625 255.164062 C 121.113281 251.082031 117.21875 246.582031 113.789062 241.707031 L 112.53125 239.863281 L 111.902344 238.929688 C 111.691406 238.628906 111.480469 238.324219 111.296875 238 L 110.128906 236.085938 L 109.546875 235.128906 L 109.265625 234.664062 L 108.988281 234.195312 L 107.914062 232.238281 L 107.378906 231.257812 L 107.121094 230.769531 L 106.886719 230.253906 L 105.90625 228.226562 L 105.417969 227.222656 C 105.347656 227.058594 105.253906 226.898438 105.183594 226.710938 L 104.976562 226.195312 L 104.113281 224.121094 C 103.832031 223.421875 103.503906 222.746094 103.273438 222.046875 L 102.503906 219.945312 C 102.246094 219.246094 101.964844 218.546875 101.78125 217.824219 L 101.125 215.679688 L 100.800781 214.605469 C 100.753906 214.417969 100.683594 214.257812 100.636719 214.070312 L 100.496094 213.53125 L 99.9375 211.339844 L 99.65625 210.246094 L 99.519531 209.707031 L 99.402344 209.148438 C 98.117188 203.292969 97.417969 197.277344 97.324219 191.261719 C 97.117188 179.226562 99.355469 167.097656 103.925781 155.878906 C 108.472656 144.660156 115.308594 134.375 123.867188 125.792969 C 128.15625 121.503906 132.867188 117.652344 137.929688 114.320312 L 139.84375 113.105469 L 140.796875 112.5 C 141.125 112.289062 141.429688 112.101562 141.777344 111.917969 L 143.761719 110.796875 L 144.738281 110.238281 L 145.230469 109.957031 L 145.742188 109.699219 L 147.773438 108.675781 L 148.796875 108.160156 L 149.3125 107.90625 L 149.824219 107.671875 L 151.898438 106.761719 L 152.949219 106.296875 C 153.113281 106.226562 153.300781 106.132812 153.460938 106.0625 L 154 105.851562 L 156.121094 105.035156 C 156.820312 104.78125 157.519531 104.476562 158.242188 104.265625 L 160.390625 103.566406 C 161.113281 103.332031 161.8125 103.078125 162.558594 102.914062 L 164.75 102.332031 L 165.847656 102.027344 C 166.035156 101.980469 166.21875 101.933594 166.382812 101.886719 L 166.941406 101.769531 L 169.160156 101.28125 L 170.253906 101.046875 L 170.816406 100.933594 L 171.375 100.839844 C 177.320312 99.765625 183.339844 99.277344 189.355469 99.390625 C 201.367188 99.625 213.285156 102.308594 224.175781 107.183594 C 235.046875 112.054688 244.886719 119.054688 252.957031 127.613281 C 256.992188 131.902344 260.605469 136.570312 263.730469 141.511719 C 266.855469 146.457031 269.492188 151.703125 271.589844 157.140625 C 275.789062 168.054688 277.84375 179.691406 277.632812 191.238281 Z M 276.257812 191.238281 C 276.140625 185.546875 275.488281 179.878906 274.25 174.351562 C 273.015625 168.824219 271.265625 163.414062 268.957031 158.257812 C 264.386719 147.925781 257.738281 138.621094 249.597656 130.949219 C 241.457031 123.296875 231.875 117.28125 221.566406 113.386719 C 216.410156 111.425781 211.070312 109.980469 205.683594 109.046875 L 203.652344 108.746094 L 202.625 108.582031 L 202.113281 108.511719 C 201.949219 108.488281 201.765625 108.464844 201.601562 108.464844 L 199.546875 108.253906 L 198.523438 108.160156 C 198.171875 108.136719 197.84375 108.089844 197.496094 108.070312 C 196.121094 108 194.765625 107.90625 193.390625 107.859375 L 189.285156 107.859375 L 185.25 108.070312 C 183.898438 108.183594 182.546875 108.324219 181.167969 108.441406 C 180.820312 108.464844 180.492188 108.535156 180.167969 108.582031 L 179.164062 108.722656 L 177.136719 109.023438 C 176.972656 109.046875 176.808594 109.070312 176.621094 109.09375 L 176.132812 109.1875 L 175.128906 109.398438 L 173.125 109.792969 L 172.632812 109.886719 L 172.144531 110.003906 L 171.164062 110.238281 L 169.183594 110.726562 L 168.691406 110.84375 C 168.527344 110.890625 168.367188 110.9375 168.203125 110.984375 L 167.222656 111.285156 L 165.265625 111.871094 C 164.609375 112.054688 163.980469 112.3125 163.328125 112.523438 L 161.414062 113.199219 C 160.761719 113.410156 160.15625 113.6875 159.527344 113.945312 L 157.636719 114.714844 L 157.171875 114.902344 C 157.007812 114.972656 156.867188 115.042969 156.703125 115.113281 L 155.796875 115.53125 L 153.953125 116.394531 L 153.484375 116.605469 L 153.042969 116.835938 L 152.132812 117.304688 L 150.335938 118.238281 L 149.894531 118.46875 L 149.453125 118.726562 L 148.566406 119.238281 L 146.816406 120.265625 C 146.511719 120.429688 146.234375 120.617188 145.953125 120.800781 L 145.113281 121.363281 L 143.410156 122.457031 C 138.933594 125.492188 134.734375 128.964844 130.910156 132.789062 C 123.261719 140.441406 117.101562 149.582031 112.859375 159.542969 C 110.734375 164.53125 109.101562 169.710938 107.984375 175.027344 C 106.863281 180.34375 106.257812 185.757812 106.140625 191.214844 C 106.046875 196.671875 106.492188 202.128906 107.425781 207.515625 L 107.492188 208.027344 L 107.585938 208.542969 L 107.796875 209.546875 L 108.21875 211.550781 L 108.308594 212.0625 C 108.355469 212.226562 108.402344 212.390625 108.425781 212.554688 L 108.683594 213.554688 L 109.195312 215.539062 C 109.359375 216.214844 109.59375 216.84375 109.78125 217.496094 L 110.386719 219.457031 C 110.574219 220.109375 110.828125 220.761719 111.0625 221.394531 L 111.761719 223.328125 L 111.949219 223.816406 C 112.019531 223.980469 112.089844 224.144531 112.136719 224.285156 L 112.53125 225.242188 L 113.324219 227.128906 L 113.535156 227.597656 L 113.769531 228.0625 L 114.210938 228.996094 L 115.097656 230.863281 L 115.332031 231.328125 L 115.585938 231.769531 L 116.078125 232.679688 L 117.054688 234.5 C 117.21875 234.804688 117.382812 235.105469 117.570312 235.386719 L 118.105469 236.273438 L 119.179688 238.046875 C 122.117188 242.710938 125.523438 247.117188 129.347656 251.152344 C 136.972656 259.222656 146.257812 265.824219 156.496094 270.394531 C 161.625 272.679688 166.988281 274.453125 172.492188 275.6875 C 177.996094 276.925781 183.640625 277.601562 189.308594 277.71875 C 194.976562 277.808594 200.667969 277.390625 206.265625 276.386719 C 211.863281 275.359375 217.367188 273.796875 222.660156 271.699219 C 233.25 267.476562 243.019531 261.085938 251.160156 253.042969 C 259.300781 244.996094 265.832031 235.292969 270.121094 224.65625 C 272.269531 219.363281 273.855469 213.835938 274.878906 208.214844 C 275.90625 202.640625 276.347656 196.925781 276.257812 191.238281 Z M 276.257812 191.238281 " fill-opacity="1" fill-rule="nonzero"/></g></svg>